<svg width="18" height="19" viewBox="0 0 18 19" fill="none" xmlns="http://www.w3.org/2000/svg">
<path d="M1.50008 2.50001H3.16675V14.1667C3.16675 14.3877 3.25455 14.5997 3.41083 14.7559C3.56711 14.9122 3.77907 15 4.00008 15H14.0001C14.1794 15 14.3539 14.9422 14.4977 14.8352C14.6415 14.7281 14.747 14.5776 14.7984 14.4058L17.2984 6.07251C17.3357 5.94808 17.3434 5.81667 17.3208 5.68875C17.2983 5.56083 17.2462 5.43995 17.1686 5.33576C17.0911 5.23156 16.9902 5.14694 16.8741 5.08865C16.7581 5.03035 16.63 5 16.5001 5.00001H4.83342V1.66668C4.83342 1.44566 4.74562 1.2337 4.58934 1.07742C4.43306 0.921141 4.2211 0.833344 4.00008 0.833344H1.50008C1.27907 0.833344 1.06711 0.921141 0.910826 1.07742C0.754545 1.2337 0.666748 1.44566 0.666748 1.66668C0.666748 1.88769 0.754545 2.09965 0.910826 2.25593C1.06711 2.41221 1.27907 2.50001 1.50008 2.50001ZM4.83342 6.66668H15.3801L13.3801 13.3333H4.83342V6.66668ZM4.41675 15.8333C4.66398 15.8333 4.90565 15.9067 5.11121 16.044C5.31677 16.1814 5.47699 16.3766 5.5716 16.605C5.66621 16.8334 5.69096 17.0847 5.64273 17.3272C5.5945 17.5697 5.47545 17.7924 5.30063 17.9672C5.12582 18.142 4.90309 18.2611 4.66061 18.3093C4.41814 18.3576 4.1668 18.3328 3.93839 18.2382C3.70999 18.1436 3.51476 17.9834 3.37741 17.7778C3.24006 17.5722 3.16675 17.3306 3.16675 17.0833C3.16675 16.7518 3.29844 16.4339 3.53286 16.1995C3.76729 15.965 4.08523 15.8333 4.41675 15.8333ZM12.7501 15.8333C12.9973 15.8333 13.239 15.9067 13.4445 16.044C13.6501 16.1814 13.8103 16.3766 13.9049 16.605C13.9995 16.8334 14.0243 17.0847 13.9761 17.3272C13.9278 17.5697 13.8088 17.7924 13.634 17.9672C13.4592 18.142 13.2364 18.2611 12.9939 18.3093C12.7515 18.3576 12.5001 18.3328 12.2717 18.2382C12.0433 18.1436 11.8481 17.9834 11.7107 17.7778C11.5734 17.5722 11.5001 17.3306 11.5001 17.0833C11.5001 16.7518 11.6318 16.4339 11.8662 16.1995C12.1006 15.965 12.4186 15.8333 12.7501 15.8333Z" fill="#2F5E9D"/>
</svg>
