<svg width="24" height="24" viewBox="0 0 24 24" fill="none" xmlns="http://www.w3.org/2000/svg">
<path d="M4.29243 18.293L10.5854 12L4.29243 5.70696C4.11027 5.51836 4.00948 5.26575 4.01176 5.00356C4.01403 4.74136 4.1192 4.49055 4.30461 4.30514C4.49002 4.11973 4.74083 4.01456 5.00303 4.01228C5.26523 4.01001 5.51783 4.1108 5.70643 4.29296L11.9994 10.586L18.2924 4.29296C18.3847 4.19745 18.495 4.12127 18.617 4.06886C18.739 4.01645 18.8703 3.98886 19.003 3.98771C19.1358 3.98655 19.2675 4.01186 19.3904 4.06214C19.5133 4.11242 19.6249 4.18667 19.7188 4.28056C19.8127 4.37446 19.887 4.48611 19.9373 4.60901C19.9875 4.7319 20.0128 4.86358 20.0117 4.99636C20.0105 5.12914 19.9829 5.26036 19.9305 5.38236C19.8781 5.50437 19.8019 5.61471 19.7064 5.70696L13.4134 12L19.7064 18.293C19.8019 18.3852 19.8781 18.4956 19.9305 18.6176C19.9829 18.7396 20.0105 18.8708 20.0117 19.0036C20.0128 19.1363 19.9875 19.268 19.9373 19.3909C19.887 19.5138 19.8127 19.6255 19.7188 19.7194C19.6249 19.8132 19.5133 19.8875 19.3904 19.9378C19.2675 19.9881 19.1358 20.0134 19.003 20.0122C18.8703 20.0111 18.739 19.9835 18.617 19.9311C18.495 19.8787 18.3847 19.8025 18.2924 19.707L11.9994 13.414L5.70643 19.707C5.51783 19.8891 5.26523 19.9899 5.00303 19.9876C4.74083 19.9854 4.49002 19.8802 4.30461 19.6948C4.1192 19.5094 4.01403 19.2586 4.01176 18.9964C4.00948 18.7342 4.11027 18.4816 4.29243 18.293Z" fill="#183357"/>
</svg>
