<svg width="60" height="60" viewBox="0 0 60 60" fill="none" xmlns="http://www.w3.org/2000/svg">
<rect width="60" height="60" rx="30" fill="#3B7DD6"/>
<path d="M30 28.3333C31.6482 28.3333 33.2593 27.8446 34.6298 26.9289C36.0002 26.0132 37.0683 24.7117 37.699 23.189C38.3297 21.6663 38.4948 19.9907 38.1732 18.3742C37.8517 16.7577 37.058 15.2728 35.8926 14.1074C34.7271 12.942 33.2423 12.1483 31.6258 11.8268C30.0092 11.5052 28.3337 11.6702 26.811 12.301C25.2883 12.9317 23.9868 13.9998 23.0711 15.3702C22.1554 16.7406 21.6667 18.3518 21.6667 20C21.6693 22.2093 22.5481 24.3274 24.1104 25.8896C25.6726 27.4518 27.7907 28.3306 30 28.3333ZM30 15C30.9889 15 31.9556 15.2932 32.7779 15.8426C33.6001 16.392 34.241 17.1729 34.6194 18.0865C34.9978 19.0002 35.0969 20.0055 34.9039 20.9754C34.711 21.9453 34.2348 22.8362 33.5355 23.5355C32.8363 24.2348 31.9454 24.711 30.9755 24.9039C30.0055 25.0968 29.0002 24.9978 28.0866 24.6194C27.173 24.2409 26.3921 23.6001 25.8427 22.7778C25.2932 21.9556 25 20.9889 25 20C25 18.6739 25.5268 17.4021 26.4645 16.4644C27.4021 15.5267 28.6739 15 30 15ZM16.6667 48.3333H43.3333C43.7754 48.3333 44.1993 48.1577 44.5118 47.8451C44.8244 47.5326 45 47.1087 45 46.6666V40C44.9974 37.7906 44.1185 35.6726 42.5563 34.1103C40.9941 32.5481 38.876 31.6693 36.6667 31.6666H23.3333C21.124 31.6693 19.0059 32.5481 17.4437 34.1103C15.8815 35.6726 15.0026 37.7906 15 40V46.6666C15 47.1087 15.1756 47.5326 15.4882 47.8451C15.8007 48.1577 16.2246 48.3333 16.6667 48.3333ZM18.3333 40C18.3333 38.6739 18.8601 37.4021 19.7978 36.4644C20.7355 35.5267 22.0073 35 23.3333 35H36.6667C37.9927 35 39.2645 35.5267 40.2022 36.4644C41.1399 37.4021 41.6667 38.6739 41.6667 40V45H18.3333V40Z" fill="#F8FAFC"/>
</svg>
