<svg width="85" height="85" viewBox="0 0 85 85" fill="none" xmlns="http://www.w3.org/2000/svg">
<rect width="85" height="85" rx="42.5" fill="#5A8CD2"/>
<path d="M29.375 59.03V60.3125C29.375 61.0584 29.6713 61.7738 30.1988 62.3012C30.7262 62.8287 31.4416 63.125 32.1875 63.125C32.9334 63.125 33.6488 62.8287 34.1762 62.3012C34.7037 61.7738 35 61.0584 35 60.3125V59.375H50V60.3125C50 61.0584 50.2963 61.7738 50.8238 62.3012C51.3512 62.8287 52.0666 63.125 52.8125 63.125C53.5584 63.125 54.2738 62.8287 54.8012 62.3012C55.3287 61.7738 55.625 61.0584 55.625 60.3125V59.03C56.718 58.6436 57.6648 57.9289 58.3361 56.9838C59.0073 56.0387 59.3702 54.9092 59.375 53.75V27.5C59.375 26.0082 58.7824 24.5774 57.7275 23.5225C56.6726 22.4676 55.2418 21.875 53.75 21.875H31.25C29.7582 21.875 28.3274 22.4676 27.2725 23.5225C26.2176 24.5774 25.625 26.0082 25.625 27.5V53.75C25.6298 54.9092 25.9927 56.0387 26.6639 56.9838C27.3352 57.9289 28.282 58.6436 29.375 59.03ZM29.375 27.5C29.375 27.0027 29.5725 26.5258 29.9242 26.1742C30.2758 25.8225 30.7527 25.625 31.25 25.625H53.75C54.2473 25.625 54.7242 25.8225 55.0758 26.1742C55.4275 26.5258 55.625 27.0027 55.625 27.5V29.375H29.375V27.5ZM29.375 33.125H55.625V44.375H29.375V33.125ZM29.375 48.125H55.625V53.75C55.625 54.2473 55.4275 54.7242 55.0758 55.0758C54.7242 55.4275 54.2473 55.625 53.75 55.625H31.25C30.7527 55.625 30.2758 55.4275 29.9242 55.0758C29.5725 54.7242 29.375 54.2473 29.375 53.75V48.125ZM31.25 51.875C31.25 51.5042 31.36 51.1416 31.566 50.8333C31.772 50.525 32.0649 50.2846 32.4075 50.1427C32.7501 50.0008 33.1271 49.9637 33.4908 50.036C33.8545 50.1084 34.1886 50.2869 34.4508 50.5492C34.713 50.8114 34.8916 51.1455 34.964 51.5092C35.0363 51.8729 34.9992 52.2499 34.8573 52.5925C34.7154 52.9351 34.475 53.228 34.1667 53.434C33.8584 53.64 33.4958 53.75 33.125 53.75C32.6277 53.75 32.1508 53.5525 31.7992 53.2008C31.4475 52.8492 31.25 52.3723 31.25 51.875ZM50 51.875C50 51.5042 50.11 51.1416 50.316 50.8333C50.522 50.525 50.8149 50.2846 51.1575 50.1427C51.5001 50.0008 51.8771 49.9637 52.2408 50.036C52.6045 50.1084 52.9386 50.2869 53.2008 50.5492C53.4631 50.8114 53.6416 51.1455 53.714 51.5092C53.7863 51.8729 53.7492 52.2499 53.6073 52.5925C53.4654 52.9351 53.225 53.228 52.9167 53.434C52.6084 53.64 52.2458 53.75 51.875 53.75C51.3777 53.75 50.9008 53.5525 50.5492 53.2008C50.1975 52.8492 50 52.3723 50 51.875Z" fill="#183357"/>
</svg>
