<svg width="20" height="20" viewBox="0 0 20 20" fill="none" xmlns="http://www.w3.org/2000/svg">
<path d="M9.99935 18.3346C11.6475 18.3346 13.2587 17.8459 14.6291 16.9302C15.9995 16.0145 17.0676 14.7131 17.6983 13.1903C18.3291 11.6676 18.4941 9.99206 18.1726 8.37555C17.851 6.75905 17.0573 5.27419 15.8919 4.10875C14.7265 2.94331 13.2416 2.14964 11.6251 1.8281C10.0086 1.50655 8.33304 1.67158 6.81032 2.30231C5.2876 2.93304 3.98611 4.00114 3.07044 5.37155C2.15476 6.74196 1.66602 8.35313 1.66602 10.0013C1.66602 12.2114 2.54399 14.3311 4.10679 15.8939C4.88061 16.6677 5.79927 17.2815 6.81032 17.7003C7.82137 18.1191 8.905 18.3346 9.99935 18.3346ZM9.99935 16.668C9.75212 16.668 9.51045 16.5947 9.30489 16.4573C9.09933 16.32 8.93911 16.1247 8.8445 15.8963C8.74989 15.6679 8.72514 15.4166 8.77337 15.1741C8.8216 14.9316 8.94065 14.7089 9.11547 14.5341C9.29028 14.3593 9.51301 14.2402 9.75549 14.192C9.99796 14.1438 10.2493 14.1685 10.4777 14.2631C10.7061 14.3577 10.9013 14.5179 11.0387 14.7235C11.176 14.9291 11.2493 15.1707 11.2493 15.418C11.2493 15.7495 11.1177 16.0674 10.8832 16.3019C10.6488 16.5363 10.3309 16.668 9.99935 16.668ZM6.66602 7.49631C6.65373 6.85607 6.83051 6.22643 7.17424 5.68615C7.51797 5.14588 8.01339 4.71896 8.59852 4.45881C9.11738 4.22707 9.68624 4.12973 10.2526 4.17575C10.819 4.22177 11.3647 4.40968 11.8393 4.72214C12.277 5.01191 12.6401 5.40095 12.8989 5.85758C13.1578 6.31421 13.3052 6.82552 13.3291 7.34988C13.353 7.87424 13.2527 8.39683 13.0364 8.87509C12.8201 9.35336 12.4939 9.77379 12.0843 10.1021C11.51 10.5447 11.0969 11.1636 10.9085 11.8638C10.8566 12.0786 10.7214 12.264 10.5328 12.3792C10.3442 12.4944 10.1175 12.5299 9.90268 12.478C9.68786 12.426 9.50246 12.2909 9.38728 12.1023C9.27211 11.9136 9.23658 11.687 9.28852 11.4721C9.55977 10.4137 10.1754 9.47554 11.0385 8.80547C11.2437 8.64139 11.4071 8.43114 11.5155 8.19188C11.6239 7.95261 11.6743 7.69111 11.6624 7.42869C11.6506 7.16627 11.5768 6.91037 11.4473 6.68186C11.3177 6.45336 11.136 6.25871 10.9168 6.11381C10.6714 5.95315 10.3889 5.85807 10.0962 5.83764C9.80357 5.81722 9.51057 5.87213 9.24518 5.99714C8.96377 6.13183 8.72743 6.3452 8.56474 6.61141C8.40206 6.87762 8.32001 7.18527 8.32852 7.49714C8.31415 7.70748 8.2206 7.90455 8.06671 8.04865C7.91282 8.19275 7.71003 8.27317 7.49921 8.2737C7.28838 8.27423 7.08519 8.19483 6.93058 8.0515C6.77597 7.90817 6.68143 7.71157 6.66602 7.50131V7.49631Z" fill="#183357"/>
</svg>
