<svg width="24" height="24" viewBox="0 0 24 24" fill="none" xmlns="http://www.w3.org/2000/svg">
<path d="M8 6C8 5.20888 8.2346 4.43552 8.67412 3.77772C9.11365 3.11992 9.73836 2.60723 10.4693 2.30448C11.2002 2.00173 12.0044 1.92252 12.7804 2.07686C13.5563 2.2312 14.269 2.61216 14.8284 3.17157C15.3878 3.73098 15.7688 4.44372 15.9231 5.21964C16.0775 5.99556 15.9983 6.79983 15.6955 7.53074C15.3928 8.26164 14.8801 8.88635 14.2223 9.32588C13.5645 9.76541 12.7911 10 12 10C10.9391 10 9.92172 9.57857 9.17157 8.82843C8.42143 8.07828 8 7.06087 8 6ZM5 22H19C19.2652 22 19.5196 21.8946 19.7071 21.7071C19.8946 21.5196 20 21.2652 20 21V18C20 16.9391 19.5786 15.9217 18.8284 15.1716C18.0783 14.4214 17.0609 14 16 14H8C6.93913 14 5.92172 14.4214 5.17157 15.1716C4.42143 15.9217 4 16.9391 4 18V21C4 21.2652 4.10536 21.5196 4.29289 21.7071C4.48043 21.8946 4.73478 22 5 22Z" fill="#183357"/>
</svg>
