<svg width="17" height="17" viewBox="0 0 17 17" fill="none" xmlns="http://www.w3.org/2000/svg">
<path d="M2.02048 11.5C3.17442 12.6556 4.71111 13.3493 6.34106 13.4504C7.971 13.5516 9.58167 13.0532 10.8696 12.0492L15.3013 16.4808C15.4585 16.6326 15.669 16.7166 15.8875 16.7147C16.106 16.7128 16.315 16.6252 16.4695 16.4707C16.624 16.3162 16.7116 16.1072 16.7135 15.8887C16.7154 15.6702 16.6314 15.4597 16.4796 15.3025L12.048 10.8708C13.0966 9.52513 13.5923 7.83012 13.4341 6.13147C13.2759 4.43282 12.4757 2.85849 11.1967 1.72955C9.91768 0.600606 8.25617 0.00208938 6.55103 0.0560608C4.84588 0.110032 3.22555 0.812426 2.02048 2.02C1.39781 2.64235 0.903861 3.38129 0.566857 4.19459C0.229853 5.0079 0.0563965 5.87963 0.0563965 6.76C0.0563965 7.64036 0.229853 8.51209 0.566857 9.3254C0.903861 10.1387 1.39781 10.8776 2.02048 11.5ZM3.19881 3.2C4.02262 2.3762 5.10658 1.86353 6.266 1.74933C7.42542 1.63512 8.58857 1.92645 9.55728 2.57368C10.526 3.22091 11.2403 4.18399 11.5786 5.29884C11.9168 6.41369 11.858 7.61133 11.4123 8.68771C10.9665 9.76409 10.1613 10.6526 9.13392 11.2019C8.1065 11.7512 6.92041 11.9272 5.77774 11.7001C4.63507 11.4729 3.60651 10.8566 2.86731 9.95611C2.1281 9.05563 1.72398 7.92669 1.72381 6.76166C1.72152 6.09964 1.85073 5.44376 2.10393 4.83206C2.35713 4.22037 2.72929 3.66505 3.19881 3.19833V3.2Z" fill="#183357"/>
</svg>
