<svg width="10" height="20" viewBox="0 0 10 20" fill="none" xmlns="http://www.w3.org/2000/svg">
<path d="M4.41036 1.07797C4.56663 0.921747 4.77856 0.833984 4.99953 0.833984C5.2205 0.833984 5.43242 0.921747 5.58869 1.07797L9.75536 5.24464C9.90716 5.40181 9.99115 5.61231 9.98925 5.83081C9.98736 6.0493 9.89971 6.25832 9.74521 6.41282C9.5907 6.56733 9.38169 6.65497 9.16319 6.65687C8.9447 6.65877 8.73419 6.57477 8.57703 6.42297L5.83286 3.67881V18.3338C5.83286 18.5548 5.74506 18.7668 5.58878 18.9231C5.4325 19.0793 5.22054 19.1671 4.99953 19.1671C4.77851 19.1671 4.56655 19.0793 4.41027 18.9231C4.25399 18.7668 4.16619 18.5548 4.16619 18.3338V3.67881L1.42203 6.42297C1.26486 6.57477 1.05436 6.65877 0.835858 6.65687C0.617361 6.65497 0.40835 6.56733 0.253844 6.41282C0.0993368 6.25832 0.0116958 6.0493 0.00979713 5.83081C0.00789844 5.61231 0.0918941 5.40181 0.243693 5.24464L4.41036 1.07797Z" fill="#3B7DD6"/>
<path d="M4.41036 1.07797C4.56663 0.921747 4.77856 0.833984 4.99953 0.833984C5.2205 0.833984 5.43242 0.921747 5.58869 1.07797L9.75536 5.24464C9.90716 5.40181 9.99115 5.61231 9.98925 5.83081C9.98736 6.0493 9.89971 6.25832 9.74521 6.41282C9.5907 6.56733 9.38169 6.65497 9.16319 6.65687C8.9447 6.65877 8.73419 6.57477 8.57703 6.42297L5.83286 3.67881V18.3338C5.83286 18.5548 5.74506 18.7668 5.58878 18.9231C5.4325 19.0793 5.22054 19.1671 4.99953 19.1671C4.77851 19.1671 4.56655 19.0793 4.41027 18.9231C4.25399 18.7668 4.16619 18.5548 4.16619 18.3338V3.67881L1.42203 6.42297C1.26486 6.57477 1.05436 6.65877 0.835858 6.65687C0.617361 6.65497 0.40835 6.56733 0.253844 6.41282C0.0993368 6.25832 0.0116958 6.0493 0.00979713 5.83081C0.00789844 5.61231 0.0918941 5.40181 0.243693 5.24464L4.41036 1.07797Z" fill="black" fill-opacity="0.2"/>
</svg>
