<svg width="30" height="31" viewBox="0 0 30 31" fill="none" xmlns="http://www.w3.org/2000/svg">
<path d="M10.625 29.25C12.1252 29.259 13.6123 28.97 15 28.4C16.3863 28.9749 17.8743 29.264 19.375 29.25C23.9312 29.25 27.5 26.8187 27.5 23.7137V18.5362C27.5 15.4312 23.9312 13 19.375 13C19.1637 13 18.9562 13.01 18.75 13.0212V7.16625C18.75 4.125 15.1812 1.75 10.625 1.75C6.06875 1.75 2.5 4.125 2.5 7.16625V23.8337C2.5 26.875 6.06875 29.25 10.625 29.25ZM25 23.7137C25 25.15 22.69 26.75 19.375 26.75C16.06 26.75 13.75 25.15 13.75 23.7137V22.5575C15.4428 23.587 17.3942 24.1122 19.375 24.0713C21.3558 24.1122 23.3072 23.587 25 22.5575V23.7137ZM19.375 15.5C22.69 15.5 25 17.1 25 18.5362C25 19.9725 22.69 21.5713 19.375 21.5713C16.06 21.5713 13.75 19.9713 13.75 18.5362C13.75 17.1012 16.06 15.5 19.375 15.5ZM10.625 4.25C13.94 4.25 16.25 5.7875 16.25 7.16625C16.25 8.545 13.94 10.0837 10.625 10.0837C7.31 10.0837 5 8.54625 5 7.16625C5 5.78625 7.31 4.25 10.625 4.25ZM5 11.1025C6.69983 12.112 8.64845 12.6251 10.625 12.5837C12.6016 12.6251 14.5502 12.112 16.25 11.1025V13.4125C14.8877 13.7559 13.6384 14.4482 12.625 15.4213C11.9678 15.5635 11.2974 15.6364 10.625 15.6388C7.31 15.6388 5 14.1012 5 12.7225V11.1025ZM5 16.6588C6.70019 17.6672 8.64864 18.1799 10.625 18.1388C10.8475 18.1388 11.0625 18.1112 11.2812 18.1C11.2626 18.2447 11.2522 18.3904 11.25 18.5362V21.1425C11.04 21.155 10.8375 21.195 10.625 21.195C7.31 21.195 5 19.6575 5 18.2775V16.6588ZM5 22.2138C6.69983 23.2232 8.64845 23.7364 10.625 23.695C10.835 23.695 11.0413 23.6787 11.25 23.6688V23.7137C11.2679 24.7778 11.6768 25.7981 12.3987 26.58C11.8139 26.6904 11.2202 26.7473 10.625 26.75C7.31 26.75 5 25.2125 5 23.8337V22.2138Z" fill="#183357"/>
</svg>
