<svg width="30" height="31" viewBox="0 0 30 31" fill="none" xmlns="http://www.w3.org/2000/svg">
<path d="M10 14.25V11.75C10 11.4185 10.1317 11.1005 10.3661 10.8661C10.6005 10.6317 10.9185 10.5 11.25 10.5C11.5815 10.5 11.8995 10.6317 12.1339 10.8661C12.3683 11.1005 12.5 11.4185 12.5 11.75V14.25C12.5 14.5815 12.3683 14.8995 12.1339 15.1339C11.8995 15.3683 11.5815 15.5 11.25 15.5C10.9185 15.5 10.6005 15.3683 10.3661 15.1339C10.1317 14.8995 10 14.5815 10 14.25ZM19.0313 18.46C18.5668 19.093 17.9599 19.6077 17.2595 19.9625C16.5591 20.3173 15.7851 20.5021 15 20.5021C14.2149 20.5021 13.4409 20.3173 12.7405 19.9625C12.0402 19.6077 11.4332 19.093 10.9688 18.46C10.7592 18.2031 10.4562 18.0399 10.1264 18.0064C9.79657 17.9729 9.46693 18.0717 9.21001 18.2812C8.95308 18.4908 8.7899 18.7938 8.75638 19.1236C8.72286 19.4534 8.82173 19.7831 9.03126 20.04C9.73098 20.9597 10.6337 21.7052 11.6691 22.2184C12.7045 22.7316 13.8444 22.9986 15 22.9986C16.1556 22.9986 17.2955 22.7316 18.3309 22.2184C19.3663 21.7052 20.269 20.9597 20.9688 20.04C21.1783 19.7831 21.2772 19.4534 21.2436 19.1236C21.2101 18.7938 21.0469 18.4908 20.79 18.2812C20.5331 18.0717 20.2034 17.9729 19.8736 18.0064C19.5438 18.0399 19.2408 18.2031 19.0313 18.46ZM28.75 15.5C28.75 18.2195 27.9436 20.8779 26.4327 23.1391C24.9218 25.4003 22.7744 27.1626 20.2619 28.2033C17.7494 29.244 14.9848 29.5163 12.3175 28.9858C9.65028 28.4552 7.20026 27.1457 5.27729 25.2227C3.35432 23.2997 2.04476 20.8497 1.51421 18.1825C0.983662 15.5153 1.25596 12.7506 2.29666 10.2381C3.33737 7.72562 5.09974 5.57816 7.36092 4.06729C9.62209 2.55642 12.2805 1.75 15 1.75C18.6454 1.7543 22.1403 3.20434 24.718 5.78203C27.2957 8.35973 28.7457 11.8546 28.75 15.5ZM26.25 15.5C26.25 13.275 25.5902 11.0999 24.354 9.24984C23.1179 7.39978 21.3609 5.95784 19.3052 5.10636C17.2495 4.25487 14.9875 4.03208 12.8052 4.46617C10.623 4.90025 8.61839 5.97171 7.04505 7.54505C5.47171 9.11839 4.40026 11.1229 3.96617 13.3052C3.53209 15.4875 3.75488 17.7495 4.60636 19.8052C5.45785 21.8609 6.89979 23.6179 8.74984 24.854C10.5999 26.0902 12.775 26.75 15 26.75C17.9826 26.7464 20.8419 25.5599 22.9509 23.4509C25.0599 21.3419 26.2464 18.4826 26.25 15.5ZM21.25 11.75H17.5C17.1685 11.75 16.8505 11.8817 16.6161 12.1161C16.3817 12.3505 16.25 12.6685 16.25 13C16.25 13.3315 16.3817 13.6495 16.6161 13.8839C16.8505 14.1183 17.1685 14.25 17.5 14.25H21.25C21.5815 14.25 21.8995 14.1183 22.1339 13.8839C22.3683 13.6495 22.5 13.3315 22.5 13C22.5 12.6685 22.3683 12.3505 22.1339 12.1161C21.8995 11.8817 21.5815 11.75 21.25 11.75Z" fill="#183357"/>
</svg>
