<svg width="30" height="31" viewBox="0 0 30 31" fill="none" xmlns="http://www.w3.org/2000/svg">
<path d="M5 1.75C4.66848 1.75 4.35054 1.8817 4.11612 2.11612C3.8817 2.35054 3.75 2.66848 3.75 3V28C3.75 28.3315 3.8817 28.6495 4.11612 28.8839C4.35054 29.1183 4.66848 29.25 5 29.25C5.33152 29.25 5.64946 29.1183 5.88388 28.8839C6.1183 28.6495 6.25 28.3315 6.25 28V19.25H25C25.2355 19.2501 25.4663 19.1836 25.6657 19.0583C25.8651 18.9329 26.0251 18.7538 26.1271 18.5415C26.2291 18.3292 26.2691 18.0924 26.2424 17.8584C26.2157 17.6243 26.1235 17.4026 25.9762 17.2188L21.6012 11.75L25.9762 6.28125C26.1235 6.09738 26.2157 5.87566 26.2424 5.64164C26.2691 5.40762 26.2291 5.17082 26.1271 4.95852C26.0251 4.74623 25.8651 4.56708 25.6657 4.44173C25.4663 4.31637 25.2355 4.24991 25 4.25H6.25V3C6.25 2.66848 6.1183 2.35054 5.88388 2.11612C5.64946 1.8817 5.33152 1.75 5 1.75ZM22.3988 6.75L19.0238 10.9688C18.8462 11.1905 18.7495 11.466 18.7495 11.75C18.7495 12.034 18.8462 12.3095 19.0238 12.5312L22.3988 16.75H6.25V6.75H22.3988Z" fill="#183357"/>
</svg>
