<svg width="30" height="31" viewBox="0 0 30 31" fill="none" xmlns="http://www.w3.org/2000/svg">
<path d="M25 5.5C20.4888 5.5 15.7963 2.035 15.75 2C15.5336 1.83772 15.2705 1.75 15 1.75C14.7295 1.75 14.4664 1.83772 14.25 2C14.2037 2.035 9.51125 5.5 5 5.5C4.66848 5.5 4.35054 5.6317 4.11612 5.86612C3.8817 6.10054 3.75 6.41848 3.75 6.75C3.75 7.5 3.875 25.1613 14.5613 29.1712C14.8436 29.2757 15.1539 29.2757 15.4362 29.1712C26.125 25.1613 26.25 7.5 26.25 6.75C26.25 6.41848 26.1183 6.10054 25.8839 5.86612C25.6495 5.6317 25.3315 5.5 25 5.5ZM15 26.6525C7.75 23.5 6.50625 11.7162 6.29375 7.92875C9.41326 7.45426 12.3876 6.28971 15 4.52C17.6124 6.28971 20.5867 7.45426 23.7062 7.92875C23.5 11.7162 22.25 23.5 15 26.6525ZM10 14.25C10 15.2389 10.2932 16.2056 10.8427 17.0279C11.3921 17.8501 12.173 18.491 13.0866 18.8694C14.0002 19.2478 15.0055 19.3469 15.9755 19.1539C16.9454 18.961 17.8363 18.4848 18.5355 17.7855C19.2348 17.0863 19.711 16.1954 19.9039 15.2255C20.0969 14.2555 19.9978 13.2502 19.6194 12.3366C19.241 11.423 18.6001 10.6421 17.7779 10.0927C16.9556 9.54324 15.9889 9.25 15 9.25C13.6739 9.25 12.4021 9.77678 11.4645 10.7145C10.5268 11.6521 10 12.9239 10 14.25ZM17.5 14.25C17.5 14.7445 17.3534 15.2278 17.0787 15.6389C16.804 16.05 16.4135 16.3705 15.9567 16.5597C15.4999 16.7489 14.9972 16.7984 14.5123 16.702C14.0273 16.6055 13.5819 16.3674 13.2322 16.0178C12.8826 15.6681 12.6445 15.2227 12.548 14.7377C12.4516 14.2528 12.5011 13.7501 12.6903 13.2933C12.8795 12.8365 13.2 12.446 13.6111 12.1713C14.0222 11.8966 14.5055 11.75 15 11.75C15.663 11.75 16.2989 12.0134 16.7678 12.4822C17.2366 12.9511 17.5 13.587 17.5 14.25Z" fill="#183357"/>
</svg>
