<svg width="85" height="85" viewBox="0 0 85 85" fill="none" xmlns="http://www.w3.org/2000/svg">
<rect width="85" height="85" rx="42.5" fill="#D3E2F7"/>
<path d="M61.25 33.125H57.5C57.0027 33.125 56.5258 33.3225 56.1742 33.6742C55.8225 34.0258 55.625 34.5027 55.625 35V40.625H51.875V23.75C51.875 23.2527 51.6775 22.7758 51.3258 22.4242C50.9742 22.0725 50.4973 21.875 50 21.875H27.5C27.0027 21.875 26.5258 22.0725 26.1742 22.4242C25.8225 22.7758 25.625 23.2527 25.625 23.75V59.375H23.75C23.2527 59.375 22.7758 59.5725 22.4242 59.9242C22.0725 60.2758 21.875 60.7527 21.875 61.25C21.875 61.7473 22.0725 62.2242 22.4242 62.5758C22.7758 62.9275 23.2527 63.125 23.75 63.125H53.75C54.2473 63.125 54.7242 62.9275 55.0758 62.5758C55.4275 62.2242 55.625 61.7473 55.625 61.25C55.625 60.7527 55.4275 60.2758 55.0758 59.9242C54.7242 59.5725 54.2473 59.375 53.75 59.375H51.875V44.375H57.5C57.9973 44.375 58.4742 44.1775 58.8258 43.8258C59.1775 43.4742 59.375 42.9973 59.375 42.5V36.875H61.25C61.7473 36.875 62.2242 36.6775 62.5758 36.3258C62.9275 35.9742 63.125 35.4973 63.125 35C63.125 34.5027 62.9275 34.0258 62.5758 33.6742C62.2242 33.3225 61.7473 33.125 61.25 33.125ZM48.125 59.375H29.375V40.625H48.125V59.375ZM48.125 36.875H29.375V25.625H48.125V36.875ZM33.125 46.25C33.125 45.7527 33.3225 45.2758 33.6742 44.9242C34.0258 44.5725 34.5027 44.375 35 44.375H42.5C42.9973 44.375 43.4742 44.5725 43.8258 44.9242C44.1775 45.2758 44.375 45.7527 44.375 46.25C44.375 46.7473 44.1775 47.2242 43.8258 47.5758C43.4742 47.9275 42.9973 48.125 42.5 48.125H35C34.5027 48.125 34.0258 47.9275 33.6742 47.5758C33.3225 47.2242 33.125 46.7473 33.125 46.25Z" fill="#3B7DD6"/>
<path d="M61.25 33.125H57.5C57.0027 33.125 56.5258 33.3225 56.1742 33.6742C55.8225 34.0258 55.625 34.5027 55.625 35V40.625H51.875V23.75C51.875 23.2527 51.6775 22.7758 51.3258 22.4242C50.9742 22.0725 50.4973 21.875 50 21.875H27.5C27.0027 21.875 26.5258 22.0725 26.1742 22.4242C25.8225 22.7758 25.625 23.2527 25.625 23.75V59.375H23.75C23.2527 59.375 22.7758 59.5725 22.4242 59.9242C22.0725 60.2758 21.875 60.7527 21.875 61.25C21.875 61.7473 22.0725 62.2242 22.4242 62.5758C22.7758 62.9275 23.2527 63.125 23.75 63.125H53.75C54.2473 63.125 54.7242 62.9275 55.0758 62.5758C55.4275 62.2242 55.625 61.7473 55.625 61.25C55.625 60.7527 55.4275 60.2758 55.0758 59.9242C54.7242 59.5725 54.2473 59.375 53.75 59.375H51.875V44.375H57.5C57.9973 44.375 58.4742 44.1775 58.8258 43.8258C59.1775 43.4742 59.375 42.9973 59.375 42.5V36.875H61.25C61.7473 36.875 62.2242 36.6775 62.5758 36.3258C62.9275 35.9742 63.125 35.4973 63.125 35C63.125 34.5027 62.9275 34.0258 62.5758 33.6742C62.2242 33.3225 61.7473 33.125 61.25 33.125ZM48.125 59.375H29.375V40.625H48.125V59.375ZM48.125 36.875H29.375V25.625H48.125V36.875ZM33.125 46.25C33.125 45.7527 33.3225 45.2758 33.6742 44.9242C34.0258 44.5725 34.5027 44.375 35 44.375H42.5C42.9973 44.375 43.4742 44.5725 43.8258 44.9242C44.1775 45.2758 44.375 45.7527 44.375 46.25C44.375 46.7473 44.1775 47.2242 43.8258 47.5758C43.4742 47.9275 42.9973 48.125 42.5 48.125H35C34.5027 48.125 34.0258 47.9275 33.6742 47.5758C33.3225 47.2242 33.125 46.7473 33.125 46.25Z" fill="black" fill-opacity="0.2"/>
</svg>
