<svg width="8" height="10" viewBox="0 0 8 10" fill="none" xmlns="http://www.w3.org/2000/svg">
<path d="M2.03268 0.192045C1.91096 0.0906587 1.76286 0.0260681 1.60574 0.00584324C1.44862 -0.0143816 1.28899 0.0105973 1.14556 0.0778524C1.00213 0.145107 0.88084 0.251852 0.795907 0.385576C0.710974 0.5193 0.665917 0.674462 0.666016 0.832878V9.16621C0.666121 9.32453 0.711323 9.47954 0.79633 9.61311C0.881337 9.74667 1.00263 9.85325 1.14602 9.92038C1.25647 9.97263 1.37716 9.99967 1.49935 9.99954C1.69416 9.99969 1.88287 9.93158 2.03268 9.80704L7.03268 5.64038C7.12676 5.56218 7.20246 5.46422 7.25442 5.35347C7.30637 5.24271 7.33331 5.12188 7.33331 4.99955C7.33331 4.87721 7.30637 4.75638 7.25442 4.64562C7.20246 4.53487 7.12676 4.43691 7.03268 4.35871L2.03268 0.192045ZM2.33268 7.38704V2.61205L5.19768 4.99955L2.33268 7.38704Z" fill="#3B7DD6"/>
</svg>
