<svg width="40" height="40" viewBox="0 0 40 40" fill="none" xmlns="http://www.w3.org/2000/svg">
<rect width="40" height="40" rx="20" fill="#3B7DD6"/>
<g clip-path="url(#clip0_3751_27383)">
<path d="M25.834 22.5006C25.2408 22.5035 24.6595 22.6667 24.1515 22.9731L22.8615 21.6831C23.2299 21.0754 23.3899 20.364 23.3171 19.6571C23.2443 18.9501 22.9427 18.2863 22.4582 17.7664L23.2357 15.8231C23.269 15.8231 23.3007 15.8331 23.334 15.8331C23.926 15.8389 24.5012 15.6365 24.9592 15.2612C25.4171 14.886 25.7286 14.3617 25.8393 13.7801C25.9499 13.1985 25.8527 12.5965 25.5646 12.0793C25.2764 11.5621 24.8157 11.1626 24.2629 10.9506C23.7101 10.7386 23.1004 10.7276 22.5403 10.9195C21.9802 11.1115 21.5054 11.4941 21.1988 12.0006C20.8922 12.507 20.7733 13.1051 20.8629 13.6904C20.9525 14.2756 21.2449 14.8107 21.689 15.2022L21.0315 16.8464C20.5861 16.6893 20.1112 16.6339 19.6416 16.6846C19.172 16.7352 18.7198 16.8904 18.3182 17.1389L15.5898 14.4114L15.584 14.4064C15.7472 14.0724 15.8326 13.7057 15.834 13.3339C15.834 12.8395 15.6874 12.3561 15.4127 11.945C15.138 11.5339 14.7475 11.2134 14.2907 11.0242C13.8339 10.835 13.3312 10.7855 12.8463 10.882C12.3613 10.9784 11.9158 11.2165 11.5662 11.5661C11.2166 11.9158 10.9785 12.3612 10.882 12.8462C10.7856 13.3311 10.8351 13.8338 11.0243 14.2906C11.2135 14.7474 11.5339 15.1379 11.9451 15.4126C12.3562 15.6873 12.8395 15.8339 13.334 15.8339C13.7058 15.8325 14.0724 15.747 14.4065 15.5839L14.4115 15.5914L17.1398 18.3181C16.7761 18.9175 16.6156 19.6184 16.6821 20.3164C16.7486 21.0144 17.0386 21.6723 17.509 22.1922L15.1423 25.0839C14.9609 25.0307 14.773 25.0026 14.584 25.0006C14.1231 24.9951 13.6731 25.1409 13.3029 25.4155C12.9327 25.6901 12.6627 26.0785 12.5342 26.5212C12.4057 26.9639 12.4259 27.4365 12.5916 27.8666C12.7573 28.2968 13.0594 28.6608 13.4516 28.9029C13.8439 29.145 14.3047 29.2519 14.7635 29.2072C15.2222 29.1625 15.6537 28.9686 15.9919 28.6554C16.33 28.3421 16.5562 27.9266 16.6357 27.4726C16.7153 27.0186 16.6438 26.551 16.4323 26.1414L18.8948 23.1306C19.3493 23.3013 19.8369 23.3658 20.3202 23.3192C20.8035 23.2725 21.2697 23.116 21.6832 22.8614L22.9732 24.1514C22.6668 24.6594 22.5036 25.2407 22.5007 25.8339C22.5007 26.4932 22.6961 27.1377 23.0624 27.6858C23.4287 28.234 23.9493 28.6612 24.5584 28.9135C25.1675 29.1658 25.8377 29.2318 26.4843 29.1032C27.1309 28.9746 27.7248 28.6571 28.191 28.1909C28.6572 27.7248 28.9747 27.1308 29.1033 26.4842C29.2319 25.8376 29.1659 25.1674 28.9136 24.5583C28.6613 23.9492 28.2341 23.4286 27.6859 23.0624C27.1377 22.6961 26.4933 22.5006 25.834 22.5006ZM13.334 14.1672C13.1692 14.1672 13.0081 14.1184 12.871 14.0268C12.734 13.9352 12.6272 13.8051 12.5641 13.6528C12.501 13.5005 12.4845 13.333 12.5167 13.1713C12.5488 13.0097 12.6282 12.8612 12.7447 12.7447C12.8613 12.6281 13.0098 12.5487 13.1714 12.5166C13.3331 12.4844 13.5006 12.5009 13.6529 12.564C13.8052 12.6271 13.9353 12.7339 14.0269 12.8709C14.1184 13.008 14.1673 13.1691 14.1673 13.3339C14.1673 13.5549 14.0795 13.7669 13.9232 13.9232C13.767 14.0795 13.555 14.1672 13.334 14.1672ZM18.334 20.0006C18.334 19.6709 18.4317 19.3487 18.6149 19.0746C18.798 18.8005 19.0583 18.5869 19.3628 18.4608C19.6674 18.3346 20.0025 18.3016 20.3258 18.3659C20.6491 18.4302 20.9461 18.589 21.1792 18.8221C21.4123 19.0552 21.571 19.3521 21.6353 19.6754C21.6996 19.9987 21.6666 20.3338 21.5405 20.6384C21.4143 20.9429 21.2007 21.2032 20.9266 21.3864C20.6525 21.5695 20.3303 21.6672 20.0007 21.6672C19.5586 21.6672 19.1347 21.4917 18.8221 21.1791C18.5096 20.8665 18.334 20.4426 18.334 20.0006ZM25.834 27.5006C25.5043 27.5006 25.1821 27.4028 24.908 27.2197C24.634 27.0366 24.4203 26.7763 24.2942 26.4717C24.168 26.1672 24.135 25.8321 24.1993 25.5088C24.2637 25.1855 24.4224 24.8885 24.6555 24.6554C24.8886 24.4223 25.1855 24.2636 25.5088 24.1993C25.8321 24.135 26.1672 24.168 26.4718 24.2941C26.7763 24.4203 27.0366 24.6339 27.2198 24.908C27.4029 25.182 27.5007 25.5043 27.5007 25.8339C27.5007 26.2759 27.3251 26.6999 27.0125 27.0124C26.6999 27.325 26.276 27.5006 25.834 27.5006ZM26.6673 18.3339C26.997 18.3339 27.3192 18.4317 27.5933 18.6148C27.8674 18.7979 28.081 19.0582 28.2071 19.3628C28.3333 19.6673 28.3663 20.0024 28.302 20.3257C28.2377 20.649 28.0789 20.946 27.8458 21.1791C27.6127 21.4122 27.3158 21.5709 26.9925 21.6352C26.6692 21.6995 26.3341 21.6665 26.0295 21.5404C25.725 21.4142 25.4647 21.2006 25.2815 20.9265C25.0984 20.6525 25.0007 20.3302 25.0007 20.0006C25.0007 19.5586 25.1762 19.1346 25.4888 18.8221C25.8014 18.5095 26.2253 18.3339 26.6673 18.3339ZM13.334 20.8339C13.0043 20.8339 12.6821 20.7362 12.408 20.553C12.134 20.3699 11.9203 20.1096 11.7942 19.8051C11.668 19.5005 11.635 19.1654 11.6993 18.8421C11.7637 18.5188 11.9224 18.2218 12.1555 17.9887C12.3886 17.7557 12.6855 17.5969 13.0088 17.5326C13.3321 17.4683 13.6672 17.5013 13.9718 17.6274C14.2763 17.7536 14.5366 17.9672 14.7198 18.2413C14.9029 18.5154 15.0007 18.8376 15.0007 19.1672C15.0007 19.6093 14.8251 20.0332 14.5125 20.3458C14.1999 20.6583 13.776 20.8339 13.334 20.8339ZM29.1673 15.8339C29.1673 15.9987 29.1184 16.1598 29.0269 16.2969C28.9353 16.4339 28.8052 16.5407 28.6529 16.6038C28.5006 16.6669 28.3331 16.6834 28.1714 16.6512C28.0098 16.6191 27.8613 16.5397 27.7447 16.4232C27.6282 16.3066 27.5488 16.1581 27.5167 15.9965C27.4845 15.8348 27.501 15.6673 27.5641 15.515C27.6272 15.3627 27.734 15.2326 27.871 15.141C28.0081 15.0495 28.1692 15.0006 28.334 15.0006C28.555 15.0006 28.767 15.0884 28.9232 15.2447C29.0795 15.4009 29.1673 15.6129 29.1673 15.8339ZM11.6673 22.5006C11.8321 22.5006 11.9933 22.5495 12.1303 22.641C12.2673 22.7326 12.3741 22.8627 12.4372 23.015C12.5003 23.1673 12.5168 23.3348 12.4846 23.4965C12.4525 23.6581 12.3731 23.8066 12.2566 23.9232C12.14 24.0397 11.9915 24.1191 11.8299 24.1512C11.6682 24.1834 11.5007 24.1669 11.3484 24.1038C11.1961 24.0407 11.066 23.9339 10.9744 23.7969C10.8829 23.6599 10.834 23.4987 10.834 23.3339C10.834 23.1129 10.9218 22.9009 11.0781 22.7447C11.2343 22.5884 11.4463 22.5006 11.6673 22.5006Z" fill="#183357"/>
</g>
<defs>
<clipPath id="clip0_3751_27383">
<rect width="20" height="20" fill="white" transform="translate(10 10)"/>
</clipPath>
</defs>
</svg>
