<svg width="45" height="45" viewBox="0 0 45 45" fill="none" xmlns="http://www.w3.org/2000/svg">
<g id="ecommerce/package">
<g id="Vector">
<path d="M39.2419 3.0525C39.1025 2.70463 38.862 2.40651 38.5515 2.19663C38.241 1.98674 37.8748 1.87471 37.5 1.875H7.5C7.12523 1.87471 6.75897 1.98674 6.44849 2.19663C6.138 2.40651 5.89754 2.70463 5.75813 3.0525L2.00812 12.4275C1.92025 12.6496 1.87509 12.8862 1.875 13.125V41.25C1.875 41.7473 2.07254 42.2242 2.42417 42.5758C2.77581 42.9275 3.25272 43.125 3.75 43.125H41.25C41.7473 43.125 42.2242 42.9275 42.5758 42.5758C42.9275 42.2242 43.125 41.7473 43.125 41.25V13.125C43.1249 12.8862 43.0797 12.6496 42.9919 12.4275L39.2419 3.0525ZM8.76937 5.625H36.2306L38.4806 11.25H6.51937L8.76937 5.625ZM5.625 39.375V15H39.375V39.375H5.625ZM20.625 33.75C20.625 34.2473 20.4275 34.7242 20.0758 35.0758C19.7242 35.4275 19.2473 35.625 18.75 35.625H11.25C10.7527 35.625 10.2758 35.4275 9.92418 35.0758C9.57254 34.7242 9.375 34.2473 9.375 33.75C9.375 33.2527 9.57254 32.7758 9.92418 32.4242C10.2758 32.0725 10.7527 31.875 11.25 31.875H18.75C19.2473 31.875 19.7242 32.0725 20.0758 32.4242C20.4275 32.7758 20.625 33.2527 20.625 33.75Z" fill="#3B7DD6"/>
<path d="M39.2419 3.0525C39.1025 2.70463 38.862 2.40651 38.5515 2.19663C38.241 1.98674 37.8748 1.87471 37.5 1.875H7.5C7.12523 1.87471 6.75897 1.98674 6.44849 2.19663C6.138 2.40651 5.89754 2.70463 5.75813 3.0525L2.00812 12.4275C1.92025 12.6496 1.87509 12.8862 1.875 13.125V41.25C1.875 41.7473 2.07254 42.2242 2.42417 42.5758C2.77581 42.9275 3.25272 43.125 3.75 43.125H41.25C41.7473 43.125 42.2242 42.9275 42.5758 42.5758C42.9275 42.2242 43.125 41.7473 43.125 41.25V13.125C43.1249 12.8862 43.0797 12.6496 42.9919 12.4275L39.2419 3.0525ZM8.76937 5.625H36.2306L38.4806 11.25H6.51937L8.76937 5.625ZM5.625 39.375V15H39.375V39.375H5.625ZM20.625 33.75C20.625 34.2473 20.4275 34.7242 20.0758 35.0758C19.7242 35.4275 19.2473 35.625 18.75 35.625H11.25C10.7527 35.625 10.2758 35.4275 9.92418 35.0758C9.57254 34.7242 9.375 34.2473 9.375 33.75C9.375 33.2527 9.57254 32.7758 9.92418 32.4242C10.2758 32.0725 10.7527 31.875 11.25 31.875H18.75C19.2473 31.875 19.7242 32.0725 20.0758 32.4242C20.4275 32.7758 20.625 33.2527 20.625 33.75Z" fill="black" fill-opacity="0.2"/>
</g>
</g>
</svg>
