<svg width="45" height="45" viewBox="0 0 45 45" fill="none" xmlns="http://www.w3.org/2000/svg">
<g id="transportation/bus-front">
<g id="Vector">
<path d="M9.375 39.03V40.3125C9.375 41.0584 9.67132 41.7738 10.1988 42.3012C10.7262 42.8287 11.4416 43.125 12.1875 43.125C12.9334 43.125 13.6488 42.8287 14.1762 42.3012C14.7037 41.7738 15 41.0584 15 40.3125V39.375H30V40.3125C30 41.0584 30.2963 41.7738 30.8238 42.3012C31.3512 42.8287 32.0666 43.125 32.8125 43.125C33.5584 43.125 34.2738 42.8287 34.8012 42.3012C35.3287 41.7738 35.625 41.0584 35.625 40.3125V39.03C36.718 38.6436 37.6648 37.9289 38.3361 36.9838C39.0073 36.0387 39.3702 34.9092 39.375 33.75V7.5C39.375 6.00816 38.7824 4.57742 37.7275 3.52252C36.6726 2.46763 35.2418 1.875 33.75 1.875H11.25C9.75816 1.875 8.32742 2.46763 7.27252 3.52252C6.21763 4.57742 5.625 6.00816 5.625 7.5V33.75C5.62981 34.9092 5.99266 36.0387 6.66391 36.9838C7.33517 37.9289 8.28205 38.6436 9.375 39.03ZM9.375 7.5C9.375 7.00272 9.57254 6.52581 9.92418 6.17417C10.2758 5.82254 10.7527 5.625 11.25 5.625H33.75C34.2473 5.625 34.7242 5.82254 35.0758 6.17417C35.4275 6.52581 35.625 7.00272 35.625 7.5V9.375H9.375V7.5ZM9.375 13.125H35.625V24.375H9.375V13.125ZM9.375 28.125H35.625V33.75C35.625 34.2473 35.4275 34.7242 35.0758 35.0758C34.7242 35.4275 34.2473 35.625 33.75 35.625H11.25C10.7527 35.625 10.2758 35.4275 9.92418 35.0758C9.57254 34.7242 9.375 34.2473 9.375 33.75V28.125ZM11.25 31.875C11.25 31.5042 11.36 31.1416 11.566 30.8333C11.772 30.525 12.0649 30.2846 12.4075 30.1427C12.7501 30.0008 13.1271 29.9637 13.4908 30.036C13.8545 30.1084 14.1886 30.2869 14.4508 30.5492C14.713 30.8114 14.8916 31.1455 14.964 31.5092C15.0363 31.8729 14.9992 32.2499 14.8573 32.5925C14.7154 32.9351 14.475 33.228 14.1667 33.434C13.8584 33.64 13.4958 33.75 13.125 33.75C12.6277 33.75 12.1508 33.5525 11.7992 33.2008C11.4475 32.8492 11.25 32.3723 11.25 31.875ZM30 31.875C30 31.5042 30.11 31.1416 30.316 30.8333C30.522 30.525 30.8149 30.2846 31.1575 30.1427C31.5001 30.0008 31.8771 29.9637 32.2408 30.036C32.6045 30.1084 32.9386 30.2869 33.2008 30.5492C33.4631 30.8114 33.6416 31.1455 33.714 31.5092C33.7863 31.8729 33.7492 32.2499 33.6073 32.5925C33.4654 32.9351 33.225 33.228 32.9167 33.434C32.6084 33.64 32.2458 33.75 31.875 33.75C31.3777 33.75 30.9008 33.5525 30.5492 33.2008C30.1975 32.8492 30 32.3723 30 31.875Z" fill="#3B7DD6"/>
<path d="M9.375 39.03V40.3125C9.375 41.0584 9.67132 41.7738 10.1988 42.3012C10.7262 42.8287 11.4416 43.125 12.1875 43.125C12.9334 43.125 13.6488 42.8287 14.1762 42.3012C14.7037 41.7738 15 41.0584 15 40.3125V39.375H30V40.3125C30 41.0584 30.2963 41.7738 30.8238 42.3012C31.3512 42.8287 32.0666 43.125 32.8125 43.125C33.5584 43.125 34.2738 42.8287 34.8012 42.3012C35.3287 41.7738 35.625 41.0584 35.625 40.3125V39.03C36.718 38.6436 37.6648 37.9289 38.3361 36.9838C39.0073 36.0387 39.3702 34.9092 39.375 33.75V7.5C39.375 6.00816 38.7824 4.57742 37.7275 3.52252C36.6726 2.46763 35.2418 1.875 33.75 1.875H11.25C9.75816 1.875 8.32742 2.46763 7.27252 3.52252C6.21763 4.57742 5.625 6.00816 5.625 7.5V33.75C5.62981 34.9092 5.99266 36.0387 6.66391 36.9838C7.33517 37.9289 8.28205 38.6436 9.375 39.03ZM9.375 7.5C9.375 7.00272 9.57254 6.52581 9.92418 6.17417C10.2758 5.82254 10.7527 5.625 11.25 5.625H33.75C34.2473 5.625 34.7242 5.82254 35.0758 6.17417C35.4275 6.52581 35.625 7.00272 35.625 7.5V9.375H9.375V7.5ZM9.375 13.125H35.625V24.375H9.375V13.125ZM9.375 28.125H35.625V33.75C35.625 34.2473 35.4275 34.7242 35.0758 35.0758C34.7242 35.4275 34.2473 35.625 33.75 35.625H11.25C10.7527 35.625 10.2758 35.4275 9.92418 35.0758C9.57254 34.7242 9.375 34.2473 9.375 33.75V28.125ZM11.25 31.875C11.25 31.5042 11.36 31.1416 11.566 30.8333C11.772 30.525 12.0649 30.2846 12.4075 30.1427C12.7501 30.0008 13.1271 29.9637 13.4908 30.036C13.8545 30.1084 14.1886 30.2869 14.4508 30.5492C14.713 30.8114 14.8916 31.1455 14.964 31.5092C15.0363 31.8729 14.9992 32.2499 14.8573 32.5925C14.7154 32.9351 14.475 33.228 14.1667 33.434C13.8584 33.64 13.4958 33.75 13.125 33.75C12.6277 33.75 12.1508 33.5525 11.7992 33.2008C11.4475 32.8492 11.25 32.3723 11.25 31.875ZM30 31.875C30 31.5042 30.11 31.1416 30.316 30.8333C30.522 30.525 30.8149 30.2846 31.1575 30.1427C31.5001 30.0008 31.8771 29.9637 32.2408 30.036C32.6045 30.1084 32.9386 30.2869 33.2008 30.5492C33.4631 30.8114 33.6416 31.1455 33.714 31.5092C33.7863 31.8729 33.7492 32.2499 33.6073 32.5925C33.4654 32.9351 33.225 33.228 32.9167 33.434C32.6084 33.64 32.2458 33.75 31.875 33.75C31.3777 33.75 30.9008 33.5525 30.5492 33.2008C30.1975 32.8492 30 32.3723 30 31.875Z" fill="black" fill-opacity="0.2"/>
</g>
</g>
</svg>
