<svg width="45" height="45" viewBox="0 0 45 45" fill="none" xmlns="http://www.w3.org/2000/svg">
<g id="ecommerce/shopping-bags">
<g id="Vector">
<path d="M39.375 22.5H34.3781L33.75 13.0013C33.7185 12.5257 33.5072 12.08 33.1589 11.7547C32.8106 11.4294 32.3516 11.249 31.875 11.25H28.125C28.125 8.7636 27.1373 6.37903 25.3791 4.62087C23.621 2.86272 21.2364 1.875 18.75 1.875C16.2636 1.875 13.879 2.86272 12.1209 4.62087C10.3627 6.37903 9.375 8.7636 9.375 11.25H5.625C5.14843 11.249 4.68936 11.4294 4.34108 11.7547C3.9928 12.08 3.78145 12.5257 3.75 13.0013L1.875 41.1263C1.85804 41.3827 1.89397 41.6399 1.98058 41.8818C2.06718 42.1238 2.2026 42.3454 2.37843 42.5328C2.55426 42.7203 2.76674 42.8695 3.00269 42.9714C3.23863 43.0733 3.493 43.1256 3.75 43.125H41.25C41.5136 43.125 41.7743 43.0694 42.015 42.9619C42.2557 42.8543 42.4711 42.6972 42.6469 42.5008C42.8228 42.3044 42.9553 42.0731 43.0357 41.8221C43.1162 41.571 43.1427 41.3058 43.1137 41.0437L41.2387 24.1688C41.188 23.71 40.9697 23.286 40.6259 22.9781C40.282 22.6702 39.8366 22.5 39.375 22.5ZM18.75 5.625C20.2418 5.625 21.6726 6.21763 22.7275 7.27252C23.7824 8.32742 24.375 9.75816 24.375 11.25H13.125C13.125 9.75816 13.7176 8.32742 14.7725 7.27252C15.8274 6.21763 17.2582 5.625 18.75 5.625ZM5.75437 39.375L7.37812 15H9.375V18.75C9.375 19.2473 9.57254 19.7242 9.92417 20.0758C10.2758 20.4275 10.7527 20.625 11.25 20.625C11.7473 20.625 12.2242 20.4275 12.5758 20.0758C12.9275 19.7242 13.125 19.2473 13.125 18.75V15H24.375V18.75C24.375 19.2473 24.5725 19.7242 24.9242 20.0758C25.2758 20.4275 25.7527 20.625 26.25 20.625C26.7473 20.625 27.2242 20.4275 27.5758 20.0758C27.9275 19.7242 28.125 19.2473 28.125 18.75V15H30.12L31.7456 39.375H5.75437ZM35.5031 39.375L34.6294 26.25H37.6969L39.1556 39.375H35.5031Z" fill="#3B7DD6"/>
<path d="M39.375 22.5H34.3781L33.75 13.0013C33.7185 12.5257 33.5072 12.08 33.1589 11.7547C32.8106 11.4294 32.3516 11.249 31.875 11.25H28.125C28.125 8.7636 27.1373 6.37903 25.3791 4.62087C23.621 2.86272 21.2364 1.875 18.75 1.875C16.2636 1.875 13.879 2.86272 12.1209 4.62087C10.3627 6.37903 9.375 8.7636 9.375 11.25H5.625C5.14843 11.249 4.68936 11.4294 4.34108 11.7547C3.9928 12.08 3.78145 12.5257 3.75 13.0013L1.875 41.1263C1.85804 41.3827 1.89397 41.6399 1.98058 41.8818C2.06718 42.1238 2.2026 42.3454 2.37843 42.5328C2.55426 42.7203 2.76674 42.8695 3.00269 42.9714C3.23863 43.0733 3.493 43.1256 3.75 43.125H41.25C41.5136 43.125 41.7743 43.0694 42.015 42.9619C42.2557 42.8543 42.4711 42.6972 42.6469 42.5008C42.8228 42.3044 42.9553 42.0731 43.0357 41.8221C43.1162 41.571 43.1427 41.3058 43.1137 41.0437L41.2387 24.1688C41.188 23.71 40.9697 23.286 40.6259 22.9781C40.282 22.6702 39.8366 22.5 39.375 22.5ZM18.75 5.625C20.2418 5.625 21.6726 6.21763 22.7275 7.27252C23.7824 8.32742 24.375 9.75816 24.375 11.25H13.125C13.125 9.75816 13.7176 8.32742 14.7725 7.27252C15.8274 6.21763 17.2582 5.625 18.75 5.625ZM5.75437 39.375L7.37812 15H9.375V18.75C9.375 19.2473 9.57254 19.7242 9.92417 20.0758C10.2758 20.4275 10.7527 20.625 11.25 20.625C11.7473 20.625 12.2242 20.4275 12.5758 20.0758C12.9275 19.7242 13.125 19.2473 13.125 18.75V15H24.375V18.75C24.375 19.2473 24.5725 19.7242 24.9242 20.0758C25.2758 20.4275 25.7527 20.625 26.25 20.625C26.7473 20.625 27.2242 20.4275 27.5758 20.0758C27.9275 19.7242 28.125 19.2473 28.125 18.75V15H30.12L31.7456 39.375H5.75437ZM35.5031 39.375L34.6294 26.25H37.6969L39.1556 39.375H35.5031Z" fill="black" fill-opacity="0.2"/>
</g>
</g>
</svg>
