<svg width="45" height="45" viewBox="0 0 45 45" fill="none" xmlns="http://www.w3.org/2000/svg">
<g id="transportation/gas-station">
<g id="Vector">
<path d="M41.25 13.125H37.5C37.0027 13.125 36.5258 13.3225 36.1742 13.6742C35.8225 14.0258 35.625 14.5027 35.625 15V20.625H31.875V3.75C31.875 3.25272 31.6775 2.77581 31.3258 2.42417C30.9742 2.07254 30.4973 1.875 30 1.875H7.5C7.00272 1.875 6.52581 2.07254 6.17417 2.42417C5.82254 2.77581 5.625 3.25272 5.625 3.75V39.375H3.75C3.25272 39.375 2.77581 39.5725 2.42417 39.9242C2.07254 40.2758 1.875 40.7527 1.875 41.25C1.875 41.7473 2.07254 42.2242 2.42417 42.5758C2.77581 42.9275 3.25272 43.125 3.75 43.125H33.75C34.2473 43.125 34.7242 42.9275 35.0758 42.5758C35.4275 42.2242 35.625 41.7473 35.625 41.25C35.625 40.7527 35.4275 40.2758 35.0758 39.9242C34.7242 39.5725 34.2473 39.375 33.75 39.375H31.875V24.375H37.5C37.9973 24.375 38.4742 24.1775 38.8258 23.8258C39.1775 23.4742 39.375 22.9973 39.375 22.5V16.875H41.25C41.7473 16.875 42.2242 16.6775 42.5758 16.3258C42.9275 15.9742 43.125 15.4973 43.125 15C43.125 14.5027 42.9275 14.0258 42.5758 13.6742C42.2242 13.3225 41.7473 13.125 41.25 13.125ZM28.125 39.375H9.375V20.625H28.125V39.375ZM28.125 16.875H9.375V5.625H28.125V16.875ZM13.125 26.25C13.125 25.7527 13.3225 25.2758 13.6742 24.9242C14.0258 24.5725 14.5027 24.375 15 24.375H22.5C22.9973 24.375 23.4742 24.5725 23.8258 24.9242C24.1775 25.2758 24.375 25.7527 24.375 26.25C24.375 26.7473 24.1775 27.2242 23.8258 27.5758C23.4742 27.9275 22.9973 28.125 22.5 28.125H15C14.5027 28.125 14.0258 27.9275 13.6742 27.5758C13.3225 27.2242 13.125 26.7473 13.125 26.25Z" fill="#3B7DD6"/>
<path d="M41.25 13.125H37.5C37.0027 13.125 36.5258 13.3225 36.1742 13.6742C35.8225 14.0258 35.625 14.5027 35.625 15V20.625H31.875V3.75C31.875 3.25272 31.6775 2.77581 31.3258 2.42417C30.9742 2.07254 30.4973 1.875 30 1.875H7.5C7.00272 1.875 6.52581 2.07254 6.17417 2.42417C5.82254 2.77581 5.625 3.25272 5.625 3.75V39.375H3.75C3.25272 39.375 2.77581 39.5725 2.42417 39.9242C2.07254 40.2758 1.875 40.7527 1.875 41.25C1.875 41.7473 2.07254 42.2242 2.42417 42.5758C2.77581 42.9275 3.25272 43.125 3.75 43.125H33.75C34.2473 43.125 34.7242 42.9275 35.0758 42.5758C35.4275 42.2242 35.625 41.7473 35.625 41.25C35.625 40.7527 35.4275 40.2758 35.0758 39.9242C34.7242 39.5725 34.2473 39.375 33.75 39.375H31.875V24.375H37.5C37.9973 24.375 38.4742 24.1775 38.8258 23.8258C39.1775 23.4742 39.375 22.9973 39.375 22.5V16.875H41.25C41.7473 16.875 42.2242 16.6775 42.5758 16.3258C42.9275 15.9742 43.125 15.4973 43.125 15C43.125 14.5027 42.9275 14.0258 42.5758 13.6742C42.2242 13.3225 41.7473 13.125 41.25 13.125ZM28.125 39.375H9.375V20.625H28.125V39.375ZM28.125 16.875H9.375V5.625H28.125V16.875ZM13.125 26.25C13.125 25.7527 13.3225 25.2758 13.6742 24.9242C14.0258 24.5725 14.5027 24.375 15 24.375H22.5C22.9973 24.375 23.4742 24.5725 23.8258 24.9242C24.1775 25.2758 24.375 25.7527 24.375 26.25C24.375 26.7473 24.1775 27.2242 23.8258 27.5758C23.4742 27.9275 22.9973 28.125 22.5 28.125H15C14.5027 28.125 14.0258 27.9275 13.6742 27.5758C13.3225 27.2242 13.125 26.7473 13.125 26.25Z" fill="black" fill-opacity="0.2"/>
</g>
</g>
</svg>
