<svg width="45" height="45" viewBox="0 0 45 45" fill="none" xmlns="http://www.w3.org/2000/svg">
<g id="transportation/parking">
<g id="Vector">
<path d="M9.375 41.25H35.625C37.1168 41.25 38.5476 40.6574 39.6025 39.6025C40.6574 38.5476 41.25 37.1168 41.25 35.625V9.375C41.25 7.88316 40.6574 6.45242 39.6025 5.39752C38.5476 4.34263 37.1168 3.75 35.625 3.75H9.375C7.88316 3.75 6.45242 4.34263 5.39752 5.39752C4.34263 6.45242 3.75 7.88316 3.75 9.375V35.625C3.75 37.1168 4.34263 38.5476 5.39752 39.6025C6.45242 40.6574 7.88316 41.25 9.375 41.25ZM7.5 9.375C7.5 8.87772 7.69754 8.40081 8.04918 8.04918C8.40081 7.69754 8.87772 7.5 9.375 7.5H35.625C36.1223 7.5 36.5992 7.69754 36.9508 8.04918C37.3025 8.40081 37.5 8.87772 37.5 9.375V35.625C37.5 36.1223 37.3025 36.5992 36.9508 36.9508C36.5992 37.3025 36.1223 37.5 35.625 37.5H9.375C8.87772 37.5 8.40081 37.3025 8.04918 36.9508C7.69754 36.5992 7.5 36.1223 7.5 35.625V9.375ZM16.875 33.75C17.3723 33.75 17.8492 33.5525 18.2008 33.2008C18.5525 32.8492 18.75 32.3723 18.75 31.875V26.25H22.5C24.4891 26.25 26.3968 25.4598 27.8033 24.0533C29.2098 22.6468 30 20.7391 30 18.75C30 16.7609 29.2098 14.8532 27.8033 13.4467C26.3968 12.0402 24.4891 11.25 22.5 11.25H16.875C16.3777 11.25 15.9008 11.4475 15.5492 11.7992C15.1975 12.1508 15 12.6277 15 13.125V31.875C15 32.3723 15.1975 32.8492 15.5492 33.2008C15.9008 33.5525 16.3777 33.75 16.875 33.75ZM18.75 15H22.5C23.4946 15 24.4484 15.3951 25.1516 16.0984C25.8549 16.8016 26.25 17.7554 26.25 18.75C26.25 19.7446 25.8549 20.6984 25.1516 21.4016C24.4484 22.1049 23.4946 22.5 22.5 22.5H18.75V15Z" fill="#3B7DD6"/>
<path d="M9.375 41.25H35.625C37.1168 41.25 38.5476 40.6574 39.6025 39.6025C40.6574 38.5476 41.25 37.1168 41.25 35.625V9.375C41.25 7.88316 40.6574 6.45242 39.6025 5.39752C38.5476 4.34263 37.1168 3.75 35.625 3.75H9.375C7.88316 3.75 6.45242 4.34263 5.39752 5.39752C4.34263 6.45242 3.75 7.88316 3.75 9.375V35.625C3.75 37.1168 4.34263 38.5476 5.39752 39.6025C6.45242 40.6574 7.88316 41.25 9.375 41.25ZM7.5 9.375C7.5 8.87772 7.69754 8.40081 8.04918 8.04918C8.40081 7.69754 8.87772 7.5 9.375 7.5H35.625C36.1223 7.5 36.5992 7.69754 36.9508 8.04918C37.3025 8.40081 37.5 8.87772 37.5 9.375V35.625C37.5 36.1223 37.3025 36.5992 36.9508 36.9508C36.5992 37.3025 36.1223 37.5 35.625 37.5H9.375C8.87772 37.5 8.40081 37.3025 8.04918 36.9508C7.69754 36.5992 7.5 36.1223 7.5 35.625V9.375ZM16.875 33.75C17.3723 33.75 17.8492 33.5525 18.2008 33.2008C18.5525 32.8492 18.75 32.3723 18.75 31.875V26.25H22.5C24.4891 26.25 26.3968 25.4598 27.8033 24.0533C29.2098 22.6468 30 20.7391 30 18.75C30 16.7609 29.2098 14.8532 27.8033 13.4467C26.3968 12.0402 24.4891 11.25 22.5 11.25H16.875C16.3777 11.25 15.9008 11.4475 15.5492 11.7992C15.1975 12.1508 15 12.6277 15 13.125V31.875C15 32.3723 15.1975 32.8492 15.5492 33.2008C15.9008 33.5525 16.3777 33.75 16.875 33.75ZM18.75 15H22.5C23.4946 15 24.4484 15.3951 25.1516 16.0984C25.8549 16.8016 26.25 17.7554 26.25 18.75C26.25 19.7446 25.8549 20.6984 25.1516 21.4016C24.4484 22.1049 23.4946 22.5 22.5 22.5H18.75V15Z" fill="black" fill-opacity="0.2"/>
</g>
</g>
</svg>
