<svg width="45" height="45" viewBox="0 0 45 45" fill="none" xmlns="http://www.w3.org/2000/svg">
<g id="interface/chat-circle">
<g id="Vector">
<path d="M22.5012 3.75003C19.631 3.74816 16.7987 4.40524 14.2225 5.67066C11.6463 6.93607 9.39503 8.77602 7.6421 11.0487C5.88918 13.3215 4.68141 15.9663 4.11187 18.7794C3.54233 21.5925 3.62621 24.4989 4.35707 27.2744C5.08792 30.05 6.44624 32.6208 8.32734 34.7886C10.2084 36.9564 12.5621 38.6635 15.207 39.7782C17.8519 40.8929 20.7174 41.3855 23.5827 41.2181C26.448 41.0507 29.2367 40.2277 31.7337 38.8125L38.7837 41.1619C38.9753 41.2224 39.1753 41.2521 39.3762 41.25C39.6732 41.2498 39.9658 41.1791 40.2301 41.0436C40.4943 40.9082 40.7226 40.7119 40.8962 40.471C41.0697 40.23 41.1836 39.9513 41.2284 39.6578C41.2731 39.3642 41.2476 39.0643 41.1537 38.7825L38.8137 31.7325C40.4344 28.8815 41.278 25.655 41.2602 22.3756C41.2423 19.0962 40.3636 15.879 38.712 13.0458C37.0604 10.2127 34.6938 7.86287 31.8489 6.23152C29.004 4.60017 25.7807 3.74447 22.5012 3.75003ZM34.9756 32.1019L36.4118 36.4144L32.0993 34.9782C31.8362 34.8884 31.5564 34.8587 31.2803 34.8911C31.0042 34.9236 30.7389 35.0174 30.5037 35.1657C27.3765 37.1448 23.6293 37.9012 19.9792 37.2901C16.3292 36.6791 13.0326 34.7435 10.7205 31.8538C8.40837 28.9641 7.24306 25.3232 7.44757 21.628C7.65209 17.9328 9.21207 14.4428 11.829 11.8259C14.4459 9.209 17.9359 7.64901 21.6311 7.4445C25.3263 7.23998 28.9671 8.4053 31.8568 10.7174C34.7466 13.0296 36.6822 16.3261 37.2932 19.9762C37.9043 23.6262 37.1478 27.3734 35.1687 30.5007C35.0194 30.7364 34.9246 31.0024 34.8912 31.2795C34.8578 31.5565 34.8866 31.8374 34.9756 32.1019ZM31.8762 17.8125C31.8762 18.3098 31.6787 18.7867 31.3271 19.1384C30.9754 19.49 30.4985 19.6875 30.0012 19.6875H15.0012C14.5039 19.6875 14.027 19.49 13.6754 19.1384C13.3238 18.7867 13.1262 18.3098 13.1262 17.8125C13.1262 17.3152 13.3238 16.8383 13.6754 16.4867C14.027 16.1351 14.5039 15.9375 15.0012 15.9375H30.0012C30.4985 15.9375 30.9754 16.1351 31.3271 16.4867C31.6787 16.8383 31.8762 17.3152 31.8762 17.8125ZM24.3762 27.1875C24.3762 27.6848 24.1787 28.1617 23.8271 28.5134C23.4754 28.865 22.9985 29.0625 22.5012 29.0625H15.0012C14.5039 29.0625 14.027 28.865 13.6754 28.5134C13.3238 28.1617 13.1262 27.6848 13.1262 27.1875C13.1262 26.6902 13.3238 26.2133 13.6754 25.8617C14.027 25.5101 14.5039 25.3125 15.0012 25.3125H22.5012C22.9985 25.3125 23.4754 25.5101 23.8271 25.8617C24.1787 26.2133 24.3762 26.6902 24.3762 27.1875Z" fill="#3B7DD6"/>
<path d="M22.5012 3.75003C19.631 3.74816 16.7987 4.40524 14.2225 5.67066C11.6463 6.93607 9.39503 8.77602 7.6421 11.0487C5.88918 13.3215 4.68141 15.9663 4.11187 18.7794C3.54233 21.5925 3.62621 24.4989 4.35707 27.2744C5.08792 30.05 6.44624 32.6208 8.32734 34.7886C10.2084 36.9564 12.5621 38.6635 15.207 39.7782C17.8519 40.8929 20.7174 41.3855 23.5827 41.2181C26.448 41.0507 29.2367 40.2277 31.7337 38.8125L38.7837 41.1619C38.9753 41.2224 39.1753 41.2521 39.3762 41.25C39.6732 41.2498 39.9658 41.1791 40.2301 41.0436C40.4943 40.9082 40.7226 40.7119 40.8962 40.471C41.0697 40.23 41.1836 39.9513 41.2284 39.6578C41.2731 39.3642 41.2476 39.0643 41.1537 38.7825L38.8137 31.7325C40.4344 28.8815 41.278 25.655 41.2602 22.3756C41.2423 19.0962 40.3636 15.879 38.712 13.0458C37.0604 10.2127 34.6938 7.86287 31.8489 6.23152C29.004 4.60017 25.7807 3.74447 22.5012 3.75003ZM34.9756 32.1019L36.4118 36.4144L32.0993 34.9782C31.8362 34.8884 31.5564 34.8587 31.2803 34.8911C31.0042 34.9236 30.7389 35.0174 30.5037 35.1657C27.3765 37.1448 23.6293 37.9012 19.9792 37.2901C16.3292 36.6791 13.0326 34.7435 10.7205 31.8538C8.40837 28.9641 7.24306 25.3232 7.44757 21.628C7.65209 17.9328 9.21207 14.4428 11.829 11.8259C14.4459 9.209 17.9359 7.64901 21.6311 7.4445C25.3263 7.23998 28.9671 8.4053 31.8568 10.7174C34.7466 13.0296 36.6822 16.3261 37.2932 19.9762C37.9043 23.6262 37.1478 27.3734 35.1687 30.5007C35.0194 30.7364 34.9246 31.0024 34.8912 31.2795C34.8578 31.5565 34.8866 31.8374 34.9756 32.1019ZM31.8762 17.8125C31.8762 18.3098 31.6787 18.7867 31.3271 19.1384C30.9754 19.49 30.4985 19.6875 30.0012 19.6875H15.0012C14.5039 19.6875 14.027 19.49 13.6754 19.1384C13.3238 18.7867 13.1262 18.3098 13.1262 17.8125C13.1262 17.3152 13.3238 16.8383 13.6754 16.4867C14.027 16.1351 14.5039 15.9375 15.0012 15.9375H30.0012C30.4985 15.9375 30.9754 16.1351 31.3271 16.4867C31.6787 16.8383 31.8762 17.3152 31.8762 17.8125ZM24.3762 27.1875C24.3762 27.6848 24.1787 28.1617 23.8271 28.5134C23.4754 28.865 22.9985 29.0625 22.5012 29.0625H15.0012C14.5039 29.0625 14.027 28.865 13.6754 28.5134C13.3238 28.1617 13.1262 27.6848 13.1262 27.1875C13.1262 26.6902 13.3238 26.2133 13.6754 25.8617C14.027 25.5101 14.5039 25.3125 15.0012 25.3125H22.5012C22.9985 25.3125 23.4754 25.5101 23.8271 25.8617C24.1787 26.2133 24.3762 26.6902 24.3762 27.1875Z" fill="black" fill-opacity="0.2"/>
</g>
</g>
</svg>
