<svg width="85" height="85" viewBox="0 0 85 85" fill="none" xmlns="http://www.w3.org/2000/svg">
<rect width="85" height="85" rx="42.5" fill="#D3E2F7"/>
<path d="M44.375 27.5V57.5C44.375 57.9973 44.1775 58.4742 43.8258 58.8258C43.4742 59.1775 42.9973 59.375 42.5 59.375C42.0027 59.375 41.5258 59.1775 41.1742 58.8258C40.8225 58.4742 40.625 57.9973 40.625 57.5V27.5C40.625 27.0027 40.8225 26.5258 41.1742 26.1742C41.5258 25.8225 42.0027 25.625 42.5 25.625C42.9973 25.625 43.4742 25.8225 43.8258 26.1742C44.1775 26.5258 44.375 27.0027 44.375 27.5ZM35 29.375C34.5027 29.375 34.0258 29.5725 33.6742 29.9242C33.3225 30.2758 33.125 30.7527 33.125 31.25V53.75C33.125 54.2473 33.3225 54.7242 33.6742 55.0758C34.0258 55.4275 34.5027 55.625 35 55.625C35.4973 55.625 35.9742 55.4275 36.3258 55.0758C36.6775 54.7242 36.875 54.2473 36.875 53.75V31.25C36.875 30.7527 36.6775 30.2758 36.3258 29.9242C35.9742 29.5725 35.4973 29.375 35 29.375ZM27.5 33.125C27.0027 33.125 26.5258 33.3225 26.1742 33.6742C25.8225 34.0258 25.625 34.5027 25.625 35V50C25.625 50.4973 25.8225 50.9742 26.1742 51.3258C26.5258 51.6775 27.0027 51.875 27.5 51.875C27.9973 51.875 28.4742 51.6775 28.8258 51.3258C29.1775 50.9742 29.375 50.4973 29.375 50V35C29.375 34.5027 29.1775 34.0258 28.8258 33.6742C28.4742 33.3225 27.9973 33.125 27.5 33.125ZM50 29.375C49.5027 29.375 49.0258 29.5725 48.6742 29.9242C48.3225 30.2758 48.125 30.7527 48.125 31.25V53.75C48.125 54.2473 48.3225 54.7242 48.6742 55.0758C49.0258 55.4275 49.5027 55.625 50 55.625C50.4973 55.625 50.9742 55.4275 51.3258 55.0758C51.6775 54.7242 51.875 54.2473 51.875 53.75V31.25C51.875 30.7527 51.6775 30.2758 51.3258 29.9242C50.9742 29.5725 50.4973 29.375 50 29.375ZM57.5 33.125C57.0027 33.125 56.5258 33.3225 56.1742 33.6742C55.8225 34.0258 55.625 34.5027 55.625 35V50C55.625 50.4973 55.8225 50.9742 56.1742 51.3258C56.5258 51.6775 57.0027 51.875 57.5 51.875C57.9973 51.875 58.4742 51.6775 58.8258 51.3258C59.1775 50.9742 59.375 50.4973 59.375 50V35C59.375 34.5027 59.1775 34.0258 58.8258 33.6742C58.4742 33.3225 57.9973 33.125 57.5 33.125Z" fill="#3B7DD6"/>
</svg>
