<svg width="20" height="20" viewBox="0 0 20 20" fill="none" xmlns="http://www.w3.org/2000/svg">
<path d="M9.99998 3.77256C9.65465 3.396 9.24223 3.08411 8.78184 2.85391C8.12199 2.52399 7.38702 2.37358 6.65079 2.41767C5.28558 2.42235 3.938 3.03077 3.04511 4.21931C2.14621 5.41584 1.74621 7.14657 2.16911 9.32859L9.99998 3.77256ZM9.99998 3.77256C10.3453 3.396 10.7577 3.08411 11.2181 2.85391C11.878 2.52399 12.6129 2.37358 13.3492 2.41767C14.7144 2.42235 16.062 3.03077 16.9548 4.21931C17.8537 5.41585 18.2538 7.14659 17.8308 9.32862C17.3869 11.6197 15.4244 13.6797 13.6831 15.1229C12.7981 15.8564 11.9408 16.4543 11.3052 16.8686C10.987 17.076 10.7235 17.238 10.5387 17.3487C10.4463 17.404 10.3735 17.4465 10.3233 17.4755L10.2654 17.5087L10.2498 17.5174L10.2455 17.5199L10.2443 17.5206L10.2439 17.5208C10.2437 17.5209 10.2436 17.521 9.99998 17.0843M9.99998 3.77256L2.16911 9.32862C2.61301 11.6197 4.57553 13.6797 6.31685 15.1229C7.20186 15.8564 8.0592 16.4543 8.69477 16.8686C9.01293 17.076 9.27642 17.238 9.46122 17.3487C9.55364 17.404 9.62644 17.4465 9.67661 17.4755L9.73456 17.5087L9.75012 17.5174L9.75442 17.5199L9.75569 17.5206L9.7561 17.5208C9.75625 17.5209 9.75637 17.521 9.99998 17.0843M9.99998 17.0843L9.75637 17.521L9.99998 17.6569L10.2436 17.521L9.99998 17.0843Z" fill="#F8FAFC" stroke="#F8FAFC"/>
</svg>
