<svg width="40" height="40" viewBox="0 0 40 40" fill="none" xmlns="http://www.w3.org/2000/svg">
<rect width="40" height="40" rx="10" fill="#D3E2F7"/>
<path d="M27.084 13.8408C26.6278 13.2887 26.0548 12.8448 25.4064 12.5409C24.7579 12.237 24.0501 12.0807 23.334 12.0833C22.1087 12.0462 20.9158 12.4801 20.0007 13.2958C19.0856 12.4801 17.8926 12.0462 16.6673 12.0833C15.9512 12.0807 15.2434 12.237 14.595 12.5409C13.9465 12.8448 13.3736 13.2887 12.9173 13.8408C12.1232 14.8041 11.2923 16.5483 11.8432 19.3908C12.7223 23.9299 19.3148 27.6549 19.5932 27.8074C19.7172 27.8766 19.8569 27.9129 19.999 27.9129C20.1411 27.9129 20.2808 27.8766 20.4048 27.8074C20.6848 27.6516 27.2773 23.9266 28.1548 19.3908C28.709 16.5483 27.8782 14.8041 27.084 13.8408ZM26.5223 19.0741C25.9007 22.2833 21.3823 25.2683 20.0007 26.1166C18.054 24.9416 14.049 21.9916 13.4832 19.0741C13.0557 16.8691 13.6407 15.5883 14.2073 14.9016C14.507 14.54 14.883 14.2492 15.3083 14.0501C15.7336 13.851 16.1977 13.7485 16.6673 13.7499C17.1689 13.7123 17.6717 13.8053 18.1266 14.0198C18.5815 14.2344 18.9731 14.5631 19.2632 14.9741C19.3347 15.1057 19.4402 15.2157 19.5687 15.2927C19.6972 15.3696 19.844 15.4107 19.9938 15.4117C20.1436 15.4126 20.2909 15.3734 20.4203 15.298C20.5498 15.2227 20.6567 15.114 20.7298 14.9833C21.0193 14.5691 21.4117 14.2376 21.8684 14.0213C22.325 13.805 22.8302 13.7115 23.334 13.7499C23.8046 13.7476 24.2698 13.8497 24.6962 14.0489C25.1226 14.248 25.4995 14.5392 25.7998 14.9016C26.3648 15.5883 26.9498 16.8691 26.5223 19.0741Z" fill="#3B7DD6"/>
<path d="M27.084 13.8408C26.6278 13.2887 26.0548 12.8448 25.4064 12.5409C24.7579 12.237 24.0501 12.0807 23.334 12.0833C22.1087 12.0462 20.9158 12.4801 20.0007 13.2958C19.0856 12.4801 17.8926 12.0462 16.6673 12.0833C15.9512 12.0807 15.2434 12.237 14.595 12.5409C13.9465 12.8448 13.3736 13.2887 12.9173 13.8408C12.1232 14.8041 11.2923 16.5483 11.8432 19.3908C12.7223 23.9299 19.3148 27.6549 19.5932 27.8074C19.7172 27.8766 19.8569 27.9129 19.999 27.9129C20.1411 27.9129 20.2808 27.8766 20.4048 27.8074C20.6848 27.6516 27.2773 23.9266 28.1548 19.3908C28.709 16.5483 27.8782 14.8041 27.084 13.8408ZM26.5223 19.0741C25.9007 22.2833 21.3823 25.2683 20.0007 26.1166C18.054 24.9416 14.049 21.9916 13.4832 19.0741C13.0557 16.8691 13.6407 15.5883 14.2073 14.9016C14.507 14.54 14.883 14.2492 15.3083 14.0501C15.7336 13.851 16.1977 13.7485 16.6673 13.7499C17.1689 13.7123 17.6717 13.8053 18.1266 14.0198C18.5815 14.2344 18.9731 14.5631 19.2632 14.9741C19.3347 15.1057 19.4402 15.2157 19.5687 15.2927C19.6972 15.3696 19.844 15.4107 19.9938 15.4117C20.1436 15.4126 20.2909 15.3734 20.4203 15.298C20.5498 15.2227 20.6567 15.114 20.7298 14.9833C21.0193 14.5691 21.4117 14.2376 21.8684 14.0213C22.325 13.805 22.8302 13.7115 23.334 13.7499C23.8046 13.7476 24.2698 13.8497 24.6962 14.0489C25.1226 14.248 25.4995 14.5392 25.7998 14.9016C26.3648 15.5883 26.9498 16.8691 26.5223 19.0741Z" fill="black" fill-opacity="0.2"/>
</svg>
