<svg width="25" height="24" viewBox="0 0 25 24" fill="none" xmlns="http://www.w3.org/2000/svg">
<path d="M3.5 11H11.5V3C11.5 2.73478 11.6054 2.48043 11.7929 2.29289C11.9804 2.10536 12.2348 2 12.5 2C12.7652 2 13.0196 2.10536 13.2071 2.29289C13.3946 2.48043 13.5 2.73478 13.5 3V11H21.5C21.7652 11 22.0196 11.1054 22.2071 11.2929C22.3946 11.4804 22.5 11.7348 22.5 12C22.5 12.2652 22.3946 12.5196 22.2071 12.7071C22.0196 12.8946 21.7652 13 21.5 13H13.5V21C13.5 21.2652 13.3946 21.5196 13.2071 21.7071C13.0196 21.8946 12.7652 22 12.5 22C12.2348 22 11.9804 21.8946 11.7929 21.7071C11.6054 21.5196 11.5 21.2652 11.5 21V13H3.5C3.23478 13 2.98043 12.8946 2.79289 12.7071C2.60536 12.5196 2.5 12.2652 2.5 12C2.5 11.7348 2.60536 11.4804 2.79289 11.2929C2.98043 11.1054 3.23478 11 3.5 11Z" fill="#3B7DD6"/>
<path d="M3.5 11H11.5V3C11.5 2.73478 11.6054 2.48043 11.7929 2.29289C11.9804 2.10536 12.2348 2 12.5 2C12.7652 2 13.0196 2.10536 13.2071 2.29289C13.3946 2.48043 13.5 2.73478 13.5 3V11H21.5C21.7652 11 22.0196 11.1054 22.2071 11.2929C22.3946 11.4804 22.5 11.7348 22.5 12C22.5 12.2652 22.3946 12.5196 22.2071 12.7071C22.0196 12.8946 21.7652 13 21.5 13H13.5V21C13.5 21.2652 13.3946 21.5196 13.2071 21.7071C13.0196 21.8946 12.7652 22 12.5 22C12.2348 22 11.9804 21.8946 11.7929 21.7071C11.6054 21.5196 11.5 21.2652 11.5 21V13H3.5C3.23478 13 2.98043 12.8946 2.79289 12.7071C2.60536 12.5196 2.5 12.2652 2.5 12C2.5 11.7348 2.60536 11.4804 2.79289 11.2929C2.98043 11.1054 3.23478 11 3.5 11Z" fill="black" fill-opacity="0.2"/>
</svg>
