<svg width="25" height="24" viewBox="0 0 25 24" fill="none" xmlns="http://www.w3.org/2000/svg">
<path d="M22.5 5H18.844L18.458 3.713C18.3963 3.50692 18.2697 3.32624 18.0971 3.19779C17.9245 3.06935 17.7151 2.99999 17.5 3H8.1C7.88487 2.99999 7.67546 3.06935 7.50288 3.19779C7.3303 3.32624 7.20374 3.50692 7.142 3.713L6.756 5H2.5C2.23478 5 1.98043 5.10536 1.79289 5.29289C1.60536 5.48043 1.5 5.73478 1.5 6V20C1.5 20.2652 1.60536 20.5196 1.79289 20.7071C1.98043 20.8946 2.23478 21 2.5 21H22.5C22.7652 21 23.0196 20.8946 23.2071 20.7071C23.3946 20.5196 23.5 20.2652 23.5 20V6C23.5 5.73478 23.3946 5.48043 23.2071 5.29289C23.0196 5.10536 22.7652 5 22.5 5ZM21.5 19H3.5V7H7.5C7.71513 7.00001 7.92454 6.93065 8.09712 6.80221C8.2697 6.67376 8.39626 6.49308 8.458 6.287L8.844 5H16.756L17.142 6.287C17.2037 6.49308 17.3303 6.67376 17.5029 6.80221C17.6755 6.93065 17.8849 7.00001 18.1 7H21.5V19ZM12.5 7C11.5111 7 10.5444 7.29324 9.72215 7.84265C8.8999 8.39206 8.25904 9.17295 7.8806 10.0866C7.50216 11.0002 7.40315 12.0055 7.59607 12.9755C7.789 13.9454 8.2652 14.8363 8.96447 15.5355C9.66373 16.2348 10.5546 16.711 11.5245 16.9039C12.4945 17.0969 13.4998 16.9978 14.4134 16.6194C15.327 16.241 16.1079 15.6001 16.6573 14.7779C17.2068 13.9556 17.5 12.9889 17.5 12C17.4984 10.6744 16.9711 9.40356 16.0338 8.46622C15.0964 7.52888 13.8256 7.00159 12.5 7ZM12.5 15C11.9067 15 11.3266 14.8241 10.8333 14.4944C10.3399 14.1648 9.95542 13.6962 9.72836 13.1481C9.5013 12.5999 9.44189 11.9967 9.55764 11.4147C9.6734 10.8328 9.95912 10.2982 10.3787 9.87868C10.7982 9.45912 11.3328 9.1734 11.9147 9.05764C12.4967 8.94189 13.0999 9.0013 13.6481 9.22836C14.1962 9.45542 14.6648 9.83994 14.9944 10.3333C15.3241 10.8266 15.5 11.4067 15.5 12C15.5 12.7956 15.1839 13.5587 14.6213 14.1213C14.0587 14.6839 13.2956 15 12.5 15Z" fill="#3B7DD6"/>
<path d="M22.5 5H18.844L18.458 3.713C18.3963 3.50692 18.2697 3.32624 18.0971 3.19779C17.9245 3.06935 17.7151 2.99999 17.5 3H8.1C7.88487 2.99999 7.67546 3.06935 7.50288 3.19779C7.3303 3.32624 7.20374 3.50692 7.142 3.713L6.756 5H2.5C2.23478 5 1.98043 5.10536 1.79289 5.29289C1.60536 5.48043 1.5 5.73478 1.5 6V20C1.5 20.2652 1.60536 20.5196 1.79289 20.7071C1.98043 20.8946 2.23478 21 2.5 21H22.5C22.7652 21 23.0196 20.8946 23.2071 20.7071C23.3946 20.5196 23.5 20.2652 23.5 20V6C23.5 5.73478 23.3946 5.48043 23.2071 5.29289C23.0196 5.10536 22.7652 5 22.5 5ZM21.5 19H3.5V7H7.5C7.71513 7.00001 7.92454 6.93065 8.09712 6.80221C8.2697 6.67376 8.39626 6.49308 8.458 6.287L8.844 5H16.756L17.142 6.287C17.2037 6.49308 17.3303 6.67376 17.5029 6.80221C17.6755 6.93065 17.8849 7.00001 18.1 7H21.5V19ZM12.5 7C11.5111 7 10.5444 7.29324 9.72215 7.84265C8.8999 8.39206 8.25904 9.17295 7.8806 10.0866C7.50216 11.0002 7.40315 12.0055 7.59607 12.9755C7.789 13.9454 8.2652 14.8363 8.96447 15.5355C9.66373 16.2348 10.5546 16.711 11.5245 16.9039C12.4945 17.0969 13.4998 16.9978 14.4134 16.6194C15.327 16.241 16.1079 15.6001 16.6573 14.7779C17.2068 13.9556 17.5 12.9889 17.5 12C17.4984 10.6744 16.9711 9.40356 16.0338 8.46622C15.0964 7.52888 13.8256 7.00159 12.5 7ZM12.5 15C11.9067 15 11.3266 14.8241 10.8333 14.4944C10.3399 14.1648 9.95542 13.6962 9.72836 13.1481C9.5013 12.5999 9.44189 11.9967 9.55764 11.4147C9.6734 10.8328 9.95912 10.2982 10.3787 9.87868C10.7982 9.45912 11.3328 9.1734 11.9147 9.05764C12.4967 8.94189 13.0999 9.0013 13.6481 9.22836C14.1962 9.45542 14.6648 9.83994 14.9944 10.3333C15.3241 10.8266 15.5 11.4067 15.5 12C15.5 12.7956 15.1839 13.5587 14.6213 14.1213C14.0587 14.6839 13.2956 15 12.5 15Z" fill="black" fill-opacity="0.2"/>
</svg>
