<svg width="10" height="8" viewBox="0 0 10 8" fill="none" xmlns="http://www.w3.org/2000/svg">
<path d="M9.16607 0.667969H0.83274C0.674243 0.667896 0.519013 0.713025 0.385259 0.798061C0.251506 0.883097 0.144777 1.00451 0.0775928 1.14807C0.0104089 1.29162 -0.0144431 1.45136 0.005952 1.60853C0.0263471 1.76571 0.0911435 1.91382 0.19274 2.03547L4.35941 7.03547C4.43761 7.12925 4.53548 7.2047 4.64607 7.25648C4.75667 7.30826 4.87729 7.33509 4.99941 7.33509C5.12152 7.33509 5.24214 7.30826 5.35274 7.25648C5.46333 7.2047 5.5612 7.12925 5.63941 7.03547L9.80607 2.03547C9.90767 1.91382 9.97247 1.76571 9.99286 1.60853C10.0133 1.45136 9.9884 1.29162 9.92122 1.14807C9.85404 1.00451 9.74731 0.883097 9.61355 0.798061C9.4798 0.713025 9.32457 0.667896 9.16607 0.667969ZM4.99941 5.19964L2.61191 2.33464H7.38691L4.99941 5.19964Z" fill="#3B7DD6"/>
</svg>
