<svg width="41" height="40" viewBox="0 0 41 40" fill="none" xmlns="http://www.w3.org/2000/svg">
<rect x="0.5" width="40" height="40" rx="20" fill="#D3E2F7"/>
<g clip-path="url(#clip0_2487_3257)">
<path d="M21 19.1668C21.8241 19.1668 22.6297 18.9225 23.3149 18.4646C24.0001 18.0068 24.5341 17.356 24.8495 16.5947C25.1649 15.8333 25.2474 14.9955 25.0866 14.1873C24.9258 13.379 24.529 12.6366 23.9463 12.0539C23.3636 11.4712 22.6211 11.0743 21.8129 10.9136C21.0046 10.7528 20.1668 10.8353 19.4055 11.1507C18.6441 11.466 17.9934 12.0001 17.5355 12.6853C17.0777 13.3705 16.8333 14.1761 16.8333 15.0002C16.8347 16.1048 17.2741 17.1639 18.0552 17.945C18.8363 18.7261 19.8953 19.1655 21 19.1668ZM21 12.5002C21.4945 12.5002 21.9778 12.6468 22.3889 12.9215C22.8 13.1962 23.1205 13.5866 23.3097 14.0435C23.4989 14.5003 23.5484 15.0029 23.452 15.4879C23.3555 15.9728 23.1174 16.4183 22.7678 16.7679C22.4181 17.1176 21.9727 17.3557 21.4877 17.4521C21.0028 17.5486 20.5001 17.4991 20.0433 17.3099C19.5865 17.1206 19.196 16.8002 18.9213 16.3891C18.6466 15.978 18.5 15.4946 18.5 15.0002C18.5 14.3371 18.7634 13.7012 19.2322 13.2324C19.7011 12.7636 20.337 12.5002 21 12.5002ZM14.3333 29.1668H27.6667C27.8877 29.1668 28.0996 29.079 28.2559 28.9228C28.4122 28.7665 28.5 28.5545 28.5 28.3335V25.0002C28.4987 23.8955 28.0593 22.8365 27.2782 22.0553C26.497 21.2742 25.438 20.8348 24.3333 20.8335H17.6667C16.562 20.8348 15.503 21.2742 14.7218 22.0553C13.9407 22.8365 13.5013 23.8955 13.5 25.0002V28.3335C13.5 28.5545 13.5878 28.7665 13.7441 28.9228C13.9004 29.079 14.1123 29.1668 14.3333 29.1668ZM15.1667 25.0002C15.1667 24.3371 15.4301 23.7012 15.8989 23.2324C16.3677 22.7636 17.0036 22.5002 17.6667 22.5002H24.3333C24.9964 22.5002 25.6323 22.7636 26.1011 23.2324C26.5699 23.7012 26.8333 24.3371 26.8333 25.0002V27.5002H15.1667V25.0002Z" fill="#F8FAFC"/>
</g>
<defs>
<clipPath id="clip0_2487_3257">
<rect width="20" height="20" fill="white" transform="translate(11 10.0001)"/>
</clipPath>
</defs>
</svg>
