<svg width="15" height="15" viewBox="0 0 15 15" fill="none" xmlns="http://www.w3.org/2000/svg">
<rect width="15" height="15" rx="7.5" fill="#E44F2F"/>
<path d="M5.85875 11.17L5.24375 10.805L9.14375 3.83L9.75875 4.17L5.85875 11.17ZM4.62875 7.645C4.27542 7.645 3.95375 7.56167 3.66375 7.395C3.37375 7.225 3.14208 6.99833 2.96875 6.715C2.79875 6.43167 2.71375 6.115 2.71375 5.765C2.71375 5.42167 2.79875 5.10833 2.96875 4.825C3.14208 4.54167 3.37375 4.31667 3.66375 4.15C3.95375 3.98333 4.27542 3.9 4.62875 3.9C4.98542 3.9 5.30708 3.98333 5.59375 4.15C5.88042 4.31667 6.10875 4.54167 6.27875 4.825C6.45208 5.10833 6.53875 5.42167 6.53875 5.765C6.53875 6.11167 6.45208 6.42833 6.27875 6.715C6.10875 6.99833 5.88042 7.225 5.59375 7.395C5.30708 7.56167 4.98542 7.645 4.62875 7.645ZM4.62875 6.885C4.85208 6.885 5.04708 6.83833 5.21375 6.745C5.38042 6.64833 5.51042 6.51667 5.60375 6.35C5.69708 6.18 5.74375 5.985 5.74375 5.765C5.74375 5.435 5.64208 5.16833 5.43875 4.965C5.23542 4.76167 4.96542 4.66 4.62875 4.66C4.40875 4.66 4.21375 4.70833 4.04375 4.805C3.87708 4.89833 3.74542 5.02833 3.64875 5.195C3.55542 5.35833 3.50875 5.54833 3.50875 5.765C3.50875 6.095 3.61208 6.365 3.81875 6.575C4.02875 6.78167 4.29875 6.885 4.62875 6.885ZM10.3838 11.1C10.0271 11.1 9.70375 11.0167 9.41375 10.85C9.12708 10.68 8.89708 10.4533 8.72375 10.17C8.55042 9.88333 8.46375 9.56667 8.46375 9.22C8.46375 8.87667 8.55042 8.56333 8.72375 8.28C8.89708 7.99667 9.12708 7.77167 9.41375 7.605C9.70375 7.43833 10.0271 7.355 10.3838 7.355C10.7371 7.355 11.0571 7.43833 11.3438 7.605C11.6338 7.77167 11.8638 7.99667 12.0338 8.28C12.2038 8.56333 12.2888 8.87667 12.2888 9.22C12.2888 9.56667 12.2038 9.88333 12.0338 10.17C11.8638 10.4533 11.6338 10.68 11.3438 10.85C11.0571 11.0167 10.7371 11.1 10.3838 11.1ZM10.3838 10.34C10.6038 10.34 10.7971 10.2933 10.9638 10.2C11.1338 10.1033 11.2654 9.97167 11.3588 9.805C11.4521 9.635 11.4988 9.44 11.4988 9.22C11.4988 8.89 11.3954 8.62333 11.1888 8.42C10.9854 8.21667 10.7171 8.115 10.3838 8.115C10.1604 8.115 9.96375 8.16167 9.79375 8.255C9.62708 8.34833 9.49542 8.47833 9.39875 8.645C9.30542 8.81167 9.25875 9.00333 9.25875 9.22C9.25875 9.54667 9.36208 9.815 9.56875 10.025C9.77875 10.235 10.0504 10.34 10.3838 10.34Z" fill="#F8FAFC"/>
</svg>
