<svg width="21" height="20" viewBox="0 0 21 20" fill="none" xmlns="http://www.w3.org/2000/svg">
<path d="M18.8334 4.16667H15.7867L15.465 3.09417C15.4136 2.92243 15.3081 2.77187 15.1643 2.66483C15.0205 2.55779 14.846 2.49999 14.6667 2.5H6.83337C6.6541 2.49999 6.47959 2.55779 6.33578 2.66483C6.19196 2.77187 6.08649 2.92243 6.03504 3.09417L5.71337 4.16667H2.16671C1.94569 4.16667 1.73373 4.25446 1.57745 4.41074C1.42117 4.56702 1.33337 4.77899 1.33337 5V16.6667C1.33337 16.8877 1.42117 17.0996 1.57745 17.2559C1.73373 17.4122 1.94569 17.5 2.16671 17.5H18.8334C19.0544 17.5 19.2663 17.4122 19.4226 17.2559C19.5789 17.0996 19.6667 16.8877 19.6667 16.6667V5C19.6667 4.77899 19.5789 4.56702 19.4226 4.41074C19.2663 4.25446 19.0544 4.16667 18.8334 4.16667ZM18 15.8333H3.00004V5.83333H6.33337C6.51265 5.83335 6.68715 5.77554 6.83097 5.6685C6.97479 5.56147 7.08025 5.4109 7.13171 5.23917L7.45337 4.16667H14.0467L14.3684 5.23917C14.4198 5.4109 14.5253 5.56147 14.6691 5.6685C14.8129 5.77554 14.9874 5.83335 15.1667 5.83333H18V15.8333ZM10.5 5.83333C9.67595 5.83333 8.87037 6.0777 8.18516 6.53554C7.49996 6.99338 6.96591 7.64413 6.65054 8.40549C6.33518 9.16684 6.25266 10.0046 6.41343 10.8129C6.57421 11.6211 6.97104 12.3636 7.55376 12.9463C8.13648 13.529 8.87891 13.9258 9.68716 14.0866C10.4954 14.2474 11.3332 14.1649 12.0946 13.8495C12.8559 13.5341 13.5067 13.0001 13.9645 12.3149C14.4223 11.6297 14.6667 10.8241 14.6667 10C14.6654 8.89534 14.226 7.8363 13.4449 7.05518C12.6637 6.27407 11.6047 5.83466 10.5 5.83333ZM10.5 12.5C10.0056 12.5 9.52224 12.3534 9.11111 12.0787C8.69999 11.804 8.37956 11.4135 8.19034 10.9567C8.00112 10.4999 7.95161 9.99723 8.04808 9.51227C8.14454 9.02732 8.38264 8.58186 8.73227 8.23223C9.0819 7.8826 9.52736 7.6445 10.0123 7.54804C10.4973 7.45157 10.9999 7.50108 11.4567 7.6903C11.9136 7.87952 12.304 8.19995 12.5787 8.61107C12.8534 9.0222 13 9.50555 13 10C13 10.663 12.7366 11.2989 12.2678 11.7678C11.799 12.2366 11.1631 12.5 10.5 12.5Z" fill="#3B7DD6"/>
</svg>
