<svg width="20" height="20" viewBox="0 0 20 20" fill="none" xmlns="http://www.w3.org/2000/svg">
<path d="M1.71833 10.2883C3.14416 14.1666 6.39583 16.6666 10 16.6666C13.6042 16.6666 16.8558 14.1666 18.2817 10.2883C18.3508 10.1023 18.3508 9.89765 18.2817 9.71165C16.8558 5.83331 13.6042 3.33331 10 3.33331C6.39583 3.33331 3.14416 5.83331 1.71833 9.71165C1.64919 9.89765 1.64919 10.1023 1.71833 10.2883ZM10 4.99998C12.8108 4.99998 15.3758 6.95248 16.6075 9.99998C15.3758 13.0475 12.8108 15 10 15C7.18916 15 4.62417 13.0475 3.3925 9.99998C4.62417 6.95248 7.18916 4.99998 10 4.99998ZM10 13.3333C10.6593 13.3333 11.3037 13.1378 11.8519 12.7715C12.4001 12.4053 12.8273 11.8847 13.0796 11.2756C13.3319 10.6665 13.3979 9.99628 13.2693 9.34968C13.1407 8.70308 12.8232 8.10913 12.357 7.64296C11.8908 7.17678 11.2969 6.85931 10.6503 6.7307C10.0037 6.60208 9.33347 6.66809 8.72439 6.92038C8.1153 7.17267 7.5947 7.59992 7.22843 8.14808C6.86216 8.69624 6.66666 9.34071 6.66666 9.99998C6.66666 10.884 7.01785 11.7319 7.64298 12.357C8.2681 12.9821 9.11594 13.3333 10 13.3333ZM10 8.33331C10.3296 8.33331 10.6519 8.43106 10.9259 8.6142C11.2 8.79733 11.4137 9.05763 11.5398 9.36217C11.6659 9.66672 11.6989 10.0018 11.6346 10.3251C11.5703 10.6484 11.4116 10.9454 11.1785 11.1785C10.9454 11.4116 10.6484 11.5703 10.3251 11.6346C10.0018 11.6989 9.66674 11.6659 9.36219 11.5398C9.05765 11.4136 8.79735 11.2 8.61422 10.9259C8.43108 10.6518 8.33333 10.3296 8.33333 9.99998C8.33333 9.55795 8.50893 9.13403 8.82149 8.82147C9.13405 8.50891 9.55797 8.33331 10 8.33331Z" fill="#183357"/>
</svg>
