<svg width="22" height="16" viewBox="0 0 22 16" fill="none" xmlns="http://www.w3.org/2000/svg">
<path id="Vector" d="M20.166 0.5H1.83404C1.48537 0.499836 1.14389 0.60137 0.849654 0.792688C0.555418 0.984006 0.320633 1.25717 0.172839 1.58015C0.0250462 1.90312 -0.0296242 2.2625 0.0152417 2.61613C0.0601075 2.96975 0.202649 3.30296 0.426143 3.57666L9.59211 14.8259C9.76415 15.0369 9.97944 15.2066 10.2227 15.3231C10.466 15.4396 10.7314 15.5 11 15.5C11.2686 15.5 11.534 15.4396 11.7773 15.3231C12.0206 15.2066 12.2358 15.0369 12.4079 14.8259L21.5739 3.57666C21.7974 3.30296 21.9399 2.96975 21.9848 2.61613C22.0296 2.2625 21.975 1.90312 21.8272 1.58015C21.6794 1.25717 21.4446 0.984006 21.1503 0.792688C20.8561 0.60137 20.5146 0.499836 20.166 0.5ZM11 10.6955L5.7479 4.24974H16.2521L11 10.6955Z" fill="#3B7DD6"/>
</svg>
