<svg width="24" height="24" viewBox="0 0 24 24" fill="none" xmlns="http://www.w3.org/2000/svg">
<path d="M2.69965 9.45C2.79457 9.55495 2.8947 9.65508 2.99965 9.75V22C2.99965 22.2652 3.105 22.5196 3.29254 22.7071C3.48008 22.8946 3.73443 23 3.99965 23H19.9996C20.2649 23 20.5192 22.8946 20.7068 22.7071C20.8943 22.5196 20.9996 22.2652 20.9996 22V9.752C21.1046 9.65707 21.2047 9.55695 21.2996 9.452C21.6779 8.97035 21.9406 8.40826 22.0673 7.80907C22.1941 7.20987 22.1815 6.58958 22.0306 5.996L20.9696 1.758C20.9157 1.54157 20.7909 1.3494 20.6151 1.21205C20.4393 1.0747 20.2227 1.00006 19.9996 1H3.99965C3.77658 1.00006 3.55995 1.0747 3.38418 1.21205C3.20842 1.3494 3.08363 1.54157 3.02965 1.758L1.97165 5.994C1.82037 6.58735 1.80734 7.20752 1.93355 7.8067C2.05977 8.40588 2.32187 8.96809 2.69965 9.45ZM12.9996 21H10.9996V16H12.9996V21ZM18.9996 21H14.9996V15C14.9996 14.7348 14.8943 14.4804 14.7068 14.2929C14.5192 14.1054 14.2649 14 13.9996 14H9.99965C9.73443 14 9.48008 14.1054 9.29254 14.2929C9.105 14.4804 8.99965 14.7348 8.99965 15V21H4.99965V10.9C5.70767 11.0616 6.44639 11.0269 7.13614 10.7996C7.82588 10.5723 8.44048 10.1609 8.91365 9.61C8.93965 9.64 8.96665 9.669 8.99365 9.699C9.38253 10.1166 9.85457 10.4481 10.3794 10.6722C10.9042 10.8963 11.4701 11.0079 12.0406 11C12.5978 10.9995 13.1488 10.8838 13.6591 10.6601C14.1694 10.4363 14.6278 10.1095 15.0056 9.7C15.0326 9.67 15.0596 9.641 15.0856 9.611C15.5589 10.1618 16.1736 10.5729 16.8633 10.8C17.553 11.0272 18.2917 11.0618 18.9996 10.9V21ZM3.91065 6.479L4.78065 3H19.2186L20.0886 6.479C20.1634 6.77818 20.169 7.09046 20.105 7.39213C20.041 7.69379 19.9091 7.9769 19.7193 8.21993C19.5294 8.46297 19.2867 8.65954 19.0095 8.79471C18.7324 8.92987 18.428 9.00008 18.1196 9C17.6119 8.99678 17.1236 8.80442 16.7501 8.46048C16.3766 8.11655 16.1447 7.64574 16.0996 7.14L16.0576 6.64C16.0332 6.37764 15.9061 6.13555 15.7041 5.96634C15.5022 5.79713 15.2416 5.71448 14.979 5.73635C14.7164 5.75822 14.473 5.88285 14.3018 6.08314C14.1306 6.28344 14.0454 6.54321 14.0646 6.806C14.0889 7.08525 14.0543 7.36648 13.9632 7.63155C13.8721 7.89663 13.7264 8.13967 13.5356 8.345C13.3349 8.56064 13.0903 8.73069 12.8182 8.84369C12.5462 8.95669 12.2531 9.00999 11.9586 9C11.6783 8.99996 11.401 8.94183 11.1443 8.82928C10.8875 8.71672 10.6569 8.55219 10.4669 8.34604C10.2769 8.1399 10.1317 7.89663 10.0405 7.63157C9.9492 7.3665 9.91385 7.08541 9.93665 6.806C9.9585 6.54172 9.87449 6.27957 9.70309 6.07723C9.53168 5.87488 9.28692 5.7489 9.02265 5.727C8.89158 5.71467 8.75937 5.72864 8.63377 5.76808C8.50817 5.80751 8.39171 5.87163 8.29121 5.95667C8.19071 6.0417 8.1082 6.14595 8.04852 6.26329C7.98884 6.38063 7.95318 6.5087 7.94365 6.64L7.90165 7.14C7.85659 7.64609 7.6244 8.11717 7.25046 8.46115C6.87652 8.80513 6.38773 8.99727 5.87965 9C5.57127 9.00008 5.26692 8.92987 4.98975 8.79471C4.71257 8.65954 4.46985 8.46297 4.28003 8.21993C4.09021 7.9769 3.95828 7.69379 3.89428 7.39213C3.83027 7.09046 3.83587 6.77818 3.91065 6.479Z" fill="#183357"/>
</svg>
