<svg width="24" height="24" viewBox="0 0 24 24" fill="none" xmlns="http://www.w3.org/2000/svg">
<path d="M2.00001 23H22C22.1433 23 22.285 22.9692 22.4154 22.9097C22.5458 22.8502 22.6619 22.7633 22.7557 22.655C22.8496 22.5467 22.9191 22.4195 22.9596 22.282C23 22.1445 23.0104 21.9999 22.99 21.858L20.99 7.858C20.9558 7.6198 20.8369 7.40191 20.6551 7.24431C20.4732 7.08671 20.2406 6.99997 20 7H17V6C17 4.67392 16.4732 3.40215 15.5355 2.46447C14.5979 1.52678 13.3261 1 12 1C10.6739 1 9.40216 1.52678 8.46448 2.46447C7.5268 3.40215 7.00001 4.67392 7.00001 6V7H4.00001C3.75937 6.99997 3.52679 7.08671 3.34495 7.24431C3.1631 7.40191 3.04418 7.6198 3.01001 7.858L1.01001 21.858C0.989658 21.9999 1.00004 22.1445 1.04046 22.282C1.08088 22.4195 1.15039 22.5467 1.24428 22.655C1.33816 22.7633 1.45424 22.8502 1.58463 22.9097C1.71502 22.9692 1.85668 23 2.00001 23ZM9.00001 6C9.00001 5.20435 9.31608 4.44129 9.87869 3.87868C10.4413 3.31607 11.2044 3 12 3C12.7957 3 13.5587 3.31607 14.1213 3.87868C14.6839 4.44129 15 5.20435 15 6V7H9.00001V6ZM4.86701 9H7.00001V12C7.00001 12.2652 7.10537 12.5196 7.2929 12.7071C7.48044 12.8946 7.7348 13 8.00001 13C8.26523 13 8.51958 12.8946 8.70712 12.7071C8.89465 12.5196 9.00001 12.2652 9.00001 12V9H15V12C15 12.2652 15.1054 12.5196 15.2929 12.7071C15.4804 12.8946 15.7348 13 16 13C16.2652 13 16.5196 12.8946 16.7071 12.7071C16.8947 12.5196 17 12.2652 17 12V9H19.133L20.847 21H3.15301L4.86701 9Z" fill="#183357"/>
</svg>
