<svg width="25" height="24" viewBox="0 0 25 24" fill="none" xmlns="http://www.w3.org/2000/svg">
<path d="M8.20679 8.707L5.91379 11H17.4998C17.765 11 18.0194 11.1054 18.2069 11.2929C18.3944 11.4804 18.4998 11.7348 18.4998 12C18.4998 12.2652 18.3944 12.5196 18.2069 12.7071C18.0194 12.8946 17.765 13 17.4998 13H5.91379L8.20679 15.293C8.3023 15.3852 8.37848 15.4956 8.43089 15.6176C8.4833 15.7396 8.51088 15.8708 8.51204 16.0036C8.51319 16.1364 8.48789 16.2681 8.43761 16.391C8.38733 16.5138 8.31307 16.6255 8.21918 16.7194C8.12529 16.8133 8.01364 16.8875 7.89074 16.9378C7.76784 16.9881 7.63616 17.0134 7.50339 17.0123C7.37061 17.0111 7.23939 16.9835 7.11738 16.9311C6.99538 16.8787 6.88503 16.8025 6.79279 16.707L2.79279 12.707C2.60532 12.5195 2.5 12.2652 2.5 12C2.5 11.7348 2.60532 11.4805 2.79279 11.293L6.79279 7.293C6.88503 7.19749 6.99538 7.12131 7.11738 7.0689C7.23939 7.01649 7.37061 6.9889 7.50339 6.98775C7.63616 6.9866 7.76784 7.0119 7.89074 7.06218C8.01364 7.11246 8.12529 7.18671 8.21918 7.2806C8.31307 7.3745 8.38733 7.48615 8.43761 7.60905C8.48789 7.73194 8.51319 7.86362 8.51204 7.9964C8.51088 8.12918 8.4833 8.2604 8.43089 8.3824C8.37848 8.50441 8.3023 8.61475 8.20679 8.707ZM21.4998 1H13.4998C13.2346 1 12.9802 1.10536 12.7927 1.29289C12.6051 1.48043 12.4998 1.73478 12.4998 2C12.4998 2.26522 12.6051 2.51957 12.7927 2.70711C12.9802 2.89464 13.2346 3 13.4998 3H20.4998V21H13.4998C13.2346 21 12.9802 21.1054 12.7927 21.2929C12.6051 21.4804 12.4998 21.7348 12.4998 22C12.4998 22.2652 12.6051 22.5196 12.7927 22.7071C12.9802 22.8946 13.2346 23 13.4998 23H21.4998C21.765 23 22.0194 22.8946 22.2069 22.7071C22.3944 22.5196 22.4998 22.2652 22.4998 22V2C22.4998 1.73478 22.3944 1.48043 22.2069 1.29289C22.0194 1.10536 21.765 1 21.4998 1Z" fill="#183357"/>
</svg>
