<svg width="61" height="60" viewBox="0 0 61 60" fill="none" xmlns="http://www.w3.org/2000/svg">
<rect x="0.75" width="60" height="60" rx="30" fill="#3B7DD6"/>
<path d="M15.2496 25.7513C15.4078 25.9262 15.5747 26.0931 15.7496 26.2513V46.668C15.7496 47.11 15.9252 47.5339 16.2377 47.8465C16.5503 48.159 16.9742 48.3346 17.4162 48.3346H44.0829C44.5249 48.3346 44.9489 48.159 45.2614 47.8465C45.574 47.5339 45.7496 47.11 45.7496 46.668V26.2546C45.9245 26.0964 46.0914 25.9295 46.2496 25.7546C46.8801 24.9519 47.3178 24.0151 47.529 23.0164C47.7403 22.0178 47.7193 20.9839 47.4679 19.9946L45.6996 12.9313C45.6096 12.5706 45.4016 12.2503 45.1087 12.0214C44.8157 11.7925 44.4547 11.6681 44.0829 11.668H17.4162C17.0445 11.6681 16.6834 11.7925 16.3905 12.0214C16.0975 12.2503 15.8895 12.5706 15.7996 12.9313L14.0362 19.9913C13.7841 20.9802 13.7624 22.0138 13.9728 23.0125C14.1831 24.0111 14.6199 24.9481 15.2496 25.7513ZM32.4162 45.0013H29.0829V36.668H32.4162V45.0013ZM42.4162 45.0013H35.7496V35.0013C35.7496 34.5593 35.574 34.1353 35.2614 33.8228C34.9489 33.5102 34.5249 33.3346 34.0829 33.3346H27.4162C26.9742 33.3346 26.5503 33.5102 26.2377 33.8228C25.9252 34.1353 25.7496 34.5593 25.7496 35.0013V45.0013H19.0829V28.168C20.2629 28.4374 21.4941 28.3795 22.6437 28.0006C23.7933 27.6217 24.8176 26.9362 25.6062 26.018C25.6496 26.068 25.6946 26.1163 25.7396 26.1663C26.3877 26.8623 27.1744 27.4148 28.0491 27.7883C28.9238 28.1617 29.8669 28.3479 30.8179 28.3346C31.7465 28.3339 32.6649 28.141 33.5153 27.7681C34.3658 27.3952 35.1299 26.8504 35.7596 26.168C35.8046 26.118 35.8496 26.0696 35.8929 26.0196C36.6817 26.9376 37.7061 27.6228 38.8557 28.0014C40.0052 28.38 41.2363 28.4376 42.4162 28.168V45.0013ZM17.2679 20.7996L18.7179 15.0013H42.7812L44.2312 20.7996C44.3559 21.2983 44.3652 21.8187 44.2585 22.3215C44.1518 22.8243 43.932 23.2961 43.6156 23.7012C43.2992 24.1062 42.8947 24.4339 42.4327 24.6591C41.9708 24.8844 41.4635 25.0014 40.9496 25.0013C40.1033 24.9959 39.2895 24.6753 38.667 24.1021C38.0445 23.5289 37.6579 22.7442 37.5829 21.9013L37.5129 21.068C37.4721 20.6307 37.2604 20.2272 36.9237 19.9452C36.5871 19.6632 36.1528 19.5254 35.7151 19.5619C35.2775 19.5983 34.8719 19.8061 34.5865 20.1399C34.3012 20.4737 34.1591 20.9067 34.1912 21.3446C34.2316 21.81 34.1741 22.2788 34.0222 22.7206C33.8703 23.1624 33.6276 23.5674 33.3096 23.9096C32.9751 24.269 32.5673 24.5525 32.1139 24.7408C31.6605 24.9291 31.1719 25.018 30.6812 25.0013C30.214 25.0012 29.7519 24.9044 29.324 24.7168C28.8961 24.5292 28.5117 24.2549 28.195 23.9114C27.8784 23.5678 27.6364 23.1623 27.4843 22.7206C27.3322 22.2788 27.2732 21.8103 27.3112 21.3446C27.3477 20.9042 27.2076 20.4673 26.922 20.13C26.6363 19.7928 26.2284 19.5828 25.7879 19.5463C25.5695 19.5258 25.3491 19.549 25.1398 19.6148C24.9304 19.6805 24.7363 19.7874 24.5688 19.9291C24.4014 20.0708 24.2638 20.2445 24.1644 20.4401C24.0649 20.6357 24.0055 20.8491 23.9896 21.068L23.9196 21.9013C23.8445 22.7448 23.4575 23.5299 22.8343 24.1032C22.211 24.6765 21.3964 24.9968 20.5496 25.0013C20.0356 25.0014 19.5284 24.8844 19.0664 24.6591C18.6044 24.4339 18.1999 24.1062 17.8835 23.7012C17.5672 23.2961 17.3473 22.8243 17.2406 22.3215C17.1339 21.8187 17.1433 21.2983 17.2679 20.7996Z" fill="#F8FAFC"/>
</svg>
