<svg width="24" height="24" viewBox="0 0 24 24" fill="none" xmlns="http://www.w3.org/2000/svg">
<path d="M21.026 6.105C21.1368 6.51336 21.1629 6.94008 21.1025 7.3589C21.0422 7.77771 20.8968 8.17974 20.6753 8.54023C20.4537 8.90072 20.1607 9.21203 19.8143 9.455C19.4678 9.69797 19.0754 9.86745 18.661 9.953C18.2451 10.0284 17.8182 10.0159 17.4074 9.9165C16.9967 9.81708 16.6113 9.63287 16.276 9.3757C15.9406 9.11853 15.6628 8.79408 15.4603 8.42318C15.2577 8.05228 15.135 7.64313 15.1 7.222L15.058 6.722C15.0922 7.13916 15.0397 7.5589 14.9036 7.95475C14.7676 8.35059 14.551 8.71396 14.2676 9.02194C13.9841 9.32992 13.6399 9.57583 13.2567 9.74416C12.8735 9.9125 12.4595 9.99961 12.041 10H11.959C11.5399 9.99992 11.1255 9.91293 10.7418 9.74454C10.3581 9.57614 10.0136 9.33 9.72984 9.02166C9.44612 8.71332 9.22943 8.34948 9.09348 7.95314C8.95752 7.5568 8.90525 7.13657 8.93996 6.719L8.90896 7.094C8.85945 7.83505 8.54729 8.53416 8.02857 9.06571C7.50986 9.59726 6.81858 9.9264 6.07896 9.994C5.60279 10.0252 5.12597 9.94357 4.68734 9.75565C4.24871 9.56773 3.86066 9.27886 3.5548 8.91257C3.24895 8.54629 3.03393 8.11294 2.92726 7.64782C2.82059 7.1827 2.82528 6.69896 2.94096 6.236L3.81096 2.757C3.86513 2.54075 3.99001 2.34881 4.16575 2.21166C4.3415 2.0745 4.55803 2.00001 4.78096 2H19.219C19.4419 2.00001 19.6584 2.0745 19.8342 2.21166C20.0099 2.34881 20.1348 2.54075 20.189 2.757L21.026 6.105ZM18.121 12C18.7652 11.9987 19.4031 11.8734 20 11.631V21C20 21.2652 19.8946 21.5196 19.7071 21.7071C19.5195 21.8946 19.2652 22 19 22H4.99996C4.73474 22 4.48039 21.8946 4.29285 21.7071C4.10532 21.5196 3.99996 21.2652 3.99996 21V11.631C4.80507 11.962 5.68365 12.0732 6.54583 11.9532C7.40801 11.8331 8.22284 11.4863 8.90696 10.948C9.80723 11.635 10.9095 12.0049 12.042 12C13.1469 11.9942 14.2192 11.6245 15.093 10.948C15.9587 11.623 17.0232 11.9929 18.121 12ZM14 17C14 16.4696 13.7892 15.9609 13.4142 15.5858C13.0391 15.2107 12.5304 15 12 15C11.4695 15 10.9608 15.2107 10.5857 15.5858C10.2107 15.9609 9.99996 16.4696 9.99996 17V20H14V17Z" fill="#183357"/>
</svg>
