<svg width="25" height="24" viewBox="0 0 25 24" fill="none" xmlns="http://www.w3.org/2000/svg">
<path d="M21.5 14.571C21.5 16.465 19.038 18 16 18C12.962 18 10.5 16.465 10.5 14.571C10.5 12.677 12.962 11.143 16 11.143C19.038 11.143 21.5 12.678 21.5 14.571ZM16 19.857C12.962 19.857 10.5 18.322 10.5 16.429V18.571C10.5 20.465 12.962 22 16 22C19.038 22 21.5 20.465 21.5 18.571V16.429C21.5 18.322 19.038 19.857 16 19.857ZM9 8.857C12.038 8.857 14.5 7.322 14.5 5.429C14.5 3.536 12.038 2 9 2C5.962 2 3.5 3.535 3.5 5.429C3.5 7.323 5.962 8.857 9 8.857ZM8.875 12.857C9.35016 11.8628 10.1091 11.0315 11.056 10.468C10.3835 10.6354 9.693 10.7194 9 10.718C5.962 10.714 3.5 9.179 3.5 7.286V9.428C3.5 11.3 5.9 12.811 8.875 12.853V12.857ZM9 22C9.3607 21.9997 9.72104 21.9774 10.079 21.933C9.45068 21.3673 8.97882 20.6492 8.709 19.848C5.807 19.753 3.5 18.261 3.5 16.429V18.571C3.5 20.465 5.962 22 9 22ZM8.5 17.556V15.4C5.7 15.24 3.5 13.787 3.5 12V14.143C3.5 15.931 5.7 17.4 8.5 17.556Z" fill="#183357"/>
</svg>
