<svg width="24" height="24" viewBox="0 0 24 24" fill="none" xmlns="http://www.w3.org/2000/svg">
<path d="M20.5008 4.60773C19.9533 3.94533 19.2658 3.41259 18.4876 3.0479C17.7095 2.68322 16.8602 2.49565 16.0008 2.49873C14.5304 2.45421 13.0989 2.97492 12.0008 3.95373C10.9027 2.97492 9.47116 2.45421 8.0008 2.49873C7.14145 2.49565 6.29211 2.68322 5.51397 3.0479C4.73583 3.41259 4.04826 3.94533 3.5008 4.60773C2.5478 5.76373 1.5508 7.85673 2.2118 11.2677C3.2668 16.7147 11.1778 21.1847 11.5118 21.3677C11.6607 21.4507 11.8283 21.4943 11.9988 21.4943C12.1693 21.4943 12.3369 21.4507 12.4858 21.3677C12.8218 21.1807 20.7328 16.7107 21.7858 11.2677C22.4508 7.85673 21.4538 5.76373 20.5008 4.60773ZM19.8268 10.8877C19.0808 14.7387 13.6588 18.3207 12.0008 19.3387C9.6648 17.9287 4.8588 14.3887 4.1798 10.8877C3.6668 8.24173 4.3688 6.70473 5.0488 5.88073C5.40841 5.44684 5.85958 5.09791 6.36996 4.85898C6.88033 4.62004 7.43726 4.49702 8.0008 4.49873C8.60269 4.45359 9.20601 4.56519 9.75193 4.82264C10.2979 5.08009 10.7677 5.47461 11.1158 5.96773C11.2016 6.12566 11.3282 6.25769 11.4824 6.35005C11.6367 6.44241 11.8128 6.49172 11.9926 6.49284C12.1723 6.49396 12.3491 6.44686 12.5044 6.35644C12.6598 6.26601 12.788 6.13558 12.8758 5.97873C13.2232 5.48177 13.6941 5.08391 14.2421 4.82438C14.7901 4.56485 15.3962 4.45261 16.0008 4.49873C16.5655 4.49598 17.1238 4.61851 17.6355 4.85748C18.1471 5.09645 18.5994 5.44593 18.9598 5.88073C19.6378 6.70473 20.3398 8.24173 19.8268 10.8877Z" fill="#183357"/>
</svg>
