<svg width="30" height="31" viewBox="0 0 30 31" fill="none" xmlns="http://www.w3.org/2000/svg">
<path d="M22.2056 3.00003C21.5101 2.99782 20.8212 3.13382 20.1787 3.40012C19.5362 3.66642 18.9531 4.05771 18.4631 4.55128L3.94435 19.0688C3.75811 19.2553 3.63561 19.4959 3.59435 19.7563L2.5156 26.5538C2.4845 26.7488 2.50005 26.9484 2.56098 27.1363C2.6219 27.3241 2.72647 27.4949 2.86612 27.6345C3.00576 27.7742 3.1765 27.8787 3.36436 27.9396C3.55221 28.0006 3.75182 28.0161 3.94685 27.985L10.7506 26.9063C11.0109 26.865 11.2516 26.7425 11.4381 26.5563L25.9493 12.0375C26.6897 11.2966 27.1936 10.3527 27.3974 9.32529C27.6012 8.29789 27.4957 7.23313 27.0943 6.26569C26.6928 5.29825 26.0135 4.4716 25.1422 3.89031C24.2709 3.30901 23.2468 2.99919 22.1993 3.00003H22.2056ZM9.9506 24.5L5.2506 25.25L6.0006 20.5538L16.4881 10.065L20.4406 14.0175L9.9506 24.5ZM24.1818 10.27L22.2068 12.25L18.2506 8.29378L20.2268 6.31878C20.7591 5.81071 21.4666 5.52723 22.2025 5.52723C22.9383 5.52723 23.6458 5.81071 24.1781 6.31878C24.4377 6.57812 24.6437 6.88609 24.7842 7.22509C24.9247 7.56408 24.997 7.92744 24.997 8.2944C24.997 8.66136 24.9247 9.02473 24.7842 9.36372C24.6437 9.70271 24.4377 10.0107 24.1781 10.27H24.1818Z" fill="#5A8CD2"/>
</svg>
