<svg width="20" height="21" viewBox="0 0 20 21" fill="none" xmlns="http://www.w3.org/2000/svg">
<path d="M3.02072 12.9981C4.17467 14.1536 5.71136 14.8474 7.3413 14.9485C8.97125 15.0497 10.5819 14.5513 11.8699 13.5472L16.3016 17.9789C16.4587 18.1307 16.6692 18.2147 16.8877 18.2128C17.1062 18.2109 17.3152 18.1233 17.4697 17.9688C17.6242 17.8142 17.7119 17.6052 17.7138 17.3867C17.7157 17.1682 17.6317 16.9577 17.4799 16.8006L13.0482 12.3689C14.0968 11.0232 14.5926 9.3282 14.4344 7.62955C14.2762 5.9309 13.476 4.35657 12.197 3.22763C10.9179 2.09868 9.25642 1.50017 7.55127 1.55414C5.84613 1.60811 4.22579 2.3105 3.02072 3.51807C2.39805 4.14043 1.9041 4.87936 1.5671 5.69267C1.2301 6.50597 1.05664 7.37771 1.05664 8.25807C1.05664 9.13844 1.2301 10.0102 1.5671 10.8235C1.9041 11.6368 2.39805 12.3757 3.02072 12.9981ZM4.19905 4.69807C5.02286 3.87428 6.10682 3.36161 7.26624 3.2474C8.42566 3.1332 9.58882 3.42453 10.5575 4.07176C11.5262 4.71899 12.2406 5.68207 12.5788 6.79692C12.9171 7.91177 12.8583 9.10941 12.4125 10.1858C11.9668 11.2622 11.1616 12.1507 10.1342 12.7C9.10674 13.2493 7.92066 13.4253 6.77799 13.1982C5.63532 12.971 4.60676 12.3547 3.86755 11.4542C3.12834 10.5537 2.72423 9.42477 2.72405 8.25974C2.72177 7.59772 2.85097 6.94183 3.10418 6.33014C3.35738 5.71845 3.72954 5.16313 4.19905 4.69641V4.69807Z" fill="#183357"/>
</svg>
