<svg width="61" height="60" viewBox="0 0 61 60" fill="none" xmlns="http://www.w3.org/2000/svg">
<rect x="0.5" width="60" height="60" rx="30" fill="#3B7DD6"/>
<path d="M14.9993 25.7513C15.1575 25.9262 15.3244 26.0931 15.4993 26.2513V46.668C15.4993 47.11 15.6749 47.5339 15.9875 47.8465C16.3 48.159 16.724 48.3346 17.166 48.3346H43.8327C44.2747 48.3346 44.6986 48.159 45.0112 47.8465C45.3237 47.5339 45.4993 47.11 45.4993 46.668V26.2546C45.6742 26.0964 45.8411 25.9295 45.9993 25.7546C46.6298 24.9519 47.0675 24.0151 47.2788 23.0164C47.49 22.0178 47.4691 20.9839 47.2177 19.9946L45.4493 12.9313C45.3594 12.5706 45.1514 12.2503 44.8584 12.0214C44.5655 11.7925 44.2044 11.6681 43.8327 11.668H17.166C16.7942 11.6681 16.4332 11.7925 16.1402 12.0214C15.8473 12.2503 15.6393 12.5706 15.5493 12.9313L13.786 19.9913C13.5339 20.9802 13.5121 22.0138 13.7225 23.0125C13.9329 24.0111 14.3697 24.9481 14.9993 25.7513ZM32.166 45.0013H28.8327V36.668H32.166V45.0013ZM42.166 45.0013H35.4993V35.0013C35.4993 34.5593 35.3237 34.1353 35.0112 33.8228C34.6986 33.5102 34.2747 33.3346 33.8327 33.3346H27.166C26.724 33.3346 26.3 33.5102 25.9875 33.8228C25.6749 34.1353 25.4993 34.5593 25.4993 35.0013V45.0013H18.8327V28.168C20.0127 28.4374 21.2439 28.3795 22.3935 28.0006C23.5431 27.6217 24.5674 26.9362 25.356 26.018C25.3993 26.068 25.4443 26.1163 25.4893 26.1663C26.1375 26.8623 26.9242 27.4148 27.7989 27.7883C28.6735 28.1617 29.6167 28.3479 30.5677 28.3346C31.4963 28.3339 32.4146 28.141 33.2651 27.7681C34.1155 27.3952 34.8796 26.8504 35.5093 26.168C35.5543 26.118 35.5993 26.0696 35.6427 26.0196C36.4315 26.9376 37.4559 27.6228 38.6054 28.0014C39.755 28.38 40.9861 28.4376 42.166 28.168V45.0013ZM17.0177 20.7996L18.4677 15.0013H42.531L43.981 20.7996C44.1056 21.2983 44.115 21.8187 44.0083 22.3215C43.9016 22.8243 43.6817 23.2961 43.3654 23.7012C43.049 24.1062 42.6445 24.4339 42.1825 24.6591C41.7205 24.8844 41.2133 25.0014 40.6993 25.0013C39.8531 24.9959 39.0393 24.6753 38.4167 24.1021C37.7942 23.5289 37.4077 22.7442 37.3327 21.9013L37.2627 21.068C37.2219 20.6307 37.0101 20.2272 36.6735 19.9452C36.3369 19.6632 35.9025 19.5254 35.4649 19.5619C35.0272 19.5983 34.6216 19.8061 34.3363 20.1399C34.051 20.4737 33.9089 20.9067 33.941 21.3446C33.9814 21.81 33.9238 22.2788 33.772 22.7206C33.6201 23.1624 33.3773 23.5674 33.0593 23.9096C32.7248 24.269 32.3171 24.5525 31.8637 24.7408C31.4102 24.9291 30.9217 25.018 30.431 25.0013C29.9638 25.0012 29.5016 24.9044 29.0737 24.7168C28.6458 24.5292 28.2614 24.2549 27.9448 23.9114C27.6281 23.5678 27.3861 23.1623 27.234 22.7206C27.0819 22.2788 27.023 21.8103 27.061 21.3446C27.0974 20.9042 26.9574 20.4673 26.6717 20.13C26.3861 19.7928 25.9781 19.5828 25.5377 19.5463C25.3192 19.5258 25.0989 19.549 24.8895 19.6148C24.6802 19.6805 24.4861 19.7874 24.3186 19.9291C24.1511 20.0708 24.0136 20.2445 23.9141 20.4401C23.8147 20.6357 23.7552 20.8491 23.7393 21.068L23.6693 21.9013C23.5942 22.7448 23.2073 23.5299 22.584 24.1032C21.9608 24.6765 21.1461 24.9968 20.2993 25.0013C19.7854 25.0014 19.2781 24.8844 18.8162 24.6591C18.3542 24.4339 17.9497 24.1062 17.6333 23.7012C17.3169 23.2961 17.0971 22.8243 16.9904 22.3215C16.8837 21.8187 16.893 21.2983 17.0177 20.7996Z" fill="#F8FAFC"/>
</svg>
