<svg width="85" height="85" viewBox="0 0 85 85" fill="none" xmlns="http://www.w3.org/2000/svg">
<rect width="85" height="85" rx="42.5" fill="#ACC6EB"/>
<path d="M59.2419 23.0525C59.1025 22.7046 58.862 22.4065 58.5515 22.1966C58.241 21.9867 57.8748 21.8747 57.5 21.875H27.5C27.1252 21.8747 26.759 21.9867 26.4485 22.1966C26.138 22.4065 25.8975 22.7046 25.7581 23.0525L22.0081 32.4275C21.9203 32.6496 21.8751 32.8862 21.875 33.125V61.25C21.875 61.7473 22.0725 62.2242 22.4242 62.5758C22.7758 62.9275 23.2527 63.125 23.75 63.125H61.25C61.7473 63.125 62.2242 62.9275 62.5758 62.5758C62.9275 62.2242 63.125 61.7473 63.125 61.25V33.125C63.1249 32.8862 63.0797 32.6496 62.9919 32.4275L59.2419 23.0525ZM28.7694 25.625H56.2306L58.4806 31.25H26.5194L28.7694 25.625ZM25.625 59.375V35H59.375V59.375H25.625ZM40.625 53.75C40.625 54.2473 40.4275 54.7242 40.0758 55.0758C39.7242 55.4275 39.2473 55.625 38.75 55.625H31.25C30.7527 55.625 30.2758 55.4275 29.9242 55.0758C29.5725 54.7242 29.375 54.2473 29.375 53.75C29.375 53.2527 29.5725 52.7758 29.9242 52.4242C30.2758 52.0725 30.7527 51.875 31.25 51.875H38.75C39.2473 51.875 39.7242 52.0725 40.0758 52.4242C40.4275 52.7758 40.625 53.2527 40.625 53.75Z" fill="#2F5E9D"/>
</svg>
