<svg width="17" height="16" viewBox="0 0 17 16" fill="none" xmlns="http://www.w3.org/2000/svg">
<path d="M16.8327 8.83333V14.6667C16.8327 14.8877 16.7449 15.0996 16.5886 15.2559C16.4323 15.4122 16.2204 15.5 15.9993 15.5H0.999349C0.778335 15.5 0.566374 15.4122 0.410093 15.2559C0.253813 15.0996 0.166016 14.8877 0.166016 14.6667V8.83333C0.166016 8.61232 0.253813 8.40036 0.410093 8.24408C0.566374 8.0878 0.778335 8 0.999349 8C1.22036 8 1.43232 8.0878 1.5886 8.24408C1.74489 8.40036 1.83268 8.61232 1.83268 8.83333V13.8333H15.166V8.83333C15.166 8.61232 15.2538 8.40036 15.4101 8.24408C15.5664 8.0878 15.7783 8 15.9993 8C16.2204 8 16.4323 8.0878 16.5886 8.24408C16.7449 8.40036 16.8327 8.61232 16.8327 8.83333ZM8.49935 0.5C8.27834 0.5 8.06637 0.587797 7.91009 0.744078C7.75381 0.900358 7.66602 1.11232 7.66602 1.33333V4.66667H4.33268C4.11167 4.66667 3.89971 4.75446 3.74343 4.91074C3.58715 5.06702 3.49935 5.27899 3.49935 5.5C3.49935 5.72101 3.58715 5.93297 3.74343 6.08926C3.89971 6.24554 4.11167 6.33333 4.33268 6.33333H7.66602V9.66667C7.66602 9.88768 7.75381 10.0996 7.91009 10.2559C8.06637 10.4122 8.27834 10.5 8.49935 10.5C8.72036 10.5 8.93232 10.4122 9.0886 10.2559C9.24489 10.0996 9.33268 9.88768 9.33268 9.66667V6.33333H12.666C12.887 6.33333 13.099 6.24554 13.2553 6.08926C13.4116 5.93297 13.4993 5.72101 13.4993 5.5C13.4993 5.27899 13.4116 5.06702 13.2553 4.91074C13.099 4.75446 12.887 4.66667 12.666 4.66667H9.33268V1.33333C9.33268 1.11232 9.24489 0.900358 9.0886 0.744078C8.93232 0.587797 8.72036 0.5 8.49935 0.5Z" fill="#3B7DD6"/>
</svg>
