<svg width="85" height="85" viewBox="0 0 85 85" fill="none" xmlns="http://www.w3.org/2000/svg">
<rect width="85" height="85" rx="42.5" fill="#5A8CD2"/>
<path d="M29.375 61.25H55.625C57.1168 61.25 58.5476 60.6574 59.6025 59.6025C60.6574 58.5476 61.25 57.1168 61.25 55.625V29.375C61.25 27.8832 60.6574 26.4524 59.6025 25.3975C58.5476 24.3426 57.1168 23.75 55.625 23.75H29.375C27.8832 23.75 26.4524 24.3426 25.3975 25.3975C24.3426 26.4524 23.75 27.8832 23.75 29.375V55.625C23.75 57.1168 24.3426 58.5476 25.3975 59.6025C26.4524 60.6574 27.8832 61.25 29.375 61.25ZM27.5 29.375C27.5 28.8777 27.6975 28.4008 28.0492 28.0492C28.4008 27.6975 28.8777 27.5 29.375 27.5H55.625C56.1223 27.5 56.5992 27.6975 56.9508 28.0492C57.3025 28.4008 57.5 28.8777 57.5 29.375V55.625C57.5 56.1223 57.3025 56.5992 56.9508 56.9508C56.5992 57.3025 56.1223 57.5 55.625 57.5H29.375C28.8777 57.5 28.4008 57.3025 28.0492 56.9508C27.6975 56.5992 27.5 56.1223 27.5 55.625V29.375ZM36.875 53.75C37.3723 53.75 37.8492 53.5525 38.2008 53.2008C38.5525 52.8492 38.75 52.3723 38.75 51.875V46.25H42.5C44.4891 46.25 46.3968 45.4598 47.8033 44.0533C49.2098 42.6468 50 40.7391 50 38.75C50 36.7609 49.2098 34.8532 47.8033 33.4467C46.3968 32.0402 44.4891 31.25 42.5 31.25H36.875C36.3777 31.25 35.9008 31.4475 35.5492 31.7992C35.1975 32.1508 35 32.6277 35 33.125V51.875C35 52.3723 35.1975 52.8492 35.5492 53.2008C35.9008 53.5525 36.3777 53.75 36.875 53.75ZM38.75 35H42.5C43.4946 35 44.4484 35.3951 45.1516 36.0984C45.8549 36.8016 46.25 37.7554 46.25 38.75C46.25 39.7446 45.8549 40.6984 45.1516 41.4016C44.4484 42.1049 43.4946 42.5 42.5 42.5H38.75V35Z" fill="#183357"/>
</svg>
