<svg width="20" height="16" viewBox="0 0 20 16" fill="none" xmlns="http://www.w3.org/2000/svg">
<path d="M18.334 2.16667H15.2873L14.9656 1.09417C14.9142 0.922431 14.8087 0.771867 14.6649 0.664829C14.5211 0.557791 14.3466 0.499988 14.1673 0.5H6.33398C6.15471 0.499988 5.9802 0.557791 5.83639 0.664829C5.69257 0.771867 5.5871 0.922431 5.53565 1.09417L5.21398 2.16667H1.66732C1.4463 2.16667 1.23434 2.25446 1.07806 2.41074C0.921782 2.56702 0.833984 2.77899 0.833984 3V14.6667C0.833984 14.8877 0.921782 15.0996 1.07806 15.2559C1.23434 15.4122 1.4463 15.5 1.66732 15.5H18.334C18.555 15.5 18.767 15.4122 18.9232 15.2559C19.0795 15.0996 19.1673 14.8877 19.1673 14.6667V3C19.1673 2.77899 19.0795 2.56702 18.9232 2.41074C18.767 2.25446 18.555 2.16667 18.334 2.16667ZM17.5006 13.8333H2.50065V3.83333H5.83398C6.01326 3.83335 6.18776 3.77554 6.33158 3.6685C6.4754 3.56147 6.58086 3.4109 6.63232 3.23917L6.95398 2.16667H13.5473L13.869 3.23917C13.9204 3.4109 14.0259 3.56147 14.1697 3.6685C14.3135 3.77554 14.488 3.83335 14.6673 3.83333H17.5006V13.8333ZM10.0007 3.83333C9.17656 3.83333 8.37098 4.0777 7.68577 4.53554C7.00057 4.99338 6.46652 5.64413 6.15115 6.40549C5.83579 7.16684 5.75327 8.00462 5.91405 8.81288C6.07482 9.62113 6.47165 10.3636 7.05437 10.9463C7.63709 11.529 8.37952 11.9258 9.18777 12.0866C9.99603 12.2474 10.8338 12.1649 11.5952 11.8495C12.3565 11.5341 13.0073 11.0001 13.4651 10.3149C13.9229 9.62967 14.1673 8.82409 14.1673 8C14.166 6.89534 13.7266 5.8363 12.9455 5.05518C12.1644 4.27407 11.1053 3.83466 10.0007 3.83333ZM10.0007 10.5C9.5062 10.5 9.02285 10.3534 8.61172 10.0787C8.2006 9.80397 7.88017 9.41352 7.69095 8.95671C7.50173 8.49989 7.45222 7.99723 7.54869 7.51227C7.64515 7.02732 7.88325 6.58186 8.23288 6.23223C8.58251 5.8826 9.02797 5.6445 9.51292 5.54804C9.99788 5.45157 10.5005 5.50108 10.9574 5.6903C11.4142 5.87952 11.8046 6.19995 12.0793 6.61107C12.354 7.0222 12.5006 7.50555 12.5007 8C12.5006 8.66304 12.2373 9.29893 11.7684 9.76777C11.2996 10.2366 10.6637 10.5 10.0007 10.5Z" fill="#3B7DD6"/>
<path d="M18.334 2.16667H15.2873L14.9656 1.09417C14.9142 0.922431 14.8087 0.771867 14.6649 0.664829C14.5211 0.557791 14.3466 0.499988 14.1673 0.5H6.33398C6.15471 0.499988 5.9802 0.557791 5.83639 0.664829C5.69257 0.771867 5.5871 0.922431 5.53565 1.09417L5.21398 2.16667H1.66732C1.4463 2.16667 1.23434 2.25446 1.07806 2.41074C0.921782 2.56702 0.833984 2.77899 0.833984 3V14.6667C0.833984 14.8877 0.921782 15.0996 1.07806 15.2559C1.23434 15.4122 1.4463 15.5 1.66732 15.5H18.334C18.555 15.5 18.767 15.4122 18.9232 15.2559C19.0795 15.0996 19.1673 14.8877 19.1673 14.6667V3C19.1673 2.77899 19.0795 2.56702 18.9232 2.41074C18.767 2.25446 18.555 2.16667 18.334 2.16667ZM17.5006 13.8333H2.50065V3.83333H5.83398C6.01326 3.83335 6.18776 3.77554 6.33158 3.6685C6.4754 3.56147 6.58086 3.4109 6.63232 3.23917L6.95398 2.16667H13.5473L13.869 3.23917C13.9204 3.4109 14.0259 3.56147 14.1697 3.6685C14.3135 3.77554 14.488 3.83335 14.6673 3.83333H17.5006V13.8333ZM10.0007 3.83333C9.17656 3.83333 8.37098 4.0777 7.68577 4.53554C7.00057 4.99338 6.46652 5.64413 6.15115 6.40549C5.83579 7.16684 5.75327 8.00462 5.91405 8.81288C6.07482 9.62113 6.47165 10.3636 7.05437 10.9463C7.63709 11.529 8.37952 11.9258 9.18777 12.0866C9.99603 12.2474 10.8338 12.1649 11.5952 11.8495C12.3565 11.5341 13.0073 11.0001 13.4651 10.3149C13.9229 9.62967 14.1673 8.82409 14.1673 8C14.166 6.89534 13.7266 5.8363 12.9455 5.05518C12.1644 4.27407 11.1053 3.83466 10.0007 3.83333ZM10.0007 10.5C9.5062 10.5 9.02285 10.3534 8.61172 10.0787C8.2006 9.80397 7.88017 9.41352 7.69095 8.95671C7.50173 8.49989 7.45222 7.99723 7.54869 7.51227C7.64515 7.02732 7.88325 6.58186 8.23288 6.23223C8.58251 5.8826 9.02797 5.6445 9.51292 5.54804C9.99788 5.45157 10.5005 5.50108 10.9574 5.6903C11.4142 5.87952 11.8046 6.19995 12.0793 6.61107C12.354 7.0222 12.5006 7.50555 12.5007 8C12.5006 8.66304 12.2373 9.29893 11.7684 9.76777C11.2996 10.2366 10.6637 10.5 10.0007 10.5Z" fill="black" fill-opacity="0.2"/>
</svg>
