<svg width="85" height="85" viewBox="0 0 85 85" fill="none" xmlns="http://www.w3.org/2000/svg">
<rect width="85" height="85" rx="42.5" fill="#5A8CD2"/>
<path d="M42.5015 23.75C39.6313 23.7482 36.799 24.4052 34.2228 25.6707C31.6466 26.9361 29.3953 28.776 27.6423 31.0487C25.8894 33.3215 24.6817 35.9663 24.1121 38.7794C23.5426 41.5925 23.6265 44.4989 24.3573 47.2744C25.0882 50.05 26.4465 52.6208 28.3276 54.7886C30.2087 56.9564 32.5624 58.6635 35.2073 59.7782C37.8521 60.8929 40.7176 61.3855 43.583 61.2181C46.4483 61.0507 49.2369 60.2277 51.734 58.8125L58.784 61.1619C58.9756 61.2224 59.1756 61.2521 59.3765 61.25C59.6734 61.2498 59.966 61.1791 60.2303 61.0436C60.4945 60.9082 60.7228 60.7119 60.8964 60.471C61.07 60.23 61.1838 59.9513 61.2286 59.6578C61.2734 59.3642 61.2478 59.0643 61.154 58.7825L58.814 51.7325C60.4346 48.8815 61.2783 45.655 61.2604 42.3756C61.2426 39.0962 60.3639 35.879 58.7123 33.0458C57.0607 30.2127 54.694 27.8629 51.8492 26.2315C49.0043 24.6002 45.7809 23.7445 42.5015 23.75ZM54.9758 52.1019L56.4121 56.4144L52.0996 54.9782C51.8365 54.8884 51.5566 54.8587 51.2805 54.8911C51.0044 54.9236 50.7391 55.0174 50.504 55.1657C47.3768 57.1448 43.6295 57.9012 39.9795 57.2901C36.3294 56.6791 33.0329 54.7435 30.7207 51.8538C28.4086 48.9641 27.2433 45.3232 27.4478 41.628C27.6523 37.9328 29.2123 34.4428 31.8292 31.8259C34.4461 29.209 37.9361 27.649 41.6313 27.4445C45.3265 27.24 48.9674 28.4053 51.8571 30.7174C54.7468 33.0296 56.6824 36.3261 57.2934 39.9762C57.9045 43.6262 57.1481 47.3734 55.169 50.5007C55.0197 50.7364 54.9248 51.0024 54.8914 51.2795C54.858 51.5565 54.8869 51.8374 54.9758 52.1019ZM51.8765 37.8125C51.8765 38.3098 51.6789 38.7867 51.3273 39.1384C50.9757 39.49 50.4988 39.6875 50.0015 39.6875H35.0015C34.5042 39.6875 34.0273 39.49 33.6756 39.1384C33.324 38.7867 33.1265 38.3098 33.1265 37.8125C33.1265 37.3152 33.324 36.8383 33.6756 36.4867C34.0273 36.1351 34.5042 35.9375 35.0015 35.9375H50.0015C50.4988 35.9375 50.9757 36.1351 51.3273 36.4867C51.6789 36.8383 51.8765 37.3152 51.8765 37.8125ZM44.3765 47.1875C44.3765 47.6848 44.1789 48.1617 43.8273 48.5134C43.4757 48.865 42.9988 49.0625 42.5015 49.0625H35.0015C34.5042 49.0625 34.0273 48.865 33.6756 48.5134C33.324 48.1617 33.1265 47.6848 33.1265 47.1875C33.1265 46.6902 33.324 46.2133 33.6756 45.8617C34.0273 45.5101 34.5042 45.3125 35.0015 45.3125H42.5015C42.9988 45.3125 43.4757 45.5101 43.8273 45.8617C44.1789 46.2133 44.3765 46.6902 44.3765 47.1875Z" fill="#183357"/>
</svg>
