<svg width="45" height="45" viewBox="0 0 45 45" fill="none" xmlns="http://www.w3.org/2000/svg">
<g id="interface/layer">
<path id="Vector" d="M6.77813 11.73L21.7781 17.9794C22.0065 18.076 22.252 18.1257 22.5 18.1257C22.748 18.1257 22.9935 18.076 23.2219 17.9794L38.2219 11.73C38.5629 11.5873 38.8542 11.347 39.059 11.0393C39.2638 10.7315 39.3731 10.3701 39.3731 10.0004C39.3731 9.63066 39.2638 9.26922 39.059 8.96146C38.8542 8.65371 38.5629 8.41337 38.2219 8.27067L23.2219 2.01942C22.7596 1.82816 22.2404 1.82816 21.7781 2.01942L6.77813 8.27067C6.43709 8.41337 6.14584 8.65371 5.941 8.96146C5.73616 9.26922 5.62687 9.63066 5.62687 10.0004C5.62687 10.3701 5.73616 10.7315 5.941 11.0393C6.14584 11.347 6.43709 11.5873 6.77813 11.73ZM22.5 5.78067L32.625 9.99942L22.5 14.2182L12.375 9.99942L22.5 5.78067ZM38.2219 20.0625L23.2219 26.3119C22.9932 26.4073 22.7478 26.4565 22.5 26.4565C22.2522 26.4565 22.0068 26.4073 21.7781 26.3119L6.77813 20.0625C6.55086 19.9677 6.34449 19.8291 6.1708 19.6546C5.9971 19.48 5.85949 19.2729 5.76582 19.0452C5.67215 18.8175 5.62425 18.5735 5.62486 18.3273C5.62547 18.081 5.67458 17.8373 5.76938 17.61C5.86418 17.3828 6.00281 17.1764 6.17736 17.0027C6.35192 16.829 6.55897 16.6914 6.78671 16.5977C7.01444 16.5041 7.2584 16.4562 7.50465 16.4568C7.75089 16.4574 7.99461 16.5065 8.22188 16.6013L22.5 22.5525L36.7781 16.6032C37.2371 16.4117 37.7534 16.4104 38.2133 16.5996C38.6732 16.7888 39.0392 17.1529 39.2306 17.6119C39.4221 18.0709 39.4234 18.5872 39.2342 19.0471C39.045 19.507 38.6809 19.873 38.2219 20.0644V20.0625ZM38.2219 28.395L23.2219 34.6463C22.9932 34.7417 22.7478 34.7908 22.5 34.7908C22.2522 34.7908 22.0068 34.7417 21.7781 34.6463L6.77813 28.395C6.55086 28.3002 6.34449 28.1616 6.1708 27.9871C5.9971 27.8125 5.85949 27.6054 5.76582 27.3777C5.67215 27.15 5.62425 26.906 5.62486 26.6598C5.62547 26.4135 5.67458 26.1698 5.76938 25.9425C5.86418 25.7153 6.00281 25.5089 6.17736 25.3352C6.35192 25.1615 6.55897 25.0239 6.78671 24.9302C7.01444 24.8366 7.2584 24.7887 7.50465 24.7893C7.75089 24.7899 7.99461 24.839 8.22188 24.9338L22.5 30.885L36.7781 24.9375C37.2371 24.7461 37.7534 24.7448 38.2133 24.934C38.6732 25.1232 39.0392 25.4873 39.2306 25.9463C39.4221 26.4053 39.4234 26.9215 39.2342 27.3815C39.045 27.8414 38.6809 28.2073 38.2219 28.3988V28.395ZM39.2306 34.2769C39.4215 34.7357 39.4225 35.2515 39.2334 35.711C39.0442 36.1705 38.6804 36.5361 38.2219 36.7275L23.2219 42.9788C22.9932 43.0742 22.7478 43.1233 22.5 43.1233C22.2522 43.1233 22.0068 43.0742 21.7781 42.9788L6.77813 36.7275C6.54427 36.6375 6.33084 36.5014 6.15045 36.3275C5.97007 36.1535 5.82638 35.9452 5.72789 35.7147C5.62941 35.4843 5.57811 35.2364 5.57704 34.9858C5.57598 34.7352 5.62515 34.487 5.72167 34.2557C5.81819 34.0244 5.9601 33.8148 6.13899 33.6393C6.31789 33.4638 6.53015 33.326 6.76323 33.2339C6.99632 33.1419 7.24549 33.0975 7.49602 33.1034C7.74656 33.1092 7.99337 33.1653 8.22188 33.2682L22.5 39.2194L36.7781 33.27C37.0054 33.1752 37.2491 33.1261 37.4954 33.1255C37.7416 33.1249 37.9856 33.1728 38.2133 33.2664C38.4411 33.3601 38.6481 33.4977 38.8227 33.6714C38.9972 33.8451 39.1358 34.0515 39.2306 34.2788V34.2769Z" fill="#3B7DD6"/>
</g>
</svg>
