<svg width="45" height="45" viewBox="0 0 45 45" fill="none" xmlns="http://www.w3.org/2000/svg">
<g id="transportation/train">
<g id="Vector">
<path d="M1.875 15V11.25C1.875 10.7527 2.07254 10.2758 2.42417 9.92418C2.77581 9.57255 3.25272 9.375 3.75 9.375C4.24728 9.375 4.72419 9.57255 5.07583 9.92418C5.42746 10.2758 5.625 10.7527 5.625 11.25V15C5.625 15.4973 5.42746 15.9742 5.07583 16.3258C4.72419 16.6775 4.24728 16.875 3.75 16.875C3.25272 16.875 2.77581 16.6775 2.42417 16.3258C2.07254 15.9742 1.875 15.4973 1.875 15ZM41.25 9.375C40.7527 9.375 40.2758 9.57255 39.9242 9.92418C39.5725 10.2758 39.375 10.7527 39.375 11.25V15C39.375 15.4973 39.5725 15.9742 39.9242 16.3258C40.2758 16.6775 40.7527 16.875 41.25 16.875C41.7473 16.875 42.2242 16.6775 42.5758 16.3258C42.9275 15.9742 43.125 15.4973 43.125 15V11.25C43.125 10.7527 42.9275 10.2758 42.5758 9.92418C42.2242 9.57255 41.7473 9.375 41.25 9.375ZM42.5756 39.9244C42.9172 40.278 43.1062 40.7516 43.1019 41.2433C43.0976 41.7349 42.9004 42.2051 42.5528 42.5528C42.2051 42.9004 41.7349 43.0976 41.2433 43.1019C40.7516 43.1062 40.278 42.9172 39.9244 42.5756L36.7238 39.375H8.27625L5.07562 42.5756C4.722 42.9172 4.24837 43.1062 3.75675 43.1019C3.26513 43.0976 2.79486 42.9004 2.44722 42.5528C2.09957 42.2051 1.90238 41.7349 1.89811 41.2433C1.89384 40.7516 2.08283 40.278 2.42437 39.9244L6.17438 36.1744L9.75 32.5969C9.05358 32.0773 8.4877 31.4027 8.09717 30.6265C7.70663 29.8503 7.50218 28.9939 7.5 28.125V7.5C7.5 6.00816 8.09263 4.57742 9.14752 3.52252C10.2024 2.46763 11.6332 1.875 13.125 1.875H31.875C33.3668 1.875 34.7976 2.46763 35.8525 3.52252C36.9074 4.57742 37.5 6.00816 37.5 7.5V28.125C37.4978 28.9939 37.2934 29.8503 36.9028 30.6265C36.5123 31.4027 35.9464 32.0773 35.25 32.5969L38.8256 36.1725L42.5756 39.9244ZM32.9738 35.625L31.0988 33.75H13.9012L12.0262 35.625H32.9738ZM33.75 26.25H11.25V28.125C11.25 28.6223 11.4475 29.0992 11.7992 29.4508C12.1508 29.8025 12.6277 30 13.125 30H31.875C32.3723 30 32.8492 29.8025 33.2008 29.4508C33.5525 29.0992 33.75 28.6223 33.75 28.125V26.25ZM33.75 13.125H11.25V22.5H33.75V13.125ZM33.75 7.5C33.75 7.00272 33.5525 6.52581 33.2008 6.17417C32.8492 5.82254 32.3723 5.625 31.875 5.625H13.125C12.6277 5.625 12.1508 5.82254 11.7992 6.17417C11.4475 6.52581 11.25 7.00272 11.25 7.5V9.375H33.75V7.5Z" fill="#3B7DD6"/>
<path d="M1.875 15V11.25C1.875 10.7527 2.07254 10.2758 2.42417 9.92418C2.77581 9.57255 3.25272 9.375 3.75 9.375C4.24728 9.375 4.72419 9.57255 5.07583 9.92418C5.42746 10.2758 5.625 10.7527 5.625 11.25V15C5.625 15.4973 5.42746 15.9742 5.07583 16.3258C4.72419 16.6775 4.24728 16.875 3.75 16.875C3.25272 16.875 2.77581 16.6775 2.42417 16.3258C2.07254 15.9742 1.875 15.4973 1.875 15ZM41.25 9.375C40.7527 9.375 40.2758 9.57255 39.9242 9.92418C39.5725 10.2758 39.375 10.7527 39.375 11.25V15C39.375 15.4973 39.5725 15.9742 39.9242 16.3258C40.2758 16.6775 40.7527 16.875 41.25 16.875C41.7473 16.875 42.2242 16.6775 42.5758 16.3258C42.9275 15.9742 43.125 15.4973 43.125 15V11.25C43.125 10.7527 42.9275 10.2758 42.5758 9.92418C42.2242 9.57255 41.7473 9.375 41.25 9.375ZM42.5756 39.9244C42.9172 40.278 43.1062 40.7516 43.1019 41.2433C43.0976 41.7349 42.9004 42.2051 42.5528 42.5528C42.2051 42.9004 41.7349 43.0976 41.2433 43.1019C40.7516 43.1062 40.278 42.9172 39.9244 42.5756L36.7238 39.375H8.27625L5.07562 42.5756C4.722 42.9172 4.24837 43.1062 3.75675 43.1019C3.26513 43.0976 2.79486 42.9004 2.44722 42.5528C2.09957 42.2051 1.90238 41.7349 1.89811 41.2433C1.89384 40.7516 2.08283 40.278 2.42437 39.9244L6.17438 36.1744L9.75 32.5969C9.05358 32.0773 8.4877 31.4027 8.09717 30.6265C7.70663 29.8503 7.50218 28.9939 7.5 28.125V7.5C7.5 6.00816 8.09263 4.57742 9.14752 3.52252C10.2024 2.46763 11.6332 1.875 13.125 1.875H31.875C33.3668 1.875 34.7976 2.46763 35.8525 3.52252C36.9074 4.57742 37.5 6.00816 37.5 7.5V28.125C37.4978 28.9939 37.2934 29.8503 36.9028 30.6265C36.5123 31.4027 35.9464 32.0773 35.25 32.5969L38.8256 36.1725L42.5756 39.9244ZM32.9738 35.625L31.0988 33.75H13.9012L12.0262 35.625H32.9738ZM33.75 26.25H11.25V28.125C11.25 28.6223 11.4475 29.0992 11.7992 29.4508C12.1508 29.8025 12.6277 30 13.125 30H31.875C32.3723 30 32.8492 29.8025 33.2008 29.4508C33.5525 29.0992 33.75 28.6223 33.75 28.125V26.25ZM33.75 13.125H11.25V22.5H33.75V13.125ZM33.75 7.5C33.75 7.00272 33.5525 6.52581 33.2008 6.17417C32.8492 5.82254 32.3723 5.625 31.875 5.625H13.125C12.6277 5.625 12.1508 5.82254 11.7992 6.17417C11.4475 6.52581 11.25 7.00272 11.25 7.5V9.375H33.75V7.5Z" fill="black" fill-opacity="0.2"/>
</g>
</g>
</svg>
