<svg width="45" height="45" viewBox="0 0 45 45" fill="none" xmlns="http://www.w3.org/2000/svg">
<g id="business and finance/money">
<g id="Vector">
<path d="M41.25 7.5H3.75C3.25272 7.5 2.77581 7.69754 2.42417 8.04918C2.07254 8.40081 1.875 8.87772 1.875 9.375V35.625C1.875 36.1223 2.07254 36.5992 2.42417 36.9508C2.77581 37.3025 3.25272 37.5 3.75 37.5H41.25C41.7473 37.5 42.2242 37.3025 42.5758 36.9508C42.9275 36.5992 43.125 36.1223 43.125 35.625V9.375C43.125 8.87772 42.9275 8.40081 42.5758 8.04918C42.2242 7.69754 41.7473 7.5 41.25 7.5ZM39.375 30.345C38.5899 30.6236 37.8769 31.0738 37.2879 31.6629C36.6988 32.2519 36.2486 32.9649 35.97 33.75H9.03C8.7514 32.9649 8.30117 32.2519 7.71213 31.6629C7.12309 31.0738 6.41006 30.6236 5.625 30.345V14.655C6.41006 14.3764 7.12309 13.9262 7.71213 13.3371C8.30117 12.7481 8.7514 12.0351 9.03 11.25H35.97C36.2486 12.0351 36.6988 12.7481 37.2879 13.3371C37.8769 13.9262 38.5899 14.3764 39.375 14.655V30.345ZM22.5 15C21.0166 15 19.5666 15.4399 18.3332 16.264C17.0999 17.0881 16.1386 18.2594 15.5709 19.6299C15.0032 21.0003 14.8547 22.5083 15.1441 23.9632C15.4335 25.418 16.1478 26.7544 17.1967 27.8033C18.2456 28.8522 19.582 29.5665 21.0368 29.8559C22.4917 30.1453 23.9997 29.9968 25.3701 29.4291C26.7406 28.8614 27.9119 27.9001 28.736 26.6668C29.5601 25.4334 30 23.9834 30 22.5C30 20.5109 29.2098 18.6032 27.8033 17.1967C26.3968 15.7902 24.4891 15 22.5 15ZM22.5 26.25C21.7583 26.25 21.0333 26.0301 20.4166 25.618C19.7999 25.206 19.3193 24.6203 19.0355 23.9351C18.7516 23.2498 18.6774 22.4958 18.8221 21.7684C18.9667 21.041 19.3239 20.3728 19.8484 19.8484C20.3728 19.3239 21.041 18.9667 21.7684 18.8221C22.4958 18.6774 23.2498 18.7516 23.9351 19.0355C24.6203 19.3193 25.206 19.7999 25.618 20.4166C26.0301 21.0333 26.25 21.7583 26.25 22.5C26.25 23.4946 25.8549 24.4484 25.1516 25.1516C24.4484 25.8549 23.4946 26.25 22.5 26.25ZM13.125 22.5C13.125 22.9973 12.9275 23.4742 12.5758 23.8258C12.2242 24.1775 11.7473 24.375 11.25 24.375H9.375C8.87772 24.375 8.40081 24.1775 8.04918 23.8258C7.69754 23.4742 7.5 22.9973 7.5 22.5C7.5 22.0027 7.69754 21.5258 8.04918 21.1742C8.40081 20.8225 8.87772 20.625 9.375 20.625H11.25C11.7473 20.625 12.2242 20.8225 12.5758 21.1742C12.9275 21.5258 13.125 22.0027 13.125 22.5ZM37.5 22.5C37.5 22.9973 37.3025 23.4742 36.9508 23.8258C36.5992 24.1775 36.1223 24.375 35.625 24.375H33.75C33.2527 24.375 32.7758 24.1775 32.4242 23.8258C32.0725 23.4742 31.875 22.9973 31.875 22.5C31.875 22.0027 32.0725 21.5258 32.4242 21.1742C32.7758 20.8225 33.2527 20.625 33.75 20.625H35.625C36.1223 20.625 36.5992 20.8225 36.9508 21.1742C37.3025 21.5258 37.5 22.0027 37.5 22.5Z" fill="#3B7DD6"/>
<path d="M41.25 7.5H3.75C3.25272 7.5 2.77581 7.69754 2.42417 8.04918C2.07254 8.40081 1.875 8.87772 1.875 9.375V35.625C1.875 36.1223 2.07254 36.5992 2.42417 36.9508C2.77581 37.3025 3.25272 37.5 3.75 37.5H41.25C41.7473 37.5 42.2242 37.3025 42.5758 36.9508C42.9275 36.5992 43.125 36.1223 43.125 35.625V9.375C43.125 8.87772 42.9275 8.40081 42.5758 8.04918C42.2242 7.69754 41.7473 7.5 41.25 7.5ZM39.375 30.345C38.5899 30.6236 37.8769 31.0738 37.2879 31.6629C36.6988 32.2519 36.2486 32.9649 35.97 33.75H9.03C8.7514 32.9649 8.30117 32.2519 7.71213 31.6629C7.12309 31.0738 6.41006 30.6236 5.625 30.345V14.655C6.41006 14.3764 7.12309 13.9262 7.71213 13.3371C8.30117 12.7481 8.7514 12.0351 9.03 11.25H35.97C36.2486 12.0351 36.6988 12.7481 37.2879 13.3371C37.8769 13.9262 38.5899 14.3764 39.375 14.655V30.345ZM22.5 15C21.0166 15 19.5666 15.4399 18.3332 16.264C17.0999 17.0881 16.1386 18.2594 15.5709 19.6299C15.0032 21.0003 14.8547 22.5083 15.1441 23.9632C15.4335 25.418 16.1478 26.7544 17.1967 27.8033C18.2456 28.8522 19.582 29.5665 21.0368 29.8559C22.4917 30.1453 23.9997 29.9968 25.3701 29.4291C26.7406 28.8614 27.9119 27.9001 28.736 26.6668C29.5601 25.4334 30 23.9834 30 22.5C30 20.5109 29.2098 18.6032 27.8033 17.1967C26.3968 15.7902 24.4891 15 22.5 15ZM22.5 26.25C21.7583 26.25 21.0333 26.0301 20.4166 25.618C19.7999 25.206 19.3193 24.6203 19.0355 23.9351C18.7516 23.2498 18.6774 22.4958 18.8221 21.7684C18.9667 21.041 19.3239 20.3728 19.8484 19.8484C20.3728 19.3239 21.041 18.9667 21.7684 18.8221C22.4958 18.6774 23.2498 18.7516 23.9351 19.0355C24.6203 19.3193 25.206 19.7999 25.618 20.4166C26.0301 21.0333 26.25 21.7583 26.25 22.5C26.25 23.4946 25.8549 24.4484 25.1516 25.1516C24.4484 25.8549 23.4946 26.25 22.5 26.25ZM13.125 22.5C13.125 22.9973 12.9275 23.4742 12.5758 23.8258C12.2242 24.1775 11.7473 24.375 11.25 24.375H9.375C8.87772 24.375 8.40081 24.1775 8.04918 23.8258C7.69754 23.4742 7.5 22.9973 7.5 22.5C7.5 22.0027 7.69754 21.5258 8.04918 21.1742C8.40081 20.8225 8.87772 20.625 9.375 20.625H11.25C11.7473 20.625 12.2242 20.8225 12.5758 21.1742C12.9275 21.5258 13.125 22.0027 13.125 22.5ZM37.5 22.5C37.5 22.9973 37.3025 23.4742 36.9508 23.8258C36.5992 24.1775 36.1223 24.375 35.625 24.375H33.75C33.2527 24.375 32.7758 24.1775 32.4242 23.8258C32.0725 23.4742 31.875 22.9973 31.875 22.5C31.875 22.0027 32.0725 21.5258 32.4242 21.1742C32.7758 20.8225 33.2527 20.625 33.75 20.625H35.625C36.1223 20.625 36.5992 20.8225 36.9508 21.1742C37.3025 21.5258 37.5 22.0027 37.5 22.5Z" fill="black" fill-opacity="0.2"/>
</g>
</g>
</svg>
