<svg width="45" height="45" viewBox="0 0 45 45" fill="none" xmlns="http://www.w3.org/2000/svg">
<g id="transportation/car-front">
<g id="Vector">
<path d="M9.375 34.6875V35.625C9.375 36.3709 9.67132 37.0863 10.1988 37.6137C10.7262 38.1412 11.4416 38.4375 12.1875 38.4375C12.9334 38.4375 13.6488 38.1412 14.1762 37.6137C14.7037 37.0863 15 36.3709 15 35.625V34.6875H30V35.625C30 36.3709 30.2963 37.0863 30.8238 37.6137C31.3512 38.1412 32.0666 38.4375 32.8125 38.4375C33.5584 38.4375 34.2738 38.1412 34.8012 37.6137C35.3287 37.0863 35.625 36.3709 35.625 35.625V34.6875C37.1168 34.6875 38.5476 34.0949 39.6025 33.04C40.6574 31.9851 41.25 30.5543 41.25 29.0625V25.3125C41.2461 24.0901 40.8434 22.9024 40.1029 21.9298C39.3625 20.9572 38.3248 20.2528 37.1475 19.9238L33.6937 6.10687C33.5922 5.70141 33.358 5.34152 33.0285 5.08435C32.699 4.82719 32.293 4.68751 31.875 4.6875H13.125C12.707 4.68751 12.301 4.82719 11.9715 5.08435C11.642 5.34152 11.4078 5.70141 11.3063 6.10687L7.8525 19.9238C6.67523 20.2528 5.63754 20.9572 4.89708 21.9298C4.15663 22.9024 3.75387 24.0901 3.75 25.3125V29.0625C3.75 30.5543 4.34263 31.9851 5.39752 33.04C6.45242 34.0949 7.88316 34.6875 9.375 34.6875ZM14.5894 8.4375H30.4106L33.2231 19.6875H11.7769L14.5894 8.4375ZM7.5 25.3125C7.5 24.8152 7.69754 24.3383 8.04918 23.9867C8.40081 23.635 8.87772 23.4375 9.375 23.4375H35.625C36.1223 23.4375 36.5992 23.635 36.9508 23.9867C37.3025 24.3383 37.5 24.8152 37.5 25.3125V29.0625C37.5 29.5598 37.3025 30.0367 36.9508 30.3883C36.5992 30.74 36.1223 30.9375 35.625 30.9375H9.375C8.87772 30.9375 8.40081 30.74 8.04918 30.3883C7.69754 30.0367 7.5 29.5598 7.5 29.0625V25.3125ZM9.375 27.1875C9.375 26.8167 9.48497 26.4541 9.69099 26.1458C9.89702 25.8375 10.1899 25.5971 10.5325 25.4552C10.8751 25.3133 11.2521 25.2762 11.6158 25.3485C11.9795 25.4209 12.3136 25.5995 12.5758 25.8617C12.838 26.1239 13.0166 26.458 13.089 26.8217C13.1613 27.1854 13.1242 27.5624 12.9823 27.905C12.8404 28.2476 12.6 28.5405 12.2917 28.7465C11.9834 28.9525 11.6208 29.0625 11.25 29.0625C10.7527 29.0625 10.2758 28.865 9.92418 28.5133C9.57254 28.1617 9.375 27.6848 9.375 27.1875ZM31.875 27.1875C31.875 26.8167 31.985 26.4541 32.191 26.1458C32.397 25.8375 32.6899 25.5971 33.0325 25.4552C33.3751 25.3133 33.7521 25.2762 34.1158 25.3485C34.4795 25.4209 34.8136 25.5995 35.0758 25.8617C35.3381 26.1239 35.5166 26.458 35.589 26.8217C35.6613 27.1854 35.6242 27.5624 35.4823 27.905C35.3404 28.2476 35.1 28.5405 34.7917 28.7465C34.4834 28.9525 34.1208 29.0625 33.75 29.0625C33.2527 29.0625 32.7758 28.865 32.4242 28.5133C32.0725 28.1617 31.875 27.6848 31.875 27.1875Z" fill="#3B7DD6"/>
<path d="M9.375 34.6875V35.625C9.375 36.3709 9.67132 37.0863 10.1988 37.6137C10.7262 38.1412 11.4416 38.4375 12.1875 38.4375C12.9334 38.4375 13.6488 38.1412 14.1762 37.6137C14.7037 37.0863 15 36.3709 15 35.625V34.6875H30V35.625C30 36.3709 30.2963 37.0863 30.8238 37.6137C31.3512 38.1412 32.0666 38.4375 32.8125 38.4375C33.5584 38.4375 34.2738 38.1412 34.8012 37.6137C35.3287 37.0863 35.625 36.3709 35.625 35.625V34.6875C37.1168 34.6875 38.5476 34.0949 39.6025 33.04C40.6574 31.9851 41.25 30.5543 41.25 29.0625V25.3125C41.2461 24.0901 40.8434 22.9024 40.1029 21.9298C39.3625 20.9572 38.3248 20.2528 37.1475 19.9238L33.6937 6.10687C33.5922 5.70141 33.358 5.34152 33.0285 5.08435C32.699 4.82719 32.293 4.68751 31.875 4.6875H13.125C12.707 4.68751 12.301 4.82719 11.9715 5.08435C11.642 5.34152 11.4078 5.70141 11.3063 6.10687L7.8525 19.9238C6.67523 20.2528 5.63754 20.9572 4.89708 21.9298C4.15663 22.9024 3.75387 24.0901 3.75 25.3125V29.0625C3.75 30.5543 4.34263 31.9851 5.39752 33.04C6.45242 34.0949 7.88316 34.6875 9.375 34.6875ZM14.5894 8.4375H30.4106L33.2231 19.6875H11.7769L14.5894 8.4375ZM7.5 25.3125C7.5 24.8152 7.69754 24.3383 8.04918 23.9867C8.40081 23.635 8.87772 23.4375 9.375 23.4375H35.625C36.1223 23.4375 36.5992 23.635 36.9508 23.9867C37.3025 24.3383 37.5 24.8152 37.5 25.3125V29.0625C37.5 29.5598 37.3025 30.0367 36.9508 30.3883C36.5992 30.74 36.1223 30.9375 35.625 30.9375H9.375C8.87772 30.9375 8.40081 30.74 8.04918 30.3883C7.69754 30.0367 7.5 29.5598 7.5 29.0625V25.3125ZM9.375 27.1875C9.375 26.8167 9.48497 26.4541 9.69099 26.1458C9.89702 25.8375 10.1899 25.5971 10.5325 25.4552C10.8751 25.3133 11.2521 25.2762 11.6158 25.3485C11.9795 25.4209 12.3136 25.5995 12.5758 25.8617C12.838 26.1239 13.0166 26.458 13.089 26.8217C13.1613 27.1854 13.1242 27.5624 12.9823 27.905C12.8404 28.2476 12.6 28.5405 12.2917 28.7465C11.9834 28.9525 11.6208 29.0625 11.25 29.0625C10.7527 29.0625 10.2758 28.865 9.92418 28.5133C9.57254 28.1617 9.375 27.6848 9.375 27.1875ZM31.875 27.1875C31.875 26.8167 31.985 26.4541 32.191 26.1458C32.397 25.8375 32.6899 25.5971 33.0325 25.4552C33.3751 25.3133 33.7521 25.2762 34.1158 25.3485C34.4795 25.4209 34.8136 25.5995 35.0758 25.8617C35.3381 26.1239 35.5166 26.458 35.589 26.8217C35.6613 27.1854 35.6242 27.5624 35.4823 27.905C35.3404 28.2476 35.1 28.5405 34.7917 28.7465C34.4834 28.9525 34.1208 29.0625 33.75 29.0625C33.2527 29.0625 32.7758 28.865 32.4242 28.5133C32.0725 28.1617 31.875 27.6848 31.875 27.1875Z" fill="black" fill-opacity="0.2"/>
</g>
</g>
</svg>
