<svg width="85" height="85" viewBox="0 0 85 85" fill="none" xmlns="http://www.w3.org/2000/svg">
<rect width="85" height="85" rx="42.5" fill="#ACC6EB"/>
<path d="M29.375 59.375V60.3125C29.375 61.0584 29.6713 61.7738 30.1988 62.3012C30.7262 62.8287 31.4416 63.125 32.1875 63.125C32.9334 63.125 33.6488 62.8287 34.1762 62.3012C34.7037 61.7738 35 61.0584 35 60.3125V59.375H50V60.3125C50 61.0584 50.2963 61.7738 50.8238 62.3012C51.3512 62.8287 52.0666 63.125 52.8125 63.125C53.5584 63.125 54.2738 62.8287 54.8012 62.3012C55.3287 61.7738 55.625 61.0584 55.625 60.3125V59.375C56.6196 59.375 57.5734 58.9799 58.2766 58.2766C58.9799 57.5734 59.375 56.6196 59.375 55.625V46.25C59.3701 45.0091 58.9549 43.8047 58.1943 42.8243C57.4336 41.8439 56.3701 41.1425 55.1694 40.8294L51.7794 30.6575C51.655 30.284 51.4162 29.9591 51.0968 29.7289C50.7774 29.4987 50.3937 29.3749 50 29.375H35C34.6063 29.3749 34.2226 29.4987 33.9032 29.7289C33.5838 29.9591 33.345 30.284 33.2206 30.6575L29.8306 40.8294C28.6299 41.1425 27.5664 41.8439 26.8057 42.8243C26.0451 43.8047 25.6299 45.0091 25.625 46.25V55.625C25.625 56.6196 26.0201 57.5734 26.7233 58.2766C27.4266 58.9799 28.3804 59.375 29.375 59.375ZM36.3519 33.125H48.6481L51.1494 40.625H33.8506L36.3519 33.125ZM29.375 46.25C29.375 45.7527 29.5725 45.2758 29.9242 44.9242C30.2758 44.5725 30.7527 44.375 31.25 44.375H53.75C54.2473 44.375 54.7242 44.5725 55.0758 44.9242C55.4275 45.2758 55.625 45.7527 55.625 46.25V55.625H29.375V46.25ZM36.875 23.75C36.875 23.2527 37.0725 22.7758 37.4242 22.4242C37.7758 22.0725 38.2527 21.875 38.75 21.875H46.25C46.7473 21.875 47.2242 22.0725 47.5758 22.4242C47.9275 22.7758 48.125 23.2527 48.125 23.75C48.125 24.2473 47.9275 24.7242 47.5758 25.0758C47.2242 25.4275 46.7473 25.625 46.25 25.625H38.75C38.2527 25.625 37.7758 25.4275 37.4242 25.0758C37.0725 24.7242 36.875 24.2473 36.875 23.75ZM35 50C35 50.3708 34.89 50.7334 34.684 51.0417C34.478 51.35 34.1851 51.5904 33.8425 51.7323C33.4999 51.8742 33.1229 51.9113 32.7592 51.839C32.3955 51.7666 32.0614 51.5881 31.7992 51.3258C31.537 51.0636 31.3584 50.7295 31.286 50.3658C31.2137 50.0021 31.2508 49.6251 31.3927 49.2825C31.5346 48.9399 31.775 48.647 32.0833 48.441C32.3916 48.235 32.7542 48.125 33.125 48.125C33.6223 48.125 34.0992 48.3225 34.4508 48.6742C34.8025 49.0258 35 49.5027 35 50ZM53.75 50C53.75 50.3708 53.64 50.7334 53.434 51.0417C53.228 51.35 52.9351 51.5904 52.5925 51.7323C52.2499 51.8742 51.8729 51.9113 51.5092 51.839C51.1455 51.7666 50.8114 51.5881 50.5492 51.3258C50.2869 51.0636 50.1084 50.7295 50.036 50.3658C49.9637 50.0021 50.0008 49.6251 50.1427 49.2825C50.2846 48.9399 50.525 48.647 50.8333 48.441C51.1416 48.235 51.5042 48.125 51.875 48.125C52.3723 48.125 52.8492 48.3225 53.2008 48.6742C53.5525 49.0258 53.75 49.5027 53.75 50Z" fill="#2F5E9D"/>
</svg>
