<svg width="10" height="8" viewBox="0 0 10 8" fill="none" xmlns="http://www.w3.org/2000/svg">
<path d="M9.16705 0.666016H0.833716C0.67522 0.665943 0.519989 0.711072 0.386236 0.796108C0.252482 0.881144 0.145753 1.00256 0.0785694 1.14611C0.0113855 1.28967 -0.0134666 1.4494 0.00692856 1.60658C0.0273237 1.76376 0.0921201 1.91186 0.193716 2.03352L4.36038 7.03352C4.43859 7.1273 4.53646 7.20275 4.64705 7.25453C4.75765 7.3063 4.87827 7.33314 5.00038 7.33314C5.1225 7.33314 5.24312 7.3063 5.35372 7.25453C5.46431 7.20275 5.56217 7.1273 5.64038 7.03352L9.80705 2.03352C9.90865 1.91186 9.97344 1.76376 9.99384 1.60658C10.0142 1.4494 9.98938 1.28967 9.9222 1.14611C9.85501 1.00256 9.74828 0.881144 9.61453 0.796108C9.48078 0.711072 9.32555 0.665943 9.16705 0.666016ZM5.00038 5.19768L2.61288 2.33268H7.38788L5.00038 5.19768Z" fill="#2f5e9d"/>
</svg>
