<svg width="10" height="8" viewBox="0 0 10 8" fill="none" xmlns="http://www.w3.org/2000/svg">
<path d="M5.64038 0.965948C5.55952 0.876439 5.46078 0.804887 5.35054 0.755915C5.2403 0.706943 5.12101 0.681641 5.00038 0.681641C4.87976 0.681641 4.76047 0.706943 4.65023 0.755915C4.53999 0.804887 4.44125 0.876439 4.36038 0.965948L0.193716 5.96595C0.0921201 6.0876 0.0273237 6.2357 0.00692856 6.39288C-0.0134666 6.55006 0.0113855 6.7098 0.0785694 6.85335C0.145753 6.9969 0.252482 7.11832 0.386236 7.20336C0.519989 7.28839 0.67522 7.33352 0.833716 7.33345H9.16705C9.32555 7.33352 9.48078 7.28839 9.61453 7.20336C9.74828 7.11832 9.85501 6.9969 9.9222 6.85335C9.98938 6.7098 10.0142 6.55006 9.99384 6.39288C9.97344 6.2357 9.90865 6.0876 9.80705 5.96595L5.64038 0.965948ZM2.61288 5.66678L5.00038 2.80261L7.38788 5.66678H2.61288Z" fill="#183357"/>
</svg>
