<svg width="20" height="19" viewBox="0 0 20 19" fill="none" xmlns="http://www.w3.org/2000/svg">
<path d="M15.8335 7.00065C16.4927 7.00065 17.1372 6.80516 17.6854 6.43888C18.2335 6.07261 18.6608 5.55202 18.9131 4.94293C19.1654 4.33384 19.2314 3.66362 19.1028 3.01702C18.9741 2.37041 18.6567 1.77647 18.1905 1.3103C17.7243 0.844122 17.1304 0.526652 16.4838 0.398035C15.8372 0.269418 15.167 0.335429 14.5579 0.587721C13.9488 0.840013 13.4282 1.26725 13.0619 1.81542C12.6956 2.36358 12.5001 3.00805 12.5001 3.66732C12.5046 3.98169 12.5543 4.29378 12.6476 4.59399L6.71764 7.38065C6.28098 6.85083 5.69136 6.46877 5.02937 6.28668C4.36738 6.1046 3.66532 6.13137 3.01911 6.36334C2.37291 6.59531 1.81411 7.02117 1.41906 7.58271C1.02402 8.14425 0.812012 8.81408 0.812012 9.50065C0.812012 10.1872 1.02402 10.8571 1.41906 11.4186C1.81411 11.9801 2.37291 12.406 3.01911 12.638C3.66532 12.8699 4.36738 12.8967 5.02937 12.7146C5.69136 12.5325 6.28098 12.1505 6.71764 11.6207L12.6476 14.4073C12.5543 14.7075 12.5046 15.0196 12.5001 15.334C12.4982 16.1065 12.764 16.8557 13.2523 17.4544C13.7405 18.053 14.4211 18.4639 15.1782 18.6173C15.9353 18.7707 16.7222 18.6571 17.4049 18.2958C18.0877 17.9344 18.6242 17.3477 18.9231 16.6354C19.222 15.9231 19.265 15.1292 19.0446 14.3889C18.8242 13.6485 18.3541 13.0073 17.7143 12.5745C17.0745 12.1416 16.3045 11.9438 15.5352 12.0146C14.766 12.0855 14.0451 12.4207 13.4951 12.9632L7.43764 10.1173C7.52098 9.71071 7.52098 9.29143 7.43764 8.88482L13.4951 6.03815C14.1174 6.65449 14.9577 7.00038 15.8335 7.00065ZM15.8335 2.00065C16.1631 2.00065 16.4853 2.0984 16.7594 2.28154C17.0335 2.46467 17.2471 2.72497 17.3733 3.02951C17.4994 3.33406 17.5324 3.66917 17.4681 3.99247C17.4038 4.31577 17.2451 4.61274 17.012 4.84583C16.7789 5.07892 16.4819 5.23765 16.1586 5.30196C15.8353 5.36627 15.5002 5.33326 15.1957 5.20712C14.8911 5.08097 14.6308 4.86735 14.4477 4.59327C14.2646 4.31919 14.1668 3.99695 14.1668 3.66732C14.1668 3.22529 14.3424 2.80137 14.655 2.48881C14.9675 2.17625 15.3914 2.00065 15.8335 2.00065ZM4.16681 11.1673C3.83717 11.1673 3.51494 11.0696 3.24086 10.8864C2.96678 10.7033 2.75316 10.443 2.62701 10.1385C2.50086 9.83391 2.46786 9.4988 2.53217 9.1755C2.59648 8.8522 2.75521 8.55523 2.9883 8.32214C3.22139 8.08905 3.51836 7.93032 3.84166 7.86601C4.16496 7.8017 4.50007 7.83471 4.80461 7.96085C5.10916 8.087 5.36946 8.30062 5.55259 8.5747C5.73573 8.84878 5.83348 9.17102 5.83348 9.50065C5.83348 9.94268 5.65788 10.3666 5.34532 10.6792C5.03276 10.9917 4.60884 11.1673 4.16681 11.1673ZM15.8335 13.6673C16.1631 13.6673 16.4853 13.7651 16.7594 13.9482C17.0335 14.1313 17.2471 14.3916 17.3733 14.6962C17.4994 15.0007 17.5324 15.3358 17.4681 15.6591C17.4038 15.9824 17.2451 16.2794 17.012 16.5125C16.7789 16.7456 16.4819 16.9043 16.1586 16.9686C15.8353 17.0329 15.5002 16.9999 15.1957 16.8738C14.8911 16.7476 14.6308 16.534 14.4477 16.2599C14.2646 15.9859 14.1668 15.6636 14.1668 15.334C14.1668 14.892 14.3424 14.468 14.655 14.1555C14.9675 13.8429 15.3914 13.6673 15.8335 13.6673Z" fill="#2f5e9d"/>
</svg>
