<svg width="18" height="17" viewBox="0 0 18 17" fill="none" xmlns="http://www.w3.org/2000/svg">
<path d="M16.084 2.34173C15.6278 1.78972 15.0548 1.34578 14.4064 1.04187C13.7579 0.737966 13.0501 0.581665 12.334 0.584228C11.1087 0.547128 9.91577 0.981054 9.00067 1.79673C8.08556 0.981054 6.89264 0.547128 5.66733 0.584228C4.95121 0.581665 4.24342 0.737966 3.59498 1.04187C2.94653 1.34578 2.37355 1.78972 1.91733 2.34173C1.12317 3.30506 0.292334 5.04923 0.843167 7.89173C1.72233 12.4309 8.31483 16.1559 8.59317 16.3084C8.71724 16.3776 8.85694 16.4139 8.999 16.4139C9.14106 16.4139 9.28076 16.3776 9.40483 16.3084C9.68483 16.1526 16.2773 12.4276 17.1548 7.89173C17.709 5.04923 16.8782 3.30506 16.084 2.34173ZM15.5223 7.57506C14.9007 10.7842 10.3823 13.7692 9.00067 14.6176C7.054 13.4426 3.049 10.4926 2.48317 7.57506C2.05567 5.37006 2.64067 4.08923 3.20733 3.40256C3.507 3.04099 3.88298 2.75021 4.3083 2.5511C4.73361 2.35199 5.19772 2.24947 5.66733 2.2509C6.16891 2.21328 6.67168 2.30627 7.12661 2.52082C7.58155 2.73536 7.97312 3.06412 8.26317 3.47506C8.33469 3.60667 8.4402 3.71669 8.56871 3.79366C8.69721 3.87062 8.84401 3.91172 8.99379 3.91265C9.14358 3.91359 9.29088 3.87433 9.42034 3.79898C9.54979 3.72363 9.65667 3.61494 9.72983 3.48423C10.0193 3.07009 10.4117 2.73854 10.8684 2.52227C11.325 2.306 11.8302 2.21247 12.334 2.2509C12.8046 2.2486 13.2698 2.35071 13.6962 2.54985C14.1226 2.749 14.4995 3.04023 14.7998 3.40256C15.3648 4.08923 15.9498 5.37006 15.5223 7.57506Z" fill="#2f5e9d"/>
</svg>
