<svg width="18" height="18" viewBox="0 0 18 18" fill="none" xmlns="http://www.w3.org/2000/svg">
<path d="M9.0005 0.666028C7.72486 0.665197 6.46605 0.957235 5.32108 1.51964C4.17611 2.08205 3.17553 2.8998 2.39645 3.9099C1.61737 4.92 1.08059 6.09548 0.827456 7.34575C0.574326 8.59603 0.61161 9.88773 0.936435 11.1213C1.26126 12.3549 1.86495 13.4975 2.701 14.461C3.53704 15.4244 4.58312 16.1831 5.75863 16.6785C6.93414 17.174 8.2077 17.3929 9.48117 17.3185C10.7546 17.2441 11.994 16.8783 13.1038 16.2494L16.2372 17.2935C16.3223 17.3204 16.4112 17.3336 16.5005 17.3327C16.6325 17.3326 16.7625 17.3012 16.88 17.241C16.9974 17.1808 17.0989 17.0935 17.176 16.9864C17.2532 16.8794 17.3038 16.7555 17.3237 16.625C17.3436 16.4946 17.3322 16.3612 17.2905 16.236L16.2505 13.1027C16.9708 11.8356 17.3457 10.4016 17.3378 8.94406C17.3299 7.48656 16.9394 6.05669 16.2053 4.7975C15.4713 3.53831 14.4194 2.49396 13.155 1.76891C11.8906 1.04387 10.458 0.663559 9.0005 0.666028ZM14.5447 13.2669L15.183 15.1835L13.2663 14.5452C13.1494 14.5053 13.025 14.4921 12.9023 14.5065C12.7796 14.5209 12.6617 14.5626 12.5572 14.6285C11.1673 15.5081 9.50187 15.8443 7.87962 15.5727C6.25737 15.3012 4.79224 14.4409 3.76463 13.1566C2.73701 11.8723 2.2191 10.2541 2.30999 8.6118C2.40089 6.96949 3.09421 5.41837 4.25728 4.2553C5.42035 3.09224 6.97147 2.39891 8.61378 2.30801C10.2561 2.21712 11.8742 2.73504 13.1586 3.76265C14.4429 4.79026 15.3031 6.2554 15.5747 7.87765C15.8463 9.4999 15.5101 11.1653 14.6305 12.5552C14.5641 12.66 14.522 12.7782 14.5072 12.9013C14.4923 13.0244 14.5051 13.1493 14.5447 13.2669Z" fill="#3B7DD6"/>
<path d="M9.0005 0.666028C7.72486 0.665197 6.46605 0.957235 5.32108 1.51964C4.17611 2.08205 3.17553 2.8998 2.39645 3.9099C1.61737 4.92 1.08059 6.09548 0.827456 7.34575C0.574326 8.59603 0.61161 9.88773 0.936435 11.1213C1.26126 12.3549 1.86495 13.4975 2.701 14.461C3.53704 15.4244 4.58312 16.1831 5.75863 16.6785C6.93414 17.174 8.2077 17.3929 9.48117 17.3185C10.7546 17.2441 11.994 16.8783 13.1038 16.2494L16.2372 17.2935C16.3223 17.3204 16.4112 17.3336 16.5005 17.3327C16.6325 17.3326 16.7625 17.3012 16.88 17.241C16.9974 17.1808 17.0989 17.0935 17.176 16.9864C17.2532 16.8794 17.3038 16.7555 17.3237 16.625C17.3436 16.4946 17.3322 16.3612 17.2905 16.236L16.2505 13.1027C16.9708 11.8356 17.3457 10.4016 17.3378 8.94406C17.3299 7.48656 16.9394 6.05669 16.2053 4.7975C15.4713 3.53831 14.4194 2.49396 13.155 1.76891C11.8906 1.04387 10.458 0.663559 9.0005 0.666028ZM14.5447 13.2669L15.183 15.1835L13.2663 14.5452C13.1494 14.5053 13.025 14.4921 12.9023 14.5065C12.7796 14.5209 12.6617 14.5626 12.5572 14.6285C11.1673 15.5081 9.50187 15.8443 7.87962 15.5727C6.25737 15.3012 4.79224 14.4409 3.76463 13.1566C2.73701 11.8723 2.2191 10.2541 2.30999 8.6118C2.40089 6.96949 3.09421 5.41837 4.25728 4.2553C5.42035 3.09224 6.97147 2.39891 8.61378 2.30801C10.2561 2.21712 11.8742 2.73504 13.1586 3.76265C14.4429 4.79026 15.3031 6.2554 15.5747 7.87765C15.8463 9.4999 15.5101 11.1653 14.6305 12.5552C14.5641 12.66 14.522 12.7782 14.5072 12.9013C14.4923 13.0244 14.5051 13.1493 14.5447 13.2669Z" fill="black" fill-opacity="0.2"/>
</svg>
