<svg width="12" height="20" viewBox="0 0 12 20" fill="none" xmlns="http://www.w3.org/2000/svg">
<path d="M1.93749 17.5207C1.37507 16.9784 0.928226 16.328 0.623889 15.6084C0.319552 14.8889 0.164019 14.1152 0.166659 13.334V5.00065C0.166659 3.89558 0.605646 2.83577 1.38705 2.05437C2.16845 1.27297 3.22826 0.833984 4.33333 0.833984C5.43839 0.833984 6.4982 1.27297 7.2796 2.05437C8.06101 2.83577 8.49999 3.89558 8.49999 5.00065V13.334C8.49999 13.997 8.2366 14.6329 7.76776 15.1018C7.29892 15.5706 6.66303 15.834 5.99999 15.834C5.33695 15.834 4.70107 15.5706 4.23223 15.1018C3.76338 14.6329 3.49999 13.997 3.49999 13.334V6.66732C3.49999 6.4463 3.58779 6.23434 3.74407 6.07806C3.90035 5.92178 4.11231 5.83398 4.33333 5.83398C4.55434 5.83398 4.7663 5.92178 4.92258 6.07806C5.07886 6.23434 5.16666 6.4463 5.16666 6.66732V13.334C5.16666 13.555 5.25446 13.767 5.41074 13.9232C5.56702 14.0795 5.77898 14.1673 5.99999 14.1673C6.22101 14.1673 6.43297 14.0795 6.58925 13.9232C6.74553 13.767 6.83333 13.555 6.83333 13.334V5.00065C6.83333 4.33761 6.56993 3.70173 6.10109 3.23288C5.63225 2.76404 4.99637 2.50065 4.33333 2.50065C3.67028 2.50065 3.0344 2.76404 2.56556 3.23288C2.09672 3.70173 1.83333 4.33761 1.83333 5.00065V13.334C1.83306 13.8921 1.94494 14.4446 2.16231 14.9587C2.37968 15.4728 2.69813 15.9379 3.09873 16.3266C3.49934 16.7152 3.97394 17.0194 4.49437 17.2211C5.0148 17.4228 5.57045 17.5178 6.12833 17.5007C7.23522 17.4311 8.27269 16.9375 9.02486 16.1224C9.77704 15.3074 10.186 14.2337 10.1667 13.1248V3.33398C10.1667 3.11297 10.2545 2.90101 10.4107 2.74473C10.567 2.58845 10.779 2.50065 11 2.50065C11.221 2.50065 11.433 2.58845 11.5892 2.74473C11.7455 2.90101 11.8333 3.11297 11.8333 3.33398V13.1248C11.8503 14.6663 11.2719 16.1549 10.2186 17.2805C9.16531 18.4061 7.71837 19.082 6.17916 19.1673H5.99999C4.48228 19.1724 3.02332 18.5811 1.93749 17.5207Z" fill="#3B7DD6"/>
<path d="M1.93749 17.5207C1.37507 16.9784 0.928226 16.328 0.623889 15.6084C0.319552 14.8889 0.164019 14.1152 0.166659 13.334V5.00065C0.166659 3.89558 0.605646 2.83577 1.38705 2.05437C2.16845 1.27297 3.22826 0.833984 4.33333 0.833984C5.43839 0.833984 6.4982 1.27297 7.2796 2.05437C8.06101 2.83577 8.49999 3.89558 8.49999 5.00065V13.334C8.49999 13.997 8.2366 14.6329 7.76776 15.1018C7.29892 15.5706 6.66303 15.834 5.99999 15.834C5.33695 15.834 4.70107 15.5706 4.23223 15.1018C3.76338 14.6329 3.49999 13.997 3.49999 13.334V6.66732C3.49999 6.4463 3.58779 6.23434 3.74407 6.07806C3.90035 5.92178 4.11231 5.83398 4.33333 5.83398C4.55434 5.83398 4.7663 5.92178 4.92258 6.07806C5.07886 6.23434 5.16666 6.4463 5.16666 6.66732V13.334C5.16666 13.555 5.25446 13.767 5.41074 13.9232C5.56702 14.0795 5.77898 14.1673 5.99999 14.1673C6.22101 14.1673 6.43297 14.0795 6.58925 13.9232C6.74553 13.767 6.83333 13.555 6.83333 13.334V5.00065C6.83333 4.33761 6.56993 3.70173 6.10109 3.23288C5.63225 2.76404 4.99637 2.50065 4.33333 2.50065C3.67028 2.50065 3.0344 2.76404 2.56556 3.23288C2.09672 3.70173 1.83333 4.33761 1.83333 5.00065V13.334C1.83306 13.8921 1.94494 14.4446 2.16231 14.9587C2.37968 15.4728 2.69813 15.9379 3.09873 16.3266C3.49934 16.7152 3.97394 17.0194 4.49437 17.2211C5.0148 17.4228 5.57045 17.5178 6.12833 17.5007C7.23522 17.4311 8.27269 16.9375 9.02486 16.1224C9.77704 15.3074 10.186 14.2337 10.1667 13.1248V3.33398C10.1667 3.11297 10.2545 2.90101 10.4107 2.74473C10.567 2.58845 10.779 2.50065 11 2.50065C11.221 2.50065 11.433 2.58845 11.5892 2.74473C11.7455 2.90101 11.8333 3.11297 11.8333 3.33398V13.1248C11.8503 14.6663 11.2719 16.1549 10.2186 17.2805C9.16531 18.4061 7.71837 19.082 6.17916 19.1673H5.99999C4.48228 19.1724 3.02332 18.5811 1.93749 17.5207Z" fill="black" fill-opacity="0.2"/>
</svg>
