<svg width="40" height="40" viewBox="0 0 40 40" fill="none" xmlns="http://www.w3.org/2000/svg">
<rect width="40" height="40" rx="20" fill="#3B7DD6"/>
<path d="M20 19.1673C20.8241 19.1673 21.6297 18.9229 22.3149 18.4651C23.0001 18.0073 23.5341 17.3565 23.8495 16.5952C24.1649 15.8338 24.2474 14.996 24.0866 14.1878C23.9258 13.3795 23.529 12.6371 22.9463 12.0544C22.3636 11.4717 21.6211 11.0748 20.8129 10.914C20.0046 10.7533 19.1668 10.8358 18.4055 11.1512C17.6441 11.4665 16.9934 12.0006 16.5355 12.6858C16.0777 13.371 15.8333 14.1766 15.8333 15.0007C15.8347 16.1053 16.2741 17.1644 17.0552 17.9455C17.8363 18.7266 18.8953 19.166 20 19.1673ZM20 12.5007C20.4945 12.5007 20.9778 12.6473 21.3889 12.922C21.8 13.1967 22.1205 13.5871 22.3097 14.0439C22.4989 14.5008 22.5484 15.0034 22.452 15.4884C22.3555 15.9733 22.1174 16.4188 21.7678 16.7684C21.4181 17.1181 20.9727 17.3562 20.4877 17.4526C20.0028 17.5491 19.5001 17.4996 19.0433 17.3104C18.5865 17.1211 18.196 16.8007 17.9213 16.3896C17.6466 15.9785 17.5 15.4951 17.5 15.0007C17.5 14.3376 17.7634 13.7017 18.2322 13.2329C18.7011 12.764 19.337 12.5007 20 12.5007ZM13.3333 29.1673H26.6667C26.8877 29.1673 27.0996 29.0795 27.2559 28.9232C27.4122 28.767 27.5 28.555 27.5 28.334V25.0007C27.4987 23.896 27.0593 22.837 26.2782 22.0558C25.497 21.2747 24.438 20.8353 23.3333 20.834H16.6667C15.562 20.8353 14.503 21.2747 13.7218 22.0558C12.9407 22.837 12.5013 23.896 12.5 25.0007V28.334C12.5 28.555 12.5878 28.767 12.7441 28.9232C12.9004 29.0795 13.1123 29.1673 13.3333 29.1673ZM14.1667 25.0007C14.1667 24.3376 14.4301 23.7017 14.8989 23.2329C15.3677 22.764 16.0036 22.5007 16.6667 22.5007H23.3333C23.9964 22.5007 24.6323 22.764 25.1011 23.2329C25.5699 23.7017 25.8333 24.3376 25.8333 25.0007V27.5007H14.1667V25.0007Z" fill="#F8FAFC"/>
</svg>
