<svg width="20" height="18" viewBox="0 0 20 18" fill="none" xmlns="http://www.w3.org/2000/svg">
<path d="M1.66671 17.3327H15.5367C16.127 17.3364 16.7001 17.1336 17.1566 16.7594C17.6132 16.3852 17.9245 15.8631 18.0367 15.2835L19.1242 9.45018C19.1907 9.09321 19.1776 8.72597 19.0858 8.37464C18.994 8.02332 18.8259 7.69657 18.5934 7.41768C18.3529 7.12921 18.0517 6.89734 17.7113 6.73861C17.371 6.57987 16.9998 6.49818 16.6242 6.49935H12.6484V3.16602C12.6484 1.44852 10.8875 0.666016 9.25171 0.666016C9.03069 0.666016 8.81873 0.753813 8.66245 0.910093C8.50617 1.06637 8.41837 1.27834 8.41837 1.49935C8.41837 3.08852 8.13504 4.75768 7.81504 5.06935L5.49421 7.33268H1.66671C1.44569 7.33268 1.23373 7.42048 1.07745 7.57676C0.921171 7.73304 0.833374 7.945 0.833374 8.16602V16.4993C0.833374 16.7204 0.921171 16.9323 1.07745 17.0886C1.23373 17.2449 1.44569 17.3327 1.66671 17.3327ZM6.66671 8.51685L8.97837 6.26685C9.75337 5.51102 9.98837 3.67352 10.0617 2.44685C10.5134 2.55435 10.9859 2.76352 10.9859 3.17018V7.33685C10.9859 7.55786 11.0737 7.76982 11.23 7.9261C11.3862 8.08238 11.5982 8.17018 11.8192 8.17018H16.6284C16.7591 8.16925 16.8884 8.19715 17.007 8.25188C17.1257 8.30662 17.2309 8.38684 17.315 8.48685C17.3922 8.57784 17.4479 8.68496 17.4782 8.80032C17.5085 8.91569 17.5125 9.03638 17.49 9.15352L16.4067 14.9868C16.3638 15.1838 16.2533 15.3596 16.0944 15.4836C15.9355 15.6077 15.7382 15.6722 15.5367 15.666H6.66671V8.51685ZM2.50004 8.99935H5.00004V15.666H2.50004V8.99935Z" fill="#3B7DD6"/>
<path d="M1.66671 17.3327H15.5367C16.127 17.3364 16.7001 17.1336 17.1566 16.7594C17.6132 16.3852 17.9245 15.8631 18.0367 15.2835L19.1242 9.45018C19.1907 9.09321 19.1776 8.72597 19.0858 8.37464C18.994 8.02332 18.8259 7.69657 18.5934 7.41768C18.3529 7.12921 18.0517 6.89734 17.7113 6.73861C17.371 6.57987 16.9998 6.49818 16.6242 6.49935H12.6484V3.16602C12.6484 1.44852 10.8875 0.666016 9.25171 0.666016C9.03069 0.666016 8.81873 0.753813 8.66245 0.910093C8.50617 1.06637 8.41837 1.27834 8.41837 1.49935C8.41837 3.08852 8.13504 4.75768 7.81504 5.06935L5.49421 7.33268H1.66671C1.44569 7.33268 1.23373 7.42048 1.07745 7.57676C0.921171 7.73304 0.833374 7.945 0.833374 8.16602V16.4993C0.833374 16.7204 0.921171 16.9323 1.07745 17.0886C1.23373 17.2449 1.44569 17.3327 1.66671 17.3327ZM6.66671 8.51685L8.97837 6.26685C9.75337 5.51102 9.98837 3.67352 10.0617 2.44685C10.5134 2.55435 10.9859 2.76352 10.9859 3.17018V7.33685C10.9859 7.55786 11.0737 7.76982 11.23 7.9261C11.3862 8.08238 11.5982 8.17018 11.8192 8.17018H16.6284C16.7591 8.16925 16.8884 8.19715 17.007 8.25188C17.1257 8.30662 17.2309 8.38684 17.315 8.48685C17.3922 8.57784 17.4479 8.68496 17.4782 8.80032C17.5085 8.91569 17.5125 9.03638 17.49 9.15352L16.4067 14.9868C16.3638 15.1838 16.2533 15.3596 16.0944 15.4836C15.9355 15.6077 15.7382 15.6722 15.5367 15.666H6.66671V8.51685ZM2.50004 8.99935H5.00004V15.666H2.50004V8.99935Z" fill="black" fill-opacity="0.2"/>
</svg>
