<svg width="40" height="40" viewBox="0 0 40 40" fill="none" xmlns="http://www.w3.org/2000/svg">
<path d="M20 13.7706C19.6547 13.394 19.2422 13.0822 18.7818 12.852C18.122 12.522 17.387 12.3716 16.6508 12.4157C15.2856 12.4204 13.938 13.0288 13.0451 14.2174C12.1462 15.4139 11.7462 17.1446 12.1691 19.3266L20 13.7706ZM20 13.7706C20.3453 13.394 20.7577 13.0822 21.2181 12.852C21.878 12.522 22.6129 12.3716 23.3492 12.4157C24.7144 12.4204 26.062 13.0288 26.9548 14.2174C27.8537 15.4139 28.2538 17.1446 27.8308 19.3267C27.3869 21.6177 25.4244 23.6777 23.6831 25.121C22.7981 25.8545 21.9408 26.4523 21.3052 26.8667C20.987 27.0741 20.7235 27.2361 20.5387 27.3467C20.4463 27.4021 20.3735 27.4446 20.3233 27.4735L20.2654 27.5067L20.2498 27.5155L20.2455 27.5179L20.2443 27.5186L20.2439 27.5189C20.2437 27.5189 20.2436 27.519 20 27.0824M20 13.7706L12.1691 19.3267C12.613 21.6177 14.5755 23.6777 16.3169 25.121C17.2019 25.8545 18.0592 26.4523 18.6948 26.8667C19.0129 27.0741 19.2764 27.2361 19.4612 27.3467C19.5536 27.4021 19.6264 27.4446 19.6766 27.4735L19.7346 27.5067L19.7501 27.5155L19.7544 27.5179L19.7557 27.5186L19.7561 27.5189C19.7562 27.5189 19.7564 27.519 20 27.0824M20 27.0824L19.7564 27.519L20 27.6549L20.2436 27.519L20 27.0824Z" stroke="#F8FAFC"/>
</svg>
