<svg width="85" height="85" viewBox="0 0 85 85" fill="none" xmlns="http://www.w3.org/2000/svg">
<rect width="85" height="85" rx="42.5" fill="#5A8CD2"/>
<path d="M61.25 27.5H23.75C23.2527 27.5 22.7758 27.6975 22.4242 28.0492C22.0725 28.4008 21.875 28.8777 21.875 29.375V55.625C21.875 56.1223 22.0725 56.5992 22.4242 56.9508C22.7758 57.3025 23.2527 57.5 23.75 57.5H61.25C61.7473 57.5 62.2242 57.3025 62.5758 56.9508C62.9275 56.5992 63.125 56.1223 63.125 55.625V29.375C63.125 28.8777 62.9275 28.4008 62.5758 28.0492C62.2242 27.6975 61.7473 27.5 61.25 27.5ZM59.375 50.345C58.5899 50.6236 57.8769 51.0738 57.2879 51.6629C56.6988 52.2519 56.2486 52.9649 55.97 53.75H29.03C28.7514 52.9649 28.3012 52.2519 27.7121 51.6629C27.1231 51.0738 26.4101 50.6236 25.625 50.345V34.655C26.4101 34.3764 27.1231 33.9262 27.7121 33.3371C28.3012 32.7481 28.7514 32.0351 29.03 31.25H55.97C56.2486 32.0351 56.6988 32.7481 57.2879 33.3371C57.8769 33.9262 58.5899 34.3764 59.375 34.655V50.345ZM42.5 35C41.0166 35 39.5666 35.4399 38.3332 36.264C37.0999 37.0881 36.1386 38.2594 35.5709 39.6299C35.0032 41.0003 34.8547 42.5083 35.1441 43.9632C35.4335 45.418 36.1478 46.7544 37.1967 47.8033C38.2456 48.8522 39.582 49.5665 41.0368 49.8559C42.4917 50.1453 43.9997 49.9968 45.3701 49.4291C46.7406 48.8614 47.9119 47.9001 48.736 46.6668C49.5601 45.4334 50 43.9834 50 42.5C50 40.5109 49.2098 38.6032 47.8033 37.1967C46.3968 35.7902 44.4891 35 42.5 35ZM42.5 46.25C41.7583 46.25 41.0333 46.0301 40.4166 45.618C39.7999 45.206 39.3193 44.6203 39.0355 43.9351C38.7516 43.2498 38.6774 42.4958 38.8221 41.7684C38.9667 41.041 39.3239 40.3728 39.8484 39.8484C40.3728 39.3239 41.041 38.9667 41.7684 38.8221C42.4958 38.6774 43.2498 38.7516 43.9351 39.0355C44.6203 39.3193 45.206 39.7999 45.618 40.4166C46.0301 41.0333 46.25 41.7583 46.25 42.5C46.25 43.4946 45.8549 44.4484 45.1516 45.1516C44.4484 45.8549 43.4946 46.25 42.5 46.25ZM33.125 42.5C33.125 42.9973 32.9275 43.4742 32.5758 43.8258C32.2242 44.1775 31.7473 44.375 31.25 44.375H29.375C28.8777 44.375 28.4008 44.1775 28.0492 43.8258C27.6975 43.4742 27.5 42.9973 27.5 42.5C27.5 42.0027 27.6975 41.5258 28.0492 41.1742C28.4008 40.8225 28.8777 40.625 29.375 40.625H31.25C31.7473 40.625 32.2242 40.8225 32.5758 41.1742C32.9275 41.5258 33.125 42.0027 33.125 42.5ZM57.5 42.5C57.5 42.9973 57.3025 43.4742 56.9508 43.8258C56.5992 44.1775 56.1223 44.375 55.625 44.375H53.75C53.2527 44.375 52.7758 44.1775 52.4242 43.8258C52.0725 43.4742 51.875 42.9973 51.875 42.5C51.875 42.0027 52.0725 41.5258 52.4242 41.1742C52.7758 40.8225 53.2527 40.625 53.75 40.625H55.625C56.1223 40.625 56.5992 40.8225 56.9508 41.1742C57.3025 41.5258 57.5 42.0027 57.5 42.5Z" fill="#183357"/>
</svg>
