<svg width="85" height="85" viewBox="0 0 85 85" fill="none" xmlns="http://www.w3.org/2000/svg">
<rect width="85" height="85" rx="42.5" fill="#ACC6EB"/>
<path d="M26.7782 31.73L41.7782 37.9794C42.0067 38.076 42.2521 38.1257 42.5001 38.1257C42.7481 38.1257 42.9936 38.076 43.222 37.9794L58.222 31.73C58.563 31.5873 58.8543 31.347 59.0591 31.0393C59.264 30.7315 59.3733 30.3701 59.3733 30.0004C59.3733 29.6307 59.264 29.2692 59.0591 28.9615C58.8543 28.6537 58.563 28.4134 58.222 28.2707L43.222 22.0194C42.7598 21.8282 42.2405 21.8282 41.7782 22.0194L26.7782 28.2707C26.4372 28.4134 26.146 28.6537 25.9411 28.9615C25.7363 29.2692 25.627 29.6307 25.627 30.0004C25.627 30.3701 25.7363 30.7315 25.9411 31.0393C26.146 31.347 26.4372 31.5873 26.7782 31.73ZM42.5001 25.7807L52.6251 29.9994L42.5001 34.2182L32.3751 29.9994L42.5001 25.7807ZM58.222 40.0625L43.222 46.3119C42.9933 46.4073 42.7479 46.4565 42.5001 46.4565C42.2523 46.4565 42.007 46.4073 41.7782 46.3119L26.7782 40.0625C26.551 39.9677 26.3446 39.8291 26.1709 39.6546C25.9972 39.48 25.8596 39.2729 25.7659 39.0452C25.6723 38.8175 25.6244 38.5735 25.625 38.3273C25.6256 38.081 25.6747 37.8373 25.7695 37.61C25.8643 37.3828 26.0029 37.1764 26.1775 37.0027C26.352 36.829 26.5591 36.6914 26.7868 36.5977C27.0146 36.5041 27.2585 36.4562 27.5048 36.4568C27.751 36.4574 27.9947 36.5065 28.222 36.6013L42.5001 42.5525L56.7782 36.6032C57.2372 36.4117 57.7535 36.4104 58.2134 36.5996C58.6734 36.7888 59.0393 37.1529 59.2308 37.6119C59.4222 38.0709 59.4235 38.5872 59.2343 39.0471C59.0451 39.507 58.681 39.873 58.222 40.0644V40.0625ZM58.222 48.395L43.222 54.6463C42.9933 54.7417 42.7479 54.7908 42.5001 54.7908C42.2523 54.7908 42.007 54.7417 41.7782 54.6463L26.7782 48.395C26.551 48.3002 26.3446 48.1616 26.1709 47.9871C25.9972 47.8125 25.8596 47.6054 25.7659 47.3777C25.6723 47.15 25.6244 46.906 25.625 46.6598C25.6256 46.4135 25.6747 46.1698 25.7695 45.9425C25.8643 45.7153 26.0029 45.5089 26.1775 45.3352C26.352 45.1615 26.5591 45.0239 26.7868 44.9302C27.0146 44.8366 27.2585 44.7887 27.5048 44.7893C27.751 44.7899 27.9947 44.839 28.222 44.9338L42.5001 50.885L56.7782 44.9375C57.2372 44.7461 57.7535 44.7448 58.2134 44.934C58.6734 45.1232 59.0393 45.4873 59.2308 45.9463C59.4222 46.4053 59.4235 46.9215 59.2343 47.3815C59.0451 47.8414 58.681 48.2073 58.222 48.3988V48.395ZM59.2308 54.2769C59.4217 54.7357 59.4226 55.2515 59.2335 55.711C59.0444 56.1705 58.6805 56.5361 58.222 56.7275L43.222 62.9788C42.9933 63.0742 42.7479 63.1233 42.5001 63.1233C42.2523 63.1233 42.007 63.0742 41.7782 62.9788L26.7782 56.7275C26.5444 56.6375 26.331 56.5014 26.1506 56.3275C25.9702 56.1535 25.8265 55.9452 25.728 55.7147C25.6295 55.4843 25.5782 55.2364 25.5772 54.9858C25.5761 54.7352 25.6253 54.487 25.7218 54.2557C25.8183 54.0244 25.9602 53.8148 26.1391 53.6393C26.318 53.4638 26.5303 53.326 26.7634 53.2339C26.9964 53.1419 27.2456 53.0975 27.4961 53.1034C27.7467 53.1092 27.9935 53.1653 28.222 53.2682L42.5001 59.2194L56.7782 53.27C57.0055 53.1752 57.2492 53.1261 57.4955 53.1255C57.7417 53.1249 57.9857 53.1728 58.2134 53.2664C58.4412 53.3601 58.6482 53.4977 58.8228 53.6714C58.9973 53.8451 59.136 54.0515 59.2308 54.2788V54.2769Z" fill="#3B7DD6"/>
<path d="M26.7782 31.73L41.7782 37.9794C42.0067 38.076 42.2521 38.1257 42.5001 38.1257C42.7481 38.1257 42.9936 38.076 43.222 37.9794L58.222 31.73C58.563 31.5873 58.8543 31.347 59.0591 31.0393C59.264 30.7315 59.3733 30.3701 59.3733 30.0004C59.3733 29.6307 59.264 29.2692 59.0591 28.9615C58.8543 28.6537 58.563 28.4134 58.222 28.2707L43.222 22.0194C42.7598 21.8282 42.2405 21.8282 41.7782 22.0194L26.7782 28.2707C26.4372 28.4134 26.146 28.6537 25.9411 28.9615C25.7363 29.2692 25.627 29.6307 25.627 30.0004C25.627 30.3701 25.7363 30.7315 25.9411 31.0393C26.146 31.347 26.4372 31.5873 26.7782 31.73ZM42.5001 25.7807L52.6251 29.9994L42.5001 34.2182L32.3751 29.9994L42.5001 25.7807ZM58.222 40.0625L43.222 46.3119C42.9933 46.4073 42.7479 46.4565 42.5001 46.4565C42.2523 46.4565 42.007 46.4073 41.7782 46.3119L26.7782 40.0625C26.551 39.9677 26.3446 39.8291 26.1709 39.6546C25.9972 39.48 25.8596 39.2729 25.7659 39.0452C25.6723 38.8175 25.6244 38.5735 25.625 38.3273C25.6256 38.081 25.6747 37.8373 25.7695 37.61C25.8643 37.3828 26.0029 37.1764 26.1775 37.0027C26.352 36.829 26.5591 36.6914 26.7868 36.5977C27.0146 36.5041 27.2585 36.4562 27.5048 36.4568C27.751 36.4574 27.9947 36.5065 28.222 36.6013L42.5001 42.5525L56.7782 36.6032C57.2372 36.4117 57.7535 36.4104 58.2134 36.5996C58.6734 36.7888 59.0393 37.1529 59.2308 37.6119C59.4222 38.0709 59.4235 38.5872 59.2343 39.0471C59.0451 39.507 58.681 39.873 58.222 40.0644V40.0625ZM58.222 48.395L43.222 54.6463C42.9933 54.7417 42.7479 54.7908 42.5001 54.7908C42.2523 54.7908 42.007 54.7417 41.7782 54.6463L26.7782 48.395C26.551 48.3002 26.3446 48.1616 26.1709 47.9871C25.9972 47.8125 25.8596 47.6054 25.7659 47.3777C25.6723 47.15 25.6244 46.906 25.625 46.6598C25.6256 46.4135 25.6747 46.1698 25.7695 45.9425C25.8643 45.7153 26.0029 45.5089 26.1775 45.3352C26.352 45.1615 26.5591 45.0239 26.7868 44.9302C27.0146 44.8366 27.2585 44.7887 27.5048 44.7893C27.751 44.7899 27.9947 44.839 28.222 44.9338L42.5001 50.885L56.7782 44.9375C57.2372 44.7461 57.7535 44.7448 58.2134 44.934C58.6734 45.1232 59.0393 45.4873 59.2308 45.9463C59.4222 46.4053 59.4235 46.9215 59.2343 47.3815C59.0451 47.8414 58.681 48.2073 58.222 48.3988V48.395ZM59.2308 54.2769C59.4217 54.7357 59.4226 55.2515 59.2335 55.711C59.0444 56.1705 58.6805 56.5361 58.222 56.7275L43.222 62.9788C42.9933 63.0742 42.7479 63.1233 42.5001 63.1233C42.2523 63.1233 42.007 63.0742 41.7782 62.9788L26.7782 56.7275C26.5444 56.6375 26.331 56.5014 26.1506 56.3275C25.9702 56.1535 25.8265 55.9452 25.728 55.7147C25.6295 55.4843 25.5782 55.2364 25.5772 54.9858C25.5761 54.7352 25.6253 54.487 25.7218 54.2557C25.8183 54.0244 25.9602 53.8148 26.1391 53.6393C26.318 53.4638 26.5303 53.326 26.7634 53.2339C26.9964 53.1419 27.2456 53.0975 27.4961 53.1034C27.7467 53.1092 27.9935 53.1653 28.222 53.2682L42.5001 59.2194L56.7782 53.27C57.0055 53.1752 57.2492 53.1261 57.4955 53.1255C57.7417 53.1249 57.9857 53.1728 58.2134 53.2664C58.4412 53.3601 58.6482 53.4977 58.8228 53.6714C58.9973 53.8451 59.136 54.0515 59.2308 54.2788V54.2769Z" fill="black" fill-opacity="0.2"/>
</svg>
