<svg width="85" height="85" viewBox="0 0 85 85" fill="none" xmlns="http://www.w3.org/2000/svg">
<rect width="85" height="85" rx="42.5" fill="#5A8CD2"/>
<path d="M59.3752 42.5H54.3783L53.7502 33.0013C53.7187 32.5257 53.5074 32.08 53.1591 31.7547C52.8108 31.4294 52.3517 31.249 51.8752 31.25H48.1252C48.1252 28.7636 47.1375 26.379 45.3793 24.6209C43.6212 22.8627 41.2366 21.875 38.7502 21.875C36.2638 21.875 33.8792 22.8627 32.1211 24.6209C30.3629 26.379 29.3752 28.7636 29.3752 31.25H25.6252C25.1486 31.249 24.6895 31.4294 24.3413 31.7547C23.993 32.08 23.7816 32.5257 23.7502 33.0013L21.8752 61.1263C21.8582 61.3827 21.8942 61.6399 21.9808 61.8818C22.0674 62.1238 22.2028 62.3454 22.3786 62.5328C22.5544 62.7203 22.7669 62.8695 23.0029 62.9714C23.2388 63.0733 23.4932 63.1256 23.7502 63.125H61.2502C61.5138 63.125 61.7745 63.0694 62.0152 62.9619C62.2559 62.8543 62.4712 62.6972 62.6471 62.5008C62.823 62.3044 62.9555 62.0731 63.0359 61.8221C63.1163 61.571 63.1429 61.3058 63.1139 61.0437L61.2389 44.1688C61.1882 43.71 60.9699 43.286 60.626 42.9781C60.2822 42.6702 59.8368 42.5 59.3752 42.5ZM38.7502 25.625C40.242 25.625 41.6728 26.2176 42.7277 27.2725C43.7826 28.3274 44.3752 29.7582 44.3752 31.25H33.1252C33.1252 29.7582 33.7178 28.3274 34.7727 27.2725C35.8276 26.2176 37.2583 25.625 38.7502 25.625ZM25.7546 59.375L27.3783 35H29.3752V38.75C29.3752 39.2473 29.5727 39.7242 29.9244 40.0758C30.276 40.4275 30.7529 40.625 31.2502 40.625C31.7475 40.625 32.2244 40.4275 32.576 40.0758C32.9276 39.7242 33.1252 39.2473 33.1252 38.75V35H44.3752V38.75C44.3752 39.2473 44.5727 39.7242 44.9244 40.0758C45.276 40.4275 45.7529 40.625 46.2502 40.625C46.7475 40.625 47.2244 40.4275 47.576 40.0758C47.9276 39.7242 48.1252 39.2473 48.1252 38.75V35H50.1202L51.7458 59.375H25.7546ZM55.5033 59.375L54.6296 46.25H57.6971L59.1558 59.375H55.5033Z" fill="#183357"/>
</svg>
