<svg width="85" height="85" viewBox="0 0 85 85" fill="none" xmlns="http://www.w3.org/2000/svg">
<rect width="85" height="85" rx="42.5" fill="#D3E2F7"/>
<path d="M21.875 35V31.25C21.875 30.7527 22.0725 30.2758 22.4242 29.9242C22.7758 29.5725 23.2527 29.375 23.75 29.375C24.2473 29.375 24.7242 29.5725 25.0758 29.9242C25.4275 30.2758 25.625 30.7527 25.625 31.25V35C25.625 35.4973 25.4275 35.9742 25.0758 36.3258C24.7242 36.6775 24.2473 36.875 23.75 36.875C23.2527 36.875 22.7758 36.6775 22.4242 36.3258C22.0725 35.9742 21.875 35.4973 21.875 35ZM61.25 29.375C60.7527 29.375 60.2758 29.5725 59.9242 29.9242C59.5725 30.2758 59.375 30.7527 59.375 31.25V35C59.375 35.4973 59.5725 35.9742 59.9242 36.3258C60.2758 36.6775 60.7527 36.875 61.25 36.875C61.7473 36.875 62.2242 36.6775 62.5758 36.3258C62.9275 35.9742 63.125 35.4973 63.125 35V31.25C63.125 30.7527 62.9275 30.2758 62.5758 29.9242C62.2242 29.5725 61.7473 29.375 61.25 29.375ZM62.5756 59.9244C62.9172 60.278 63.1062 60.7516 63.1019 61.2433C63.0976 61.7349 62.9004 62.2051 62.5528 62.5528C62.2051 62.9004 61.7349 63.0976 61.2433 63.1019C60.7516 63.1062 60.278 62.9172 59.9244 62.5756L56.7238 59.375H28.2762L25.0756 62.5756C24.722 62.9172 24.2484 63.1062 23.7567 63.1019C23.2651 63.0976 22.7949 62.9004 22.4472 62.5528C22.0996 62.2051 21.9024 61.7349 21.8981 61.2433C21.8938 60.7516 22.0828 60.278 22.4244 59.9244L26.1744 56.1744L29.75 52.5969C29.0536 52.0773 28.4877 51.4027 28.0972 50.6265C27.7066 49.8503 27.5022 48.9939 27.5 48.125V27.5C27.5 26.0082 28.0926 24.5774 29.1475 23.5225C30.2024 22.4676 31.6332 21.875 33.125 21.875H51.875C53.3668 21.875 54.7976 22.4676 55.8525 23.5225C56.9074 24.5774 57.5 26.0082 57.5 27.5V48.125C57.4978 48.9939 57.2934 49.8503 56.9028 50.6265C56.5123 51.4027 55.9464 52.0773 55.25 52.5969L58.8256 56.1725L62.5756 59.9244ZM52.9738 55.625L51.0988 53.75H33.9012L32.0262 55.625H52.9738ZM53.75 46.25H31.25V48.125C31.25 48.6223 31.4475 49.0992 31.7992 49.4508C32.1508 49.8025 32.6277 50 33.125 50H51.875C52.3723 50 52.8492 49.8025 53.2008 49.4508C53.5525 49.0992 53.75 48.6223 53.75 48.125V46.25ZM53.75 33.125H31.25V42.5H53.75V33.125ZM53.75 27.5C53.75 27.0027 53.5525 26.5258 53.2008 26.1742C52.8492 25.8225 52.3723 25.625 51.875 25.625H33.125C32.6277 25.625 32.1508 25.8225 31.7992 26.1742C31.4475 26.5258 31.25 27.0027 31.25 27.5V29.375H53.75V27.5Z" fill="#3B7DD6"/>
<path d="M21.875 35V31.25C21.875 30.7527 22.0725 30.2758 22.4242 29.9242C22.7758 29.5725 23.2527 29.375 23.75 29.375C24.2473 29.375 24.7242 29.5725 25.0758 29.9242C25.4275 30.2758 25.625 30.7527 25.625 31.25V35C25.625 35.4973 25.4275 35.9742 25.0758 36.3258C24.7242 36.6775 24.2473 36.875 23.75 36.875C23.2527 36.875 22.7758 36.6775 22.4242 36.3258C22.0725 35.9742 21.875 35.4973 21.875 35ZM61.25 29.375C60.7527 29.375 60.2758 29.5725 59.9242 29.9242C59.5725 30.2758 59.375 30.7527 59.375 31.25V35C59.375 35.4973 59.5725 35.9742 59.9242 36.3258C60.2758 36.6775 60.7527 36.875 61.25 36.875C61.7473 36.875 62.2242 36.6775 62.5758 36.3258C62.9275 35.9742 63.125 35.4973 63.125 35V31.25C63.125 30.7527 62.9275 30.2758 62.5758 29.9242C62.2242 29.5725 61.7473 29.375 61.25 29.375ZM62.5756 59.9244C62.9172 60.278 63.1062 60.7516 63.1019 61.2433C63.0976 61.7349 62.9004 62.2051 62.5528 62.5528C62.2051 62.9004 61.7349 63.0976 61.2433 63.1019C60.7516 63.1062 60.278 62.9172 59.9244 62.5756L56.7238 59.375H28.2762L25.0756 62.5756C24.722 62.9172 24.2484 63.1062 23.7567 63.1019C23.2651 63.0976 22.7949 62.9004 22.4472 62.5528C22.0996 62.2051 21.9024 61.7349 21.8981 61.2433C21.8938 60.7516 22.0828 60.278 22.4244 59.9244L26.1744 56.1744L29.75 52.5969C29.0536 52.0773 28.4877 51.4027 28.0972 50.6265C27.7066 49.8503 27.5022 48.9939 27.5 48.125V27.5C27.5 26.0082 28.0926 24.5774 29.1475 23.5225C30.2024 22.4676 31.6332 21.875 33.125 21.875H51.875C53.3668 21.875 54.7976 22.4676 55.8525 23.5225C56.9074 24.5774 57.5 26.0082 57.5 27.5V48.125C57.4978 48.9939 57.2934 49.8503 56.9028 50.6265C56.5123 51.4027 55.9464 52.0773 55.25 52.5969L58.8256 56.1725L62.5756 59.9244ZM52.9738 55.625L51.0988 53.75H33.9012L32.0262 55.625H52.9738ZM53.75 46.25H31.25V48.125C31.25 48.6223 31.4475 49.0992 31.7992 49.4508C32.1508 49.8025 32.6277 50 33.125 50H51.875C52.3723 50 52.8492 49.8025 53.2008 49.4508C53.5525 49.0992 53.75 48.6223 53.75 48.125V46.25ZM53.75 33.125H31.25V42.5H53.75V33.125ZM53.75 27.5C53.75 27.0027 53.5525 26.5258 53.2008 26.1742C52.8492 25.8225 52.3723 25.625 51.875 25.625H33.125C32.6277 25.625 32.1508 25.8225 31.7992 26.1742C31.4475 26.5258 31.25 27.0027 31.25 27.5V29.375H53.75V27.5Z" fill="black" fill-opacity="0.2"/>
</svg>
